<svg width="370" height="370" viewBox="0 0 370 370" fill="none" xmlns="http://www.w3.org/2000/svg">
<g clip-path="url(#clip0_260_5202)">
<path d="M337.26 0H31.9375C14.2989 0 0 14.2989 0 31.9375V337.26C0 354.899 14.2989 369.198 31.9375 369.198H337.26C354.899 369.198 369.198 354.899 369.198 337.26V31.9375C369.198 14.2989 354.899 0 337.26 0Z" fill="url(#paint0_linear_260_5202)"/>
<path d="M88.4579 156.113C96.1801 150.099 106.279 146.777 116.312 146.777C122.317 146.777 127.171 148.837 130.856 152.113C131.849 152.995 132.73 153.951 133.519 154.935C134.308 153.951 135.191 152.995 136.184 152.113C139.868 148.837 144.722 146.777 150.728 146.777C160.761 146.777 170.869 150.099 178.573 156.113C184.586 160.781 189.292 167.23 191.139 175.017C195.037 175.666 198.5 177.652 201.303 180.278C205.758 184.464 208.941 190.515 210.937 196.742C212.969 203.061 213.982 210.16 213.675 216.982C213.517 220.471 213.007 224.034 212.032 227.44L212.635 227.719C216.069 229.333 218.854 231.867 220.942 235.236C224.887 241.592 226.279 250.742 226.279 262.408C226.279 275.818 221.146 284.921 214.556 290.573C211.124 293.517 207.106 295.699 202.769 296.976C201.196 304.228 197.961 311.017 193.321 316.808C186.61 325.197 176.177 332.287 162.162 332.287C150.932 332.287 142.086 326.069 136.406 320.13C135.399 319.069 134.439 317.963 133.529 316.817C132.616 317.96 131.653 319.063 130.643 320.121C124.962 326.079 116.117 332.287 104.887 332.287C90.8618 332.287 80.4295 325.197 73.7282 316.808C69.0807 311.019 65.8401 304.23 64.2611 296.976C59.9267 295.698 55.9123 293.515 52.4828 290.573C45.893 284.912 40.7695 275.818 40.7695 262.408C40.7695 250.742 42.1618 241.592 46.0971 235.236C48.185 231.774 51.2994 229.05 55.0074 227.44C54.0538 224.03 53.5024 220.519 53.3645 216.982C53.0582 210.16 54.07 203.061 56.1026 196.742C58.0981 190.524 61.2724 184.464 65.7368 180.278C68.5289 177.558 72.066 175.726 75.9001 175.017C77.7564 167.221 82.4528 160.781 88.4579 156.113ZM97.0155 167.092C91.9478 171.035 88.9777 176.288 88.9777 182.339C88.9769 183.441 88.7142 184.528 88.2114 185.508C87.7086 186.489 86.9799 187.337 86.0854 187.981C85.1908 188.625 84.1562 189.048 83.0663 189.214C81.9765 189.38 80.8628 189.286 79.8169 188.937C78.5453 188.51 77.1994 188.612 75.2689 190.431C73.1156 192.445 70.9344 196.092 69.3566 200.992C67.7782 205.955 67.0747 211.155 67.2775 216.36C67.5096 221.519 68.7347 225.806 70.6653 228.702C70.9847 229.182 71.2435 229.699 71.4357 230.242H81.4783C88.1606 230.241 94.5959 232.769 99.4909 237.317C104.386 241.865 107.378 248.097 107.866 254.761C111.864 256.356 115.183 259.291 117.256 263.063C119.329 266.836 120.025 271.212 119.227 275.442C118.429 279.671 116.185 283.492 112.88 286.249C109.575 289.007 105.414 290.531 101.109 290.56C96.8044 290.588 92.6237 289.119 89.2822 286.406C85.9408 283.692 83.6466 279.902 82.7923 275.683C81.938 271.464 82.5766 267.08 84.5989 263.28C86.6213 259.481 89.9016 256.502 93.8784 254.854C93.4376 251.881 91.9426 249.165 89.6663 247.203C87.39 245.24 84.484 244.162 81.4783 244.163H57.1143C55.722 247.393 54.6918 252.969 54.6918 262.408C54.6918 271.882 58.1353 277.08 61.5509 280.012C65.2913 283.214 69.403 284.049 70.591 284.049C72.4373 284.049 74.2079 284.782 75.5134 286.088C76.8187 287.393 77.5522 289.163 77.5522 291.009C77.5522 294.907 79.7055 301.988 84.6062 308.113C89.3212 314.023 96.0409 318.367 104.887 318.367C110.798 318.367 116.237 315.045 120.572 310.516C122.67 308.307 124.303 306.015 125.38 304.159C125.787 303.465 126.144 302.742 126.447 301.997L126.503 301.866V214.002H118.186C116.572 217.996 113.617 221.302 109.83 223.356C106.044 225.41 101.661 226.084 97.4324 225.261C93.2038 224.439 89.3931 222.171 86.6533 218.847C83.9136 215.523 82.4152 211.35 82.4152 207.042C82.4152 202.735 83.9136 198.562 86.6533 195.238C89.3931 191.914 93.2038 189.646 97.4324 188.824C101.661 188.001 106.044 188.675 109.83 190.729C113.617 192.783 116.572 196.089 118.186 200.083H126.503V176.529L126.475 176C126.316 173.142 125.753 170.321 124.804 167.621C123.969 165.394 122.883 163.658 121.602 162.516C120.46 161.496 118.882 160.698 116.312 160.698C109.202 160.698 102.158 163.092 97.0063 167.101L97.0155 167.092ZM140.546 285.924V301.866L140.592 301.997C140.778 302.488 141.13 303.222 141.668 304.159C142.737 306.015 144.37 308.307 146.476 310.516C150.802 315.045 156.25 318.367 162.162 318.367C170.998 318.367 177.718 314.023 182.443 308.113C187.334 301.988 189.496 294.898 189.496 291.009C189.496 289.163 190.23 287.393 191.536 286.088C192.841 284.782 194.611 284.049 196.458 284.049C197.645 284.049 201.748 283.214 205.498 280.012C208.904 277.08 212.348 271.882 212.348 262.408C212.348 251.197 210.881 245.425 209.108 242.576C208.554 241.591 207.712 240.798 206.696 240.303C205.758 239.857 204.347 239.523 202.166 239.523C200.906 239.523 199.67 239.181 198.589 238.533C197.508 237.886 196.623 236.957 196.029 235.846C195.435 234.736 195.152 233.485 195.213 232.227C195.275 230.968 195.675 229.75 196.374 228.702C198.305 225.797 199.53 221.519 199.771 216.36C199.97 211.154 199.264 205.955 197.683 200.992C196.105 196.092 193.924 192.455 191.779 190.431C189.84 188.612 188.494 188.51 187.231 188.937C186.186 189.287 185.071 189.383 183.98 189.218C182.888 189.053 181.853 188.63 180.957 187.986C180.061 187.342 179.331 186.494 178.828 185.511C178.325 184.53 178.062 183.442 178.062 182.339C178.062 176.288 175.092 171.035 170.024 167.092C164.891 163.092 157.837 160.689 150.719 160.689C148.156 160.689 146.589 161.496 145.437 162.507C143.984 163.932 142.89 165.681 142.244 167.612C141.204 170.474 140.63 173.485 140.546 176.529V272.003H146.449C149.772 272.003 152.959 270.684 155.308 268.334C157.659 265.985 158.979 262.797 158.979 259.475V242.817C154.985 241.202 151.678 238.249 149.624 234.462C147.569 230.677 146.896 226.294 147.719 222.066C148.541 217.839 150.809 214.028 154.134 211.289C157.458 208.549 161.632 207.052 165.94 207.052C170.248 207.052 174.422 208.549 177.746 211.289C181.071 214.028 183.339 217.839 184.161 222.066C184.984 226.294 184.311 230.677 182.256 234.462C180.202 238.249 176.895 241.202 172.901 242.817V259.475C172.901 266.49 170.115 273.216 165.154 278.177C160.193 283.137 153.465 285.924 146.449 285.924H140.546ZM100.969 202.403C99.7387 202.403 98.5582 202.891 97.688 203.761C96.8176 204.632 96.3287 205.812 96.3287 207.042C96.3287 208.273 96.8176 209.453 97.688 210.324C98.5582 211.194 99.7387 211.682 100.969 211.682C102.201 211.682 103.381 211.194 104.251 210.324C105.121 209.453 105.61 208.273 105.61 207.042C105.61 205.812 105.121 204.632 104.251 203.761C103.381 202.891 102.201 202.403 100.969 202.403ZM96.3287 272.003C96.3287 273.234 96.8176 274.414 97.688 275.285C98.5582 276.154 99.7387 276.643 100.969 276.643C102.201 276.643 103.381 276.154 104.251 275.285C105.121 274.414 105.61 273.234 105.61 272.003C105.61 270.772 105.121 269.593 104.251 268.722C103.381 267.852 102.201 267.364 100.969 267.364C99.7387 267.364 98.5582 267.852 97.688 268.722C96.8176 269.593 96.3287 270.772 96.3287 272.003ZM161.299 225.603C161.299 226.833 161.788 228.013 162.659 228.884C163.529 229.754 164.709 230.242 165.94 230.242C167.171 230.242 168.351 229.754 169.222 228.884C170.092 228.013 170.58 226.833 170.58 225.603C170.58 224.372 170.092 223.192 169.222 222.322C168.351 221.451 167.171 220.963 165.94 220.963C164.709 220.963 163.529 221.451 162.659 222.322C161.788 223.192 161.299 224.372 161.299 225.603Z" fill="white"/>
<path d="M83.582 138.113V69.8208C83.582 61.9397 89.9709 55.5508 97.852 55.5508H243.1M243.1 55.5508L304.767 117.217M243.1 55.5508V102.947C243.1 110.829 249.489 117.217 257.37 117.217H304.767M304.767 117.217V287.947C304.767 295.829 298.378 302.217 290.497 302.217H243.1M261.957 163.085H217.108M261.957 207.934H243.1M261.957 257.369H251.764M123.844 126.901H217.108" stroke="white" stroke-width="13" stroke-linecap="round" stroke-linejoin="round"/>
</g>
<defs>
<linearGradient id="paint0_linear_260_5202" x1="369.198" y1="369.198" x2="-65.225" y2="-68.917" gradientUnits="userSpaceOnUse">
<stop stop-color="#004085"/>
<stop offset="1" stop-color="#68ADFD"/>
</linearGradient>
<clipPath id="clip0_260_5202">
<rect width="370" height="370" fill="white"/>
</clipPath>
</defs>
</svg>
