<svg width="56" height="56" viewBox="0 0 56 56" fill="none" xmlns="http://www.w3.org/2000/svg">
<g clip-path="url(#clip0_461_9417)">
<path d="M51.0448 0H4.83379C2.16416 0 0 2.16416 0 4.83379V51.0448C0 53.7144 2.16416 55.8786 4.83379 55.8786H51.0448C53.7144 55.8786 55.8786 53.7144 55.8786 51.0448V4.83379C55.8786 2.16416 53.7144 0 51.0448 0Z" fill="url(#paint0_linear_461_9417)"/>
<path d="M13.3896 23.6278C14.5583 22.7176 16.0868 22.2148 17.6053 22.2148C18.5142 22.2148 19.2489 22.5266 19.8066 23.0224C19.9568 23.1559 20.0903 23.3006 20.2097 23.4495C20.3291 23.3006 20.4627 23.1559 20.6129 23.0224C21.1706 22.5266 21.9053 22.2148 22.8142 22.2148C24.3327 22.2148 25.8626 22.7176 27.0286 23.6278C27.9388 24.3344 28.651 25.3104 28.9306 26.4889C29.5205 26.5872 30.0445 26.8878 30.4688 27.2852C31.1431 27.9188 31.6249 28.8346 31.9269 29.777C32.2346 30.7335 32.3877 31.808 32.3413 32.8403C32.3174 33.3684 32.2403 33.9077 32.0926 34.4233L32.184 34.4654C32.7037 34.7098 33.1252 35.0933 33.4413 35.6032C34.0383 36.5652 34.249 37.9501 34.249 39.7157C34.249 41.7453 33.4721 43.1231 32.4748 43.9785C31.9553 44.424 31.3472 44.7543 30.6908 44.9476C30.4526 46.0452 29.9631 47.0727 29.2607 47.9492C28.245 49.2189 26.666 50.292 24.5448 50.292C22.8451 50.292 21.5063 49.3509 20.6466 48.452C20.4941 48.2914 20.3488 48.124 20.2112 47.9506C20.073 48.1236 19.9272 48.2905 19.7743 48.4506C18.9146 49.3523 17.5758 50.292 15.8761 50.292C13.7534 50.292 12.1745 49.2189 11.1602 47.9492C10.4568 47.073 9.96635 46.0455 9.72735 44.9476C9.07133 44.7542 8.46376 44.4239 7.9447 43.9785C6.94731 43.1217 6.17188 41.7453 6.17188 39.7157C6.17188 37.9501 6.38259 36.5652 6.97821 35.6032C7.29422 35.0793 7.76559 34.6669 8.32679 34.4233C8.18246 33.9071 8.09902 33.3758 8.07814 32.8403C8.03178 31.808 8.18491 30.7335 8.49256 29.777C8.79457 28.836 9.27502 27.9188 9.9507 27.2852C10.3733 26.8735 10.9086 26.5963 11.4889 26.4889C11.7699 25.309 12.4807 24.3344 13.3896 23.6278ZM14.6848 25.2894C13.9178 25.8863 13.4682 26.6813 13.4682 27.5972C13.4681 27.7639 13.4284 27.9284 13.3523 28.0768C13.2762 28.2252 13.1659 28.3536 13.0305 28.4511C12.8951 28.5486 12.7385 28.6126 12.5736 28.6377C12.4086 28.6629 12.24 28.6485 12.0817 28.5958C11.8893 28.5311 11.6856 28.5465 11.3934 28.8219C11.0675 29.1268 10.7374 29.6787 10.4986 30.4203C10.2597 31.1714 10.1532 31.9585 10.1839 32.7462C10.219 33.5272 10.4044 34.176 10.6966 34.6143C10.745 34.687 10.7841 34.7652 10.8132 34.8474H12.3332C13.3446 34.8472 14.3186 35.2298 15.0594 35.9182C15.8003 36.6065 16.2531 37.5497 16.327 38.5584C16.9321 38.7998 17.4345 39.2439 17.7481 39.8149C18.0619 40.3858 18.1673 41.0481 18.0465 41.6883C17.9257 42.3284 17.5862 42.9068 17.0859 43.3241C16.5857 43.7415 15.9558 43.9722 15.3044 43.9765C14.6528 43.9808 14.0201 43.7585 13.5143 43.3478C13.0086 42.937 12.6614 42.3634 12.5321 41.7249C12.4028 41.0864 12.4994 40.4229 12.8055 39.8477C13.1116 39.2726 13.6081 38.8219 14.21 38.5724C14.1433 38.1224 13.917 37.7114 13.5725 37.4144C13.228 37.1173 12.7881 36.9541 12.3332 36.9543H8.64567C8.43495 37.4431 8.27903 38.2872 8.27903 39.7157C8.27903 41.1496 8.8002 41.9363 9.31716 42.3801C9.88327 42.8647 10.5056 42.9912 10.6854 42.9912C10.9648 42.9912 11.2328 43.1021 11.4304 43.2997C11.628 43.4972 11.739 43.7651 11.739 44.0445C11.739 44.6344 12.0649 45.7061 12.8066 46.6332C13.5202 47.5278 14.5373 48.1851 15.8761 48.1851C16.7708 48.1851 17.594 47.6823 18.2501 46.9969C18.5676 46.6626 18.8148 46.3157 18.9778 46.0347C19.0394 45.9297 19.0934 45.8203 19.1393 45.7075L19.1477 45.6878V32.3894H17.889C17.6446 32.9938 17.1974 33.4943 16.6243 33.8051C16.0513 34.116 15.3879 34.218 14.7479 34.0935C14.1079 33.969 13.5311 33.6257 13.1164 33.1227C12.7018 32.6196 12.475 31.988 12.475 31.3361C12.475 30.6841 12.7018 30.0525 13.1164 29.5495C13.5311 29.0464 14.1079 28.7031 14.7479 28.5786C15.3879 28.4541 16.0513 28.5561 16.6243 28.867C17.1974 29.1778 17.6446 29.6783 17.889 30.2827H19.1477V26.7178L19.1435 26.6378C19.1194 26.2052 19.0343 25.7782 18.8907 25.3695C18.7642 25.0324 18.5999 24.7697 18.4059 24.5969C18.2332 24.4425 17.9944 24.3217 17.6053 24.3217C16.5293 24.3217 15.4631 24.6841 14.6834 25.2908L14.6848 25.2894ZM21.2732 43.2749V45.6878L21.2802 45.7075C21.3082 45.7819 21.3616 45.893 21.4431 46.0347C21.6047 46.3157 21.8519 46.6626 22.1708 46.9969C22.8255 47.6823 23.65 48.1851 24.5448 48.1851C25.8822 48.1851 26.8993 47.5278 27.6143 46.6332C28.3547 45.7061 28.6819 44.633 28.6819 44.0445C28.6819 43.7651 28.7929 43.4972 28.9906 43.2997C29.188 43.1021 29.456 42.9912 29.7355 42.9912C29.9153 42.9912 30.5362 42.8647 31.1038 42.3801C31.6193 41.9363 32.1404 41.1496 32.1404 39.7157C32.1404 38.0189 31.9185 37.1452 31.6502 36.7141C31.5663 36.565 31.4388 36.445 31.285 36.37C31.1431 36.3026 30.9296 36.252 30.5994 36.252C30.4088 36.252 30.2216 36.2002 30.0581 36.1022C29.8944 36.0043 29.7605 35.8637 29.6706 35.6956C29.5806 35.5276 29.5379 35.3381 29.5472 35.1478C29.5564 34.9572 29.6171 34.7729 29.7229 34.6143C30.0151 34.1746 30.2005 33.5272 30.2369 32.7462C30.2671 31.9584 30.1602 31.1714 29.921 30.4203C29.6822 29.6787 29.352 29.1281 29.0274 28.8219C28.7339 28.5465 28.5302 28.5311 28.3391 28.5958C28.1808 28.6487 28.012 28.6633 27.847 28.6383C27.6817 28.6133 27.525 28.5493 27.3894 28.4518C27.2538 28.3543 27.1433 28.226 27.0673 28.0773C26.9911 27.9287 26.9513 27.7641 26.9513 27.5972C26.9513 26.6813 26.5017 25.8863 25.7347 25.2894C24.9578 24.6841 23.8902 24.3203 22.8128 24.3203C22.425 24.3203 22.1877 24.4425 22.0134 24.5955C21.7936 24.8112 21.6279 25.0759 21.5302 25.3681C21.3727 25.8013 21.2859 26.257 21.2732 26.7178V41.168H22.1666C22.6695 41.168 23.1519 40.9682 23.5075 40.6126C23.8632 40.257 24.063 39.7746 24.063 39.2719V36.7506C23.4586 36.5061 22.958 36.0592 22.6471 35.4861C22.3361 34.9131 22.2343 34.2498 22.3588 33.6098C22.4833 32.9701 22.8266 32.3933 23.3298 31.9787C23.8329 31.5641 24.4646 31.3374 25.1165 31.3374C25.7686 31.3374 26.4004 31.5641 26.9034 31.9787C27.4067 32.3933 27.7499 32.9701 27.8744 33.6098C27.9989 34.2498 27.8971 34.9131 27.5861 35.4861C27.2752 36.0592 26.7746 36.5061 26.1702 36.7506V39.2719C26.1702 40.3335 25.7484 41.3516 24.9976 42.1024C24.2468 42.8531 23.2284 43.2749 22.1666 43.2749H21.2732ZM15.2832 30.6338C15.0969 30.6338 14.9183 30.7077 14.7866 30.8395C14.6548 30.9712 14.5808 31.1499 14.5808 31.3361C14.5808 31.5223 14.6548 31.7009 14.7866 31.8327C14.9183 31.9644 15.0969 32.0383 15.2832 32.0383C15.4696 32.0383 15.6482 31.9644 15.7798 31.8327C15.9116 31.7009 15.9856 31.5223 15.9856 31.3361C15.9856 31.1499 15.9116 30.9712 15.7798 30.8395C15.6482 30.7077 15.4696 30.6338 15.2832 30.6338ZM14.5808 41.168C14.5808 41.3542 14.6548 41.5328 14.7866 41.6646C14.9183 41.7962 15.0969 41.8702 15.2832 41.8702C15.4696 41.8702 15.6482 41.7962 15.7798 41.6646C15.9116 41.5328 15.9856 41.3542 15.9856 41.168C15.9856 40.9816 15.9116 40.8031 15.7798 40.6714C15.6482 40.5396 15.4696 40.4658 15.2832 40.4658C15.0969 40.4658 14.9183 40.5396 14.7866 40.6714C14.6548 40.8031 14.5808 40.9816 14.5808 41.168ZM24.4141 34.1452C24.4141 34.3314 24.4882 34.51 24.6199 34.6418C24.7517 34.7735 24.9303 34.8474 25.1165 34.8474C25.3029 34.8474 25.4815 34.7735 25.6133 34.6418C25.745 34.51 25.8189 34.3314 25.8189 34.1452C25.8189 33.959 25.745 33.7803 25.6133 33.6486C25.4815 33.5168 25.3029 33.4429 25.1165 33.4429C24.9303 33.4429 24.7517 33.5168 24.6199 33.6486C24.4882 33.7803 24.4141 33.959 24.4141 34.1452Z" fill="white"/>
<path d="M12.6484 20.9041V10.568C12.6484 9.37517 13.6154 8.4082 14.8082 8.4082H36.7917M36.7917 8.4082L46.125 17.7415M36.7917 8.4082V15.5818C36.7917 16.7746 37.7587 17.7415 38.9515 17.7415H46.125M46.125 17.7415V43.5818C46.125 44.7746 45.1581 45.7415 43.9652 45.7415H36.7917M39.6457 24.6837H32.8578M39.6457 31.4716H36.7917M39.6457 38.9537H38.103M18.7421 19.2071H32.8578" stroke="white" stroke-width="1.96757" stroke-linecap="round" stroke-linejoin="round"/>
</g>
<defs>
<linearGradient id="paint0_linear_461_9417" x1="55.8786" y1="55.8786" x2="-9.87189" y2="-10.4307" gradientUnits="userSpaceOnUse">
<stop stop-color="#004085"/>
<stop offset="1" stop-color="#68ADFD"/>
</linearGradient>
<clipPath id="clip0_461_9417">
<rect width="56" height="56" fill="white"/>
</clipPath>
</defs>
</svg>
