<svg width="363" height="363" viewBox="0 0 363 363" fill="none" xmlns="http://www.w3.org/2000/svg">
<rect width="362.213" height="362.213" rx="30" fill="url(#paint0_linear_596_7679)"/>
<g filter="url(#filter0_d_596_7679)">
<path d="M71.2605 41.1075C64.0678 43.3333 59.3891 51.2629 60.9952 58.4968C62.6013 65.5917 67.9085 70.3216 75.1711 71.0867L78.942 71.4345L82.5034 84.0939C84.5285 91.0497 86.1347 97.1012 86.1347 97.5881C86.1347 98.0054 84.8079 98.701 83.2017 99.1879C74.7521 101.414 64.417 109.761 60.4365 117.551C55.8975 126.593 56.107 123.463 56.107 187.317V245.258L57.8528 250.545C62.5315 264.387 73.8442 273.707 89.1374 276.142L91.7212 276.559V297.774V318.989L93.467 320.728C94.724 321.98 95.6318 322.328 96.7491 321.98C97.5871 321.771 108.83 311.825 121.889 299.861C134.877 287.967 146.4 277.881 147.447 277.394C148.844 276.768 164.276 276.559 210.156 276.49C244.723 276.49 272.516 276.211 274.401 275.864C289.066 273.081 301.007 262.439 304.778 248.806C306.035 244.493 306.105 240.528 306.105 187.108C306.105 124.229 306.245 126.037 301.775 117.69C297.516 109.761 289.764 103.014 281.664 100.092C279.778 99.3966 278.172 98.701 278.172 98.4923C278.172 98.2141 279.848 92.1626 281.873 84.8591L285.644 71.6432L289.345 71.0867C294.234 70.3911 297.167 68.9304 300.099 65.7308C305.686 59.5402 305.267 50.7064 299.122 44.7245C294.653 40.4119 289.764 39.1599 284.178 40.8988C279.429 42.4291 277.264 44.0984 274.89 48.2023C271.119 54.532 273.005 63.5745 278.871 67.9566C280.058 68.7913 280.965 69.9738 280.965 70.5302C280.965 71.1563 279.22 77.4164 277.195 84.5113L273.493 97.3794L182.572 97.5881L91.7212 97.7272L91.0229 96.1969C90.6737 95.2927 88.7883 89.0325 86.833 82.2854L83.3414 69.9042L86.2045 67.3306C89.8358 64.0614 91.6514 60.1662 91.7212 55.7841C91.7212 49.1066 87.1821 42.8464 80.9671 41.0379C76.7772 39.7859 75.5901 39.7859 71.2605 41.1075ZM139.556 145.652C146.33 148.782 151.427 155.321 153.592 163.459C155.408 170.136 154.64 174.24 151.637 174.24C150.031 174.24 149.263 172.64 148.774 167.98C148.494 165.893 147.377 162.207 146.19 159.842C141.441 150.313 132.503 146.765 123.984 151.008C117.838 154.069 113.928 160.259 112.88 168.606C112.252 173.475 110.855 175.214 108.69 173.823C106.107 172.223 107.154 163.528 110.715 156.642C114.626 148.921 122.796 143.635 130.827 143.635C134.388 143.635 136.274 144.052 139.556 145.652ZM233.829 145.652C241.511 149.269 246.957 157.338 248.354 167.076C249.192 172.432 248.564 174.24 246.05 174.24C244.234 174.24 243.536 172.919 242.977 169.023C240.673 151.286 224.891 143.148 213.927 154.069C210.156 157.755 208.55 160.955 207.572 166.45C206.455 172.64 205.966 173.892 204.639 174.101C200.449 174.936 200.24 166.798 204.15 158.312C206.874 152.469 212.53 146.765 217.488 144.887C222.516 143.009 228.871 143.287 233.829 145.652ZM155.967 200.881C155.967 204.428 157.922 211.523 159.877 215.349C162.112 219.8 166.581 224.252 170.701 226.269C175.24 228.495 182.712 228.425 187.251 226.13C195.212 222.026 201.357 212.01 201.357 203.037C201.357 198.168 204.988 195.664 206.944 199.281C207.293 199.976 207.293 202.272 206.874 205.124C204.22 223.974 190.603 235.868 174.681 233.294C166.162 231.903 158.55 225.643 154.221 216.462C151.707 211.175 149.891 202.689 150.659 199.768C151.497 196.22 155.967 197.125 155.967 200.881Z" fill="white"/>
</g>
<defs>
<filter id="filter0_d_596_7679" x="51.1055" y="38.1074" width="262" height="294" filterUnits="userSpaceOnUse" color-interpolation-filters="sRGB">
<feFlood flood-opacity="0" result="BackgroundImageFix"/>
<feColorMatrix in="SourceAlpha" type="matrix" values="0 0 0 0 0 0 0 0 0 0 0 0 0 0 0 0 0 0 127 0" result="hardAlpha"/>
<feOffset dx="1" dy="4"/>
<feGaussianBlur stdDeviation="3"/>
<feComposite in2="hardAlpha" operator="out"/>
<feColorMatrix type="matrix" values="0 0 0 0 0 0 0 0 0 0.0115942 0 0 0 0 0.0416667 0 0 0 0.25 0"/>
<feBlend mode="normal" in2="BackgroundImageFix" result="effect1_dropShadow_596_7679"/>
<feBlend mode="normal" in="SourceGraphic" in2="effect1_dropShadow_596_7679" result="shape"/>
</filter>
<linearGradient id="paint0_linear_596_7679" x1="362.213" y1="362.213" x2="-63.991" y2="-67.6132" gradientUnits="userSpaceOnUse">
<stop stop-color="#004085"/>
<stop offset="1" stop-color="#68ADFD"/>
</linearGradient>
</defs>
</svg>
