<svg width="784" height="676" viewBox="0 0 784 676" fill="none" xmlns="http://www.w3.org/2000/svg">
<path d="M142.814 456.308H158.874C158.552 461.571 157.102 466.244 154.523 470.326C151.981 474.408 148.418 477.595 143.835 479.887C139.287 482.178 133.809 483.324 127.399 483.324C122.386 483.324 117.893 482.465 113.918 480.746C109.943 478.992 106.542 476.485 103.713 473.227C100.92 469.968 98.7894 466.029 97.3213 461.41C95.8532 456.791 95.1191 451.617 95.1191 445.888V440.463C95.1191 434.734 95.8711 429.56 97.375 424.94C98.9147 420.285 101.099 416.329 103.928 413.07C106.792 409.812 110.212 407.305 114.187 405.551C118.161 403.796 122.601 402.919 127.507 402.919C134.024 402.919 139.52 404.101 143.996 406.464C148.508 408.827 151.999 412.086 154.47 416.239C156.976 420.393 158.48 425.119 158.981 430.419H142.868C142.689 427.268 142.062 424.6 140.988 422.416C139.914 420.196 138.285 418.531 136.101 417.421C133.952 416.275 131.088 415.702 127.507 415.702C124.821 415.702 122.476 416.203 120.471 417.206C118.465 418.209 116.783 419.73 115.422 421.771C114.061 423.812 113.041 426.391 112.36 429.506C111.716 432.585 111.394 436.202 111.394 440.355V445.888C111.394 449.934 111.698 453.497 112.307 456.576C112.915 459.62 113.846 462.198 115.1 464.311C116.389 466.387 118.036 467.963 120.041 469.037C122.082 470.076 124.535 470.595 127.399 470.595C130.765 470.595 133.54 470.058 135.725 468.983C137.909 467.909 139.574 466.316 140.72 464.203C141.901 462.09 142.6 459.459 142.814 456.308ZM166.018 453.783V452.655C166.018 448.394 166.626 444.473 167.844 440.893C169.061 437.276 170.834 434.143 173.161 431.493C175.489 428.843 178.353 426.785 181.755 425.316C185.157 423.812 189.06 423.061 193.464 423.061C197.868 423.061 201.789 423.812 205.227 425.316C208.664 426.785 211.547 428.843 213.874 431.493C216.237 434.143 218.028 437.276 219.245 440.893C220.463 444.473 221.071 448.394 221.071 452.655V453.783C221.071 458.008 220.463 461.929 219.245 465.546C218.028 469.127 216.237 472.26 213.874 474.945C211.547 477.595 208.682 479.654 205.28 481.122C201.879 482.59 197.976 483.324 193.571 483.324C189.167 483.324 185.246 482.59 181.809 481.122C178.407 479.654 175.524 477.595 173.161 474.945C170.834 472.26 169.061 469.127 167.844 465.546C166.626 461.929 166.018 458.008 166.018 453.783ZM181.486 452.655V453.783C181.486 456.218 181.701 458.492 182.131 460.604C182.561 462.717 183.241 464.579 184.172 466.19C185.139 467.766 186.392 469.001 187.932 469.896C189.471 470.792 191.351 471.239 193.571 471.239C195.72 471.239 197.564 470.792 199.104 469.896C200.643 469.001 201.879 467.766 202.81 466.19C203.741 464.579 204.421 462.717 204.851 460.604C205.316 458.492 205.549 456.218 205.549 453.783V452.655C205.549 450.292 205.316 448.072 204.851 445.995C204.421 443.882 203.723 442.021 202.756 440.409C201.825 438.762 200.59 437.473 199.05 436.542C197.51 435.611 195.648 435.146 193.464 435.146C191.28 435.146 189.418 435.611 187.878 436.542C186.374 437.473 185.139 438.762 184.172 440.409C183.241 442.021 182.561 443.882 182.131 445.995C181.701 448.072 181.486 450.292 181.486 452.655ZM246.047 436.166V482.25H230.524V424.135H245.08L246.047 436.166ZM243.898 451.151H239.602C239.602 447.105 240.085 443.381 241.052 439.979C242.054 436.542 243.505 433.57 245.402 431.063C247.336 428.521 249.717 426.552 252.546 425.155C255.375 423.759 258.651 423.061 262.375 423.061C264.953 423.061 267.316 423.454 269.465 424.242C271.613 424.994 273.457 426.194 274.997 427.841C276.573 429.452 277.79 431.565 278.649 434.179C279.509 436.757 279.938 439.854 279.938 443.471V482.25H264.47V445.189C264.47 442.54 264.112 440.499 263.396 439.066C262.679 437.634 261.659 436.632 260.334 436.059C259.045 435.486 257.487 435.199 255.661 435.199C253.656 435.199 251.901 435.611 250.397 436.435C248.929 437.258 247.712 438.404 246.745 439.872C245.778 441.304 245.062 442.987 244.597 444.921C244.131 446.854 243.898 448.931 243.898 451.151ZM278.488 449.379L272.956 450.077C272.956 446.282 273.422 442.755 274.353 439.496C275.319 436.238 276.734 433.373 278.596 430.902C280.493 428.432 282.839 426.516 285.632 425.155C288.425 423.759 291.647 423.061 295.3 423.061C298.093 423.061 300.635 423.472 302.927 424.296C305.218 425.084 307.17 426.355 308.781 428.109C310.428 429.828 311.682 432.084 312.541 434.877C313.436 437.67 313.884 441.09 313.884 445.136V482.25H298.361V445.136C298.361 442.45 298.003 440.409 297.287 439.013C296.607 437.58 295.604 436.596 294.279 436.059C292.99 435.486 291.451 435.199 289.66 435.199C287.798 435.199 286.169 435.575 284.772 436.327C283.376 437.043 282.212 438.046 281.281 439.335C280.35 440.624 279.652 442.128 279.187 443.847C278.721 445.53 278.488 447.374 278.488 449.379ZM341.33 435.307V504.594H325.861V424.135H340.202L341.33 435.307ZM378.122 452.548V453.676C378.122 457.901 377.621 461.822 376.618 465.438C375.651 469.055 374.219 472.206 372.321 474.892C370.424 477.541 368.06 479.618 365.231 481.122C362.438 482.59 359.216 483.324 355.563 483.324C352.019 483.324 348.939 482.608 346.325 481.176C343.711 479.743 341.509 477.738 339.719 475.16C337.964 472.546 336.55 469.521 335.476 466.083C334.401 462.646 333.578 458.957 333.005 455.019V452.064C333.578 447.839 334.401 443.972 335.476 440.463C336.55 436.918 337.964 433.856 339.719 431.278C341.509 428.664 343.693 426.641 346.271 425.209C348.885 423.777 351.947 423.061 355.456 423.061C359.144 423.061 362.385 423.759 365.178 425.155C368.007 426.552 370.37 428.557 372.268 431.171C374.201 433.785 375.651 436.9 376.618 440.517C377.621 444.133 378.122 448.144 378.122 452.548ZM362.6 453.676V452.548C362.6 450.077 362.385 447.803 361.955 445.727C361.561 443.614 360.917 441.77 360.021 440.194C359.162 438.619 358.016 437.401 356.584 436.542C355.188 435.647 353.487 435.199 351.481 435.199C349.369 435.199 347.561 435.539 346.057 436.22C344.589 436.9 343.389 437.885 342.458 439.174C341.527 440.463 340.829 442.003 340.363 443.793C339.898 445.583 339.611 447.606 339.504 449.862V457.328C339.683 459.978 340.184 462.359 341.008 464.472C341.831 466.549 343.103 468.196 344.821 469.413C346.54 470.631 348.796 471.239 351.589 471.239C353.63 471.239 355.349 470.792 356.745 469.896C358.142 468.965 359.27 467.694 360.129 466.083C361.024 464.472 361.651 462.61 362.009 460.497C362.403 458.384 362.6 456.111 362.6 453.676ZM419.104 469.145V443.256C419.104 441.394 418.799 439.8 418.19 438.476C417.582 437.115 416.633 436.059 415.344 435.307C414.09 434.555 412.461 434.179 410.456 434.179C408.737 434.179 407.251 434.483 405.998 435.092C404.745 435.665 403.778 436.506 403.098 437.616C402.417 438.69 402.077 439.962 402.077 441.43H386.608C386.608 438.959 387.181 436.614 388.327 434.394C389.473 432.174 391.138 430.222 393.322 428.539C395.507 426.82 398.103 425.478 401.11 424.511C404.154 423.544 407.556 423.061 411.315 423.061C415.827 423.061 419.838 423.812 423.347 425.316C426.856 426.82 429.613 429.076 431.618 432.084C433.659 435.092 434.68 438.852 434.68 443.363V468.231C434.68 471.418 434.877 474.032 435.271 476.073C435.664 478.078 436.237 479.833 436.989 481.337V482.25H421.359C420.607 480.674 420.035 478.705 419.641 476.342C419.283 473.943 419.104 471.544 419.104 469.145ZM421.145 446.854L421.252 455.609H412.604C410.563 455.609 408.791 455.842 407.287 456.308C405.783 456.773 404.548 457.436 403.581 458.295C402.614 459.118 401.898 460.085 401.433 461.195C401.003 462.305 400.788 463.523 400.788 464.848C400.788 466.173 401.092 467.372 401.701 468.446C402.31 469.485 403.187 470.308 404.333 470.917C405.479 471.49 406.822 471.776 408.361 471.776C410.689 471.776 412.712 471.311 414.431 470.38C416.149 469.449 417.474 468.303 418.405 466.942C419.372 465.582 419.873 464.293 419.909 463.075L423.991 469.628C423.418 471.096 422.631 472.618 421.628 474.193C420.661 475.769 419.426 477.255 417.922 478.651C416.418 480.012 414.61 481.14 412.497 482.035C410.384 482.895 407.878 483.324 404.978 483.324C401.289 483.324 397.941 482.59 394.934 481.122C391.962 479.618 389.598 477.559 387.844 474.945C386.125 472.296 385.266 469.288 385.266 465.922C385.266 462.878 385.839 460.175 386.984 457.812C388.13 455.448 389.813 453.461 392.033 451.85C394.289 450.202 397.1 448.967 400.466 448.144C403.832 447.284 407.735 446.854 412.175 446.854H421.145ZM461.75 436.542V482.25H446.281V424.135H460.783L461.75 436.542ZM459.494 451.151H455.305C455.305 446.854 455.86 442.987 456.97 439.55C458.08 436.076 459.637 433.122 461.643 430.688C463.648 428.217 466.029 426.337 468.786 425.048C471.579 423.723 474.694 423.061 478.132 423.061C480.853 423.061 483.342 423.454 485.598 424.242C487.854 425.03 489.787 426.283 491.398 428.002C493.046 429.721 494.299 431.994 495.158 434.823C496.053 437.652 496.501 441.107 496.501 445.189V482.25H480.925V445.136C480.925 442.558 480.567 440.552 479.851 439.12C479.134 437.688 478.078 436.685 476.682 436.112C475.321 435.504 473.638 435.199 471.633 435.199C469.556 435.199 467.748 435.611 466.208 436.435C464.704 437.258 463.451 438.404 462.448 439.872C461.481 441.304 460.747 442.987 460.246 444.921C459.745 446.854 459.494 448.931 459.494 451.151ZM525.505 475.697L540.92 424.135H557.517L534.152 491.005C533.651 492.473 532.971 494.049 532.111 495.731C531.288 497.414 530.16 499.008 528.728 500.512C527.331 502.051 525.559 503.305 523.41 504.271C521.298 505.238 518.701 505.722 515.622 505.722C514.154 505.722 512.954 505.632 512.023 505.453C511.092 505.274 509.982 505.023 508.693 504.701V493.368C509.087 493.368 509.499 493.368 509.929 493.368C510.358 493.404 510.77 493.422 511.164 493.422C513.205 493.422 514.87 493.189 516.159 492.724C517.448 492.258 518.487 491.542 519.274 490.575C520.062 489.644 520.689 488.427 521.154 486.923L525.505 475.697ZM519.06 424.135L531.682 466.244L533.884 482.626L523.356 483.754L502.463 424.135H519.06ZM161.721 570.322V574.028C161.721 579.972 160.915 585.308 159.304 590.034C157.692 594.761 155.419 598.789 152.482 602.119C149.546 605.413 146.037 607.938 141.955 609.692C137.909 611.447 133.415 612.324 128.474 612.324C123.568 612.324 119.074 611.447 114.992 609.692C110.946 607.938 107.437 605.413 104.465 602.119C101.493 598.789 99.1833 594.761 97.5361 590.034C95.9248 585.308 95.1191 579.972 95.1191 574.028V570.322C95.1191 564.342 95.9248 559.007 97.5361 554.316C99.1475 549.59 101.421 545.562 104.357 542.231C107.329 538.901 110.839 536.359 114.885 534.604C118.967 532.85 123.461 531.973 128.366 531.973C133.308 531.973 137.801 532.85 141.848 534.604C145.93 536.359 149.439 538.901 152.375 542.231C155.347 545.562 157.639 549.59 159.25 554.316C160.897 559.007 161.721 564.342 161.721 570.322ZM145.446 574.028V570.215C145.446 566.061 145.07 562.409 144.318 559.258C143.566 556.107 142.456 553.457 140.988 551.309C139.52 549.16 137.73 547.549 135.617 546.475C133.505 545.365 131.088 544.81 128.366 544.81C125.645 544.81 123.228 545.365 121.115 546.475C119.038 547.549 117.266 549.16 115.798 551.309C114.366 553.457 113.273 556.107 112.521 559.258C111.77 562.409 111.394 566.061 111.394 570.215V574.028C111.394 578.146 111.77 581.799 112.521 584.985C113.273 588.136 114.383 590.804 115.852 592.988C117.32 595.137 119.11 596.766 121.223 597.876C123.335 598.986 125.752 599.541 128.474 599.541C131.195 599.541 133.612 598.986 135.725 597.876C137.837 596.766 139.61 595.137 141.042 592.988C142.474 590.804 143.566 588.136 144.318 584.985C145.07 581.799 145.446 578.146 145.446 574.028ZM172.355 528.75H187.824V597.93L186.267 611.25H172.355V528.75ZM224.616 581.602V582.729C224.616 587.062 224.151 591.037 223.22 594.653C222.325 598.27 220.928 601.403 219.03 604.053C217.132 606.667 214.769 608.708 211.94 610.176C209.147 611.608 205.853 612.324 202.058 612.324C198.513 612.324 195.433 611.608 192.819 610.176C190.241 608.743 188.075 606.72 186.32 604.106C184.566 601.493 183.151 598.431 182.077 594.922C181.003 591.413 180.197 587.581 179.66 583.428V580.957C180.197 576.803 181.003 572.972 182.077 569.463C183.151 565.954 184.566 562.892 186.32 560.278C188.075 557.664 190.241 555.641 192.819 554.209C195.397 552.777 198.441 552.061 201.95 552.061C205.782 552.061 209.112 552.795 211.94 554.263C214.805 555.695 217.168 557.736 219.03 560.386C220.928 563 222.325 566.115 223.22 569.731C224.151 573.312 224.616 577.269 224.616 581.602ZM209.147 582.729V581.602C209.147 579.238 208.968 577.018 208.61 574.941C208.288 572.829 207.715 570.985 206.892 569.409C206.068 567.798 204.94 566.527 203.508 565.596C202.111 564.665 200.303 564.199 198.083 564.199C195.97 564.199 194.18 564.557 192.712 565.273C191.244 565.99 190.026 566.992 189.06 568.281C188.129 569.57 187.43 571.11 186.965 572.9C186.499 574.655 186.213 576.589 186.105 578.701V585.737C186.213 588.566 186.678 591.073 187.502 593.257C188.361 595.405 189.65 597.106 191.369 598.359C193.124 599.577 195.397 600.186 198.19 600.186C200.375 600.186 202.183 599.756 203.615 598.896C205.048 598.037 206.158 596.82 206.945 595.244C207.769 593.669 208.342 591.825 208.664 589.712C208.986 587.563 209.147 585.236 209.147 582.729ZM235.09 553.135H250.612V614.741C250.612 619.038 249.825 622.673 248.249 625.645C246.674 628.617 244.4 630.872 241.428 632.412C238.456 633.952 234.857 634.722 230.632 634.722C229.307 634.722 228.018 634.65 226.765 634.507C225.476 634.364 224.151 634.131 222.79 633.809L222.844 621.938C223.703 622.082 224.545 622.189 225.368 622.261C226.156 622.368 226.962 622.422 227.785 622.422C229.396 622.422 230.739 622.153 231.813 621.616C232.888 621.079 233.693 620.238 234.23 619.092C234.803 617.982 235.09 616.532 235.09 614.741V553.135ZM233.854 537.988C233.854 535.732 234.642 533.87 236.218 532.402C237.829 530.934 239.942 530.2 242.556 530.2C245.205 530.2 247.318 530.934 248.894 532.402C250.469 533.87 251.257 535.732 251.257 537.988C251.257 540.244 250.469 542.106 248.894 543.574C247.318 545.042 245.205 545.776 242.556 545.776C239.942 545.776 237.829 545.042 236.218 543.574C234.642 542.106 233.854 540.244 233.854 537.988ZM289.66 612.324C285.148 612.324 281.102 611.608 277.521 610.176C273.941 608.708 270.897 606.685 268.391 604.106C265.92 601.528 264.022 598.538 262.697 595.137C261.372 591.699 260.71 588.047 260.71 584.18V582.031C260.71 577.627 261.337 573.599 262.59 569.946C263.843 566.294 265.633 563.125 267.961 560.439C270.324 557.754 273.189 555.695 276.555 554.263C279.921 552.795 283.716 552.061 287.941 552.061C292.059 552.061 295.712 552.741 298.898 554.102C302.085 555.462 304.753 557.396 306.901 559.902C309.086 562.409 310.733 565.417 311.843 568.926C312.953 572.399 313.508 576.266 313.508 580.527V586.973H267.316V576.66H298.308V575.479C298.308 573.33 297.914 571.414 297.126 569.731C296.374 568.013 295.228 566.652 293.688 565.649C292.149 564.647 290.179 564.146 287.78 564.146C285.739 564.146 283.985 564.593 282.517 565.488C281.049 566.383 279.849 567.637 278.918 569.248C278.023 570.859 277.342 572.757 276.877 574.941C276.447 577.09 276.232 579.453 276.232 582.031V584.18C276.232 586.507 276.555 588.656 277.199 590.625C277.88 592.594 278.828 594.295 280.046 595.728C281.299 597.16 282.803 598.27 284.558 599.058C286.348 599.845 288.371 600.239 290.627 600.239C293.42 600.239 296.016 599.702 298.415 598.628C300.85 597.518 302.945 595.853 304.699 593.633L312.219 601.797C311.001 603.551 309.336 605.234 307.224 606.846C305.147 608.457 302.64 609.782 299.704 610.82C296.768 611.823 293.42 612.324 289.66 612.324ZM346.325 600.239C348.223 600.239 349.906 599.881 351.374 599.165C352.842 598.413 353.988 597.375 354.812 596.05C355.671 594.689 356.118 593.096 356.154 591.27H370.71C370.674 595.352 369.582 598.986 367.434 602.173C365.285 605.324 362.403 607.812 358.786 609.639C355.17 611.429 351.123 612.324 346.647 612.324C342.136 612.324 338.197 611.572 334.831 610.068C331.501 608.564 328.726 606.488 326.506 603.838C324.286 601.152 322.621 598.037 321.511 594.492C320.401 590.911 319.846 587.08 319.846 582.998V581.44C319.846 577.323 320.401 573.491 321.511 569.946C322.621 566.366 324.286 563.25 326.506 560.601C328.726 557.915 331.501 555.82 334.831 554.316C338.161 552.812 342.064 552.061 346.54 552.061C351.302 552.061 355.474 552.974 359.055 554.8C362.671 556.626 365.5 559.24 367.541 562.642C369.618 566.007 370.674 570 370.71 574.619H356.154C356.118 572.686 355.707 570.931 354.919 569.355C354.167 567.78 353.057 566.527 351.589 565.596C350.157 564.629 348.384 564.146 346.271 564.146C344.016 564.146 342.172 564.629 340.739 565.596C339.307 566.527 338.197 567.816 337.409 569.463C336.621 571.074 336.066 572.918 335.744 574.995C335.458 577.036 335.314 579.185 335.314 581.44V582.998C335.314 585.254 335.458 587.42 335.744 589.497C336.031 591.574 336.568 593.418 337.355 595.029C338.179 596.641 339.307 597.912 340.739 598.843C342.172 599.774 344.034 600.239 346.325 600.239ZM408.146 553.135V564.092H374.309V553.135H408.146ZM382.688 538.794H398.156V593.74C398.156 595.423 398.371 596.712 398.801 597.607C399.266 598.503 399.947 599.129 400.842 599.487C401.737 599.81 402.865 599.971 404.226 599.971C405.192 599.971 406.052 599.935 406.804 599.863C407.591 599.756 408.254 599.648 408.791 599.541L408.845 610.928C407.52 611.357 406.088 611.698 404.548 611.948C403.008 612.199 401.307 612.324 399.445 612.324C396.044 612.324 393.072 611.769 390.529 610.659C388.023 609.513 386.089 607.687 384.729 605.181C383.368 602.674 382.688 599.38 382.688 595.298V538.794ZM433.283 553.135V611.25H417.761V553.135H433.283ZM416.794 537.988C416.794 535.732 417.582 533.87 419.157 532.402C420.733 530.934 422.845 530.2 425.495 530.2C428.109 530.2 430.204 530.934 431.779 532.402C433.391 533.87 434.196 535.732 434.196 537.988C434.196 540.244 433.391 542.106 431.779 543.574C430.204 545.042 428.109 545.776 425.495 545.776C422.845 545.776 420.733 545.042 419.157 543.574C417.582 542.106 416.794 540.244 416.794 537.988ZM465.832 599.971L478.723 553.135H494.89L475.285 611.25H465.51L465.832 599.971ZM456.97 553.135L469.914 600.024L470.183 611.25H460.354L440.749 553.135H456.97ZM527.814 612.324C523.303 612.324 519.257 611.608 515.676 610.176C512.095 608.708 509.051 606.685 506.545 604.106C504.074 601.528 502.176 598.538 500.852 595.137C499.527 591.699 498.864 588.047 498.864 584.18V582.031C498.864 577.627 499.491 573.599 500.744 569.946C501.997 566.294 503.788 563.125 506.115 560.439C508.479 557.754 511.343 555.695 514.709 554.263C518.075 552.795 521.87 552.061 526.096 552.061C530.214 552.061 533.866 552.741 537.053 554.102C540.24 555.462 542.907 557.396 545.056 559.902C547.24 562.409 548.887 565.417 549.997 568.926C551.107 572.399 551.662 576.266 551.662 580.527V586.973H505.471V576.66H536.462V575.479C536.462 573.33 536.068 571.414 535.28 569.731C534.528 568.013 533.382 566.652 531.843 565.649C530.303 564.647 528.334 564.146 525.935 564.146C523.894 564.146 522.139 564.593 520.671 565.488C519.203 566.383 518.003 567.637 517.072 569.248C516.177 570.859 515.497 572.757 515.031 574.941C514.602 577.09 514.387 579.453 514.387 582.031V584.18C514.387 586.507 514.709 588.656 515.354 590.625C516.034 592.594 516.983 594.295 518.2 595.728C519.453 597.16 520.957 598.27 522.712 599.058C524.502 599.845 526.525 600.239 528.781 600.239C531.574 600.239 534.17 599.702 536.569 598.628C539.004 597.518 541.099 595.853 542.854 593.633L550.373 601.797C549.156 603.551 547.491 605.234 545.378 606.846C543.301 608.457 540.795 609.782 537.858 610.82C534.922 611.823 531.574 612.324 527.814 612.324ZM591.892 595.19C591.892 594.08 591.569 593.078 590.925 592.183C590.28 591.287 589.081 590.464 587.326 589.712C585.607 588.924 583.119 588.208 579.86 587.563C576.924 586.919 574.185 586.113 571.643 585.146C569.136 584.144 566.952 582.944 565.09 581.548C563.264 580.151 561.831 578.504 560.793 576.606C559.755 574.673 559.235 572.471 559.235 570C559.235 567.565 559.755 565.273 560.793 563.125C561.867 560.977 563.389 559.079 565.358 557.432C567.364 555.749 569.799 554.442 572.663 553.511C575.563 552.544 578.822 552.061 582.438 552.061C587.487 552.061 591.82 552.866 595.437 554.478C599.089 556.089 601.882 558.309 603.815 561.138C605.785 563.931 606.77 567.118 606.77 570.698H591.301C591.301 569.194 590.979 567.852 590.334 566.67C589.725 565.452 588.758 564.504 587.434 563.823C586.145 563.107 584.462 562.749 582.385 562.749C580.666 562.749 579.18 563.053 577.927 563.662C576.674 564.235 575.707 565.023 575.026 566.025C574.382 566.992 574.06 568.066 574.06 569.248C574.06 570.143 574.239 570.949 574.597 571.665C574.991 572.345 575.617 572.972 576.477 573.545C577.336 574.118 578.446 574.655 579.807 575.156C581.203 575.622 582.922 576.051 584.963 576.445C589.152 577.305 592.894 578.433 596.188 579.829C599.483 581.19 602.097 583.052 604.03 585.415C605.964 587.743 606.931 590.804 606.931 594.6C606.931 597.178 606.358 599.541 605.212 601.689C604.066 603.838 602.419 605.718 600.271 607.329C598.122 608.905 595.544 610.14 592.536 611.035C589.564 611.895 586.216 612.324 582.492 612.324C577.085 612.324 572.502 611.357 568.742 609.424C565.018 607.49 562.189 605.037 560.256 602.065C558.358 599.058 557.409 595.978 557.409 592.827H572.072C572.144 594.94 572.681 596.641 573.684 597.93C574.722 599.219 576.029 600.15 577.604 600.723C579.216 601.296 580.952 601.582 582.814 601.582C584.82 601.582 586.485 601.313 587.81 600.776C589.134 600.203 590.137 599.451 590.817 598.521C591.534 597.554 591.892 596.444 591.892 595.19Z" fill="#A2ABB0"/>
<path d="M690.833 338C690.833 339.473 692.027 340.667 693.5 340.667C694.973 340.667 696.167 339.473 696.167 338C696.167 336.527 694.973 335.333 693.5 335.333C692.027 335.333 690.833 336.527 690.833 338ZM777.833 673C777.833 674.473 779.027 675.667 780.5 675.667C781.973 675.667 783.167 674.473 783.167 673C783.167 671.527 781.973 670.333 780.5 670.333C779.027 670.333 777.833 671.527 777.833 673ZM87.8333 516C87.8333 517.473 89.0272 518.667 90.5 518.667C91.9728 518.667 93.1667 517.473 93.1667 516C93.1667 514.527 91.9728 513.333 90.5 513.333C89.0272 513.333 87.8333 514.527 87.8333 516ZM690.833 516C690.833 517.473 692.027 518.667 693.5 518.667C694.973 518.667 696.167 517.473 696.167 516C696.167 514.527 694.973 513.333 693.5 513.333C692.027 513.333 690.833 514.527 690.833 516ZM693 338V623H694V338H693ZM743.5 673.5H780.5V672.5H743.5V673.5ZM693 623C693 650.89 715.61 673.5 743.5 673.5V672.5C716.162 672.5 694 650.338 694 623H693ZM90.5 516.5L693.5 516.5V515.5L90.5 515.5L90.5 516.5Z" fill="#40424A"/>
<path d="M74.7207 103.322V107.028C74.7207 112.972 73.915 118.308 72.3037 123.034C70.6924 127.761 68.4186 131.789 65.4824 135.119C62.5462 138.413 59.0371 140.938 54.9551 142.692C50.9089 144.447 46.415 145.324 41.4736 145.324C36.568 145.324 32.0742 144.447 27.9922 142.692C23.946 140.938 20.4368 138.413 17.4648 135.119C14.4928 131.789 12.1833 127.761 10.5361 123.034C8.9248 118.308 8.11914 112.972 8.11914 107.028V103.322C8.11914 97.3424 8.9248 92.0072 10.5361 87.3164C12.1475 82.5898 14.4212 78.5615 17.3574 75.2314C20.3294 71.9014 23.8385 69.359 27.8848 67.6045C31.9668 65.8499 36.4606 64.9727 41.3662 64.9727C46.3076 64.9727 50.8014 65.8499 54.8477 67.6045C58.9297 69.359 62.4388 71.9014 65.375 75.2314C68.347 78.5615 70.6387 82.5898 72.25 87.3164C73.8971 92.0072 74.7207 97.3424 74.7207 103.322ZM58.4463 107.028V103.215C58.4463 99.0612 58.0703 95.4089 57.3184 92.2578C56.5664 89.1068 55.4564 86.457 53.9883 84.3086C52.5202 82.1602 50.7298 80.5488 48.6172 79.4746C46.5046 78.3646 44.0876 77.8096 41.3662 77.8096C38.6449 77.8096 36.2279 78.3646 34.1152 79.4746C32.0384 80.5488 30.266 82.1602 28.7979 84.3086C27.3656 86.457 26.2734 89.1068 25.5215 92.2578C24.7695 95.4089 24.3936 99.0612 24.3936 103.215V107.028C24.3936 111.146 24.7695 114.799 25.5215 117.985C26.2734 121.136 27.3835 123.804 28.8516 125.988C30.3197 128.137 32.11 129.766 34.2227 130.876C36.3353 131.986 38.7523 132.541 41.4736 132.541C44.195 132.541 46.612 131.986 48.7246 130.876C50.8372 129.766 52.6097 128.137 54.042 125.988C55.4743 123.804 56.5664 121.136 57.3184 117.985C58.0703 114.799 58.4463 111.146 58.4463 107.028ZM119.73 130.339V86.1348H135.199V144.25H120.644L119.73 130.339ZM121.449 118.415L126.015 118.308C126.015 122.175 125.567 125.773 124.672 129.104C123.777 132.398 122.434 135.262 120.644 137.697C118.853 140.096 116.597 141.976 113.876 143.337C111.155 144.662 107.95 145.324 104.262 145.324C101.433 145.324 98.819 144.93 96.4199 144.143C94.0566 143.319 92.0156 142.048 90.2969 140.329C88.6139 138.575 87.2891 136.337 86.3223 133.615C85.3913 130.858 84.9258 127.546 84.9258 123.679V86.1348H100.395V123.786C100.395 125.505 100.591 126.955 100.985 128.137C101.415 129.318 102.006 130.285 102.758 131.037C103.51 131.789 104.387 132.326 105.39 132.648C106.428 132.971 107.574 133.132 108.827 133.132C112.014 133.132 114.521 132.487 116.347 131.198C118.209 129.909 119.516 128.155 120.268 125.935C121.055 123.679 121.449 121.172 121.449 118.415ZM162.484 98.8105V144.25H147.016V86.1348H161.571L162.484 98.8105ZM179.994 85.7588L179.726 100.1C178.974 99.9922 178.061 99.9027 176.986 99.8311C175.948 99.7236 174.999 99.6699 174.14 99.6699C171.955 99.6699 170.058 99.9564 168.446 100.529C166.871 101.066 165.546 101.872 164.472 102.946C163.433 104.021 162.646 105.327 162.108 106.867C161.607 108.407 161.321 110.161 161.249 112.131L158.134 111.164C158.134 107.404 158.51 103.949 159.262 100.798C160.014 97.611 161.106 94.8359 162.538 92.4727C164.006 90.1094 165.797 88.2832 167.909 86.9941C170.022 85.7051 172.439 85.0605 175.16 85.0605C176.02 85.0605 176.897 85.1322 177.792 85.2754C178.687 85.3828 179.421 85.5439 179.994 85.7588ZM17.8408 195.047H31.4834L51.5713 252.464L71.6592 195.047H85.3018L57.0498 273.25H46.0928L17.8408 195.047ZM10.4824 195.047H24.0713L26.542 251.014V273.25H10.4824V195.047ZM79.0713 195.047H92.7139V273.25H76.6006V251.014L79.0713 195.047ZM122.201 215.135V273.25H106.679V215.135H122.201ZM105.712 199.988C105.712 197.732 106.5 195.87 108.075 194.402C109.651 192.934 111.763 192.2 114.413 192.2C117.027 192.2 119.122 192.934 120.697 194.402C122.309 195.87 123.114 197.732 123.114 199.988C123.114 202.244 122.309 204.106 120.697 205.574C119.122 207.042 117.027 207.776 114.413 207.776C111.763 207.776 109.651 207.042 108.075 205.574C106.5 204.106 105.712 202.244 105.712 199.988ZM166.405 257.19C166.405 256.08 166.083 255.078 165.438 254.183C164.794 253.287 163.594 252.464 161.84 251.712C160.121 250.924 157.632 250.208 154.374 249.563C151.438 248.919 148.699 248.113 146.156 247.146C143.65 246.144 141.465 244.944 139.604 243.548C137.777 242.151 136.345 240.504 135.307 238.606C134.268 236.673 133.749 234.471 133.749 232C133.749 229.565 134.268 227.273 135.307 225.125C136.381 222.977 137.903 221.079 139.872 219.432C141.877 217.749 144.312 216.442 147.177 215.511C150.077 214.544 153.336 214.061 156.952 214.061C162.001 214.061 166.334 214.866 169.95 216.478C173.603 218.089 176.396 220.309 178.329 223.138C180.299 225.931 181.283 229.118 181.283 232.698H165.814C165.814 231.194 165.492 229.852 164.848 228.67C164.239 227.452 163.272 226.504 161.947 225.823C160.658 225.107 158.975 224.749 156.898 224.749C155.18 224.749 153.694 225.053 152.44 225.662C151.187 226.235 150.22 227.023 149.54 228.025C148.896 228.992 148.573 230.066 148.573 231.248C148.573 232.143 148.752 232.949 149.11 233.665C149.504 234.345 150.131 234.972 150.99 235.545C151.85 236.118 152.96 236.655 154.32 237.156C155.717 237.622 157.436 238.051 159.477 238.445C163.666 239.305 167.408 240.433 170.702 241.829C173.996 243.19 176.61 245.052 178.544 247.415C180.478 249.743 181.444 252.804 181.444 256.6C181.444 259.178 180.871 261.541 179.726 263.689C178.58 265.838 176.933 267.718 174.784 269.329C172.636 270.905 170.058 272.14 167.05 273.035C164.078 273.895 160.73 274.324 157.006 274.324C151.599 274.324 147.016 273.357 143.256 271.424C139.532 269.49 136.703 267.037 134.77 264.065C132.872 261.058 131.923 257.978 131.923 254.827H146.586C146.658 256.94 147.195 258.641 148.197 259.93C149.236 261.219 150.543 262.15 152.118 262.723C153.729 263.296 155.466 263.582 157.328 263.582C159.333 263.582 160.998 263.313 162.323 262.776C163.648 262.203 164.651 261.451 165.331 260.521C166.047 259.554 166.405 258.444 166.405 257.19ZM222.909 257.19C222.909 256.08 222.587 255.078 221.942 254.183C221.298 253.287 220.098 252.464 218.344 251.712C216.625 250.924 214.136 250.208 210.878 249.563C207.942 248.919 205.202 248.113 202.66 247.146C200.154 246.144 197.969 244.944 196.107 243.548C194.281 242.151 192.849 240.504 191.811 238.606C190.772 236.673 190.253 234.471 190.253 232C190.253 229.565 190.772 227.273 191.811 225.125C192.885 222.977 194.407 221.079 196.376 219.432C198.381 217.749 200.816 216.442 203.681 215.511C206.581 214.544 209.84 214.061 213.456 214.061C218.505 214.061 222.838 214.866 226.454 216.478C230.106 218.089 232.899 220.309 234.833 223.138C236.802 225.931 237.787 229.118 237.787 232.698H222.318C222.318 231.194 221.996 229.852 221.352 228.67C220.743 227.452 219.776 226.504 218.451 225.823C217.162 225.107 215.479 224.749 213.402 224.749C211.684 224.749 210.198 225.053 208.944 225.662C207.691 226.235 206.724 227.023 206.044 228.025C205.399 228.992 205.077 230.066 205.077 231.248C205.077 232.143 205.256 232.949 205.614 233.665C206.008 234.345 206.635 234.972 207.494 235.545C208.354 236.118 209.464 236.655 210.824 237.156C212.221 237.622 213.939 238.051 215.98 238.445C220.17 239.305 223.912 240.433 227.206 241.829C230.5 243.19 233.114 245.052 235.048 247.415C236.981 249.743 237.948 252.804 237.948 256.6C237.948 259.178 237.375 261.541 236.229 263.689C235.084 265.838 233.437 267.718 231.288 269.329C229.14 270.905 226.562 272.14 223.554 273.035C220.582 273.895 217.234 274.324 213.51 274.324C208.103 274.324 203.52 273.357 199.76 271.424C196.036 269.49 193.207 267.037 191.273 264.065C189.376 261.058 188.427 257.978 188.427 254.827H203.09C203.161 256.94 203.699 258.641 204.701 259.93C205.74 261.219 207.047 262.15 208.622 262.723C210.233 263.296 211.97 263.582 213.832 263.582C215.837 263.582 217.502 263.313 218.827 262.776C220.152 262.203 221.155 261.451 221.835 260.521C222.551 259.554 222.909 258.444 222.909 257.19ZM264.32 215.135V273.25H248.798V215.135H264.32ZM247.831 199.988C247.831 197.732 248.619 195.87 250.194 194.402C251.77 192.934 253.882 192.2 256.532 192.2C259.146 192.2 261.241 192.934 262.816 194.402C264.428 195.87 265.233 197.732 265.233 199.988C265.233 202.244 264.428 204.106 262.816 205.574C261.241 207.042 259.146 207.776 256.532 207.776C253.882 207.776 251.77 207.042 250.194 205.574C248.619 204.106 247.831 202.244 247.831 199.988ZM274.633 244.783V243.655C274.633 239.394 275.242 235.473 276.459 231.893C277.676 228.276 279.449 225.143 281.776 222.493C284.104 219.843 286.968 217.785 290.37 216.316C293.772 214.812 297.675 214.061 302.079 214.061C306.483 214.061 310.404 214.812 313.842 216.316C317.279 217.785 320.162 219.843 322.489 222.493C324.853 225.143 326.643 228.276 327.86 231.893C329.078 235.473 329.687 239.394 329.687 243.655V244.783C329.687 249.008 329.078 252.929 327.86 256.546C326.643 260.127 324.853 263.26 322.489 265.945C320.162 268.595 317.297 270.654 313.896 272.122C310.494 273.59 306.591 274.324 302.187 274.324C297.782 274.324 293.861 273.59 290.424 272.122C287.022 270.654 284.14 268.595 281.776 265.945C279.449 263.26 277.676 260.127 276.459 256.546C275.242 252.929 274.633 249.008 274.633 244.783ZM290.102 243.655V244.783C290.102 247.218 290.316 249.492 290.746 251.604C291.176 253.717 291.856 255.579 292.787 257.19C293.754 258.766 295.007 260.001 296.547 260.896C298.087 261.792 299.966 262.239 302.187 262.239C304.335 262.239 306.179 261.792 307.719 260.896C309.258 260.001 310.494 258.766 311.425 257.19C312.356 255.579 313.036 253.717 313.466 251.604C313.931 249.492 314.164 247.218 314.164 244.783V243.655C314.164 241.292 313.931 239.072 313.466 236.995C313.036 234.882 312.338 233.021 311.371 231.409C310.44 229.762 309.205 228.473 307.665 227.542C306.125 226.611 304.263 226.146 302.079 226.146C299.895 226.146 298.033 226.611 296.493 227.542C294.989 228.473 293.754 229.762 292.787 231.409C291.856 233.021 291.176 234.882 290.746 236.995C290.316 239.072 290.102 241.292 290.102 243.655ZM354.34 227.542V273.25H338.871V215.135H353.373L354.34 227.542ZM352.084 242.151H347.895C347.895 237.854 348.45 233.987 349.56 230.55C350.67 227.076 352.227 224.122 354.232 221.688C356.238 219.217 358.619 217.337 361.376 216.048C364.169 214.723 367.284 214.061 370.722 214.061C373.443 214.061 375.932 214.454 378.188 215.242C380.443 216.03 382.377 217.283 383.988 219.002C385.635 220.721 386.889 222.994 387.748 225.823C388.643 228.652 389.091 232.107 389.091 236.189V273.25H373.515V236.136C373.515 233.558 373.157 231.552 372.44 230.12C371.724 228.688 370.668 227.685 369.271 227.112C367.911 226.504 366.228 226.199 364.223 226.199C362.146 226.199 360.338 226.611 358.798 227.435C357.294 228.258 356.041 229.404 355.038 230.872C354.071 232.304 353.337 233.987 352.836 235.921C352.335 237.854 352.084 239.931 352.084 242.151Z" fill="#A2ABB0"/>
<path d="M690.833 3C690.833 4.47276 692.027 5.66667 693.5 5.66667C694.973 5.66667 696.167 4.47276 696.167 3C696.167 1.52724 694.973 0.333333 693.5 0.333333C692.027 0.333333 690.833 1.52724 690.833 3ZM690.833 338C690.833 339.473 692.027 340.667 693.5 340.667C694.973 340.667 696.167 339.473 696.167 338C696.167 336.527 694.973 335.333 693.5 335.333C692.027 335.333 690.833 336.527 690.833 338ZM0.833333 171C0.833333 172.473 2.02724 173.667 3.5 173.667C4.97276 173.667 6.16667 172.473 6.16667 171C6.16667 169.527 4.97276 168.333 3.5 168.333C2.02724 168.333 0.833333 169.527 0.833333 171ZM603.833 171C603.833 172.473 605.027 173.667 606.5 173.667C607.973 173.667 609.167 172.473 609.167 171C609.167 169.527 607.973 168.333 606.5 168.333C605.027 168.333 603.833 169.527 603.833 171ZM693.5 2.5H656.5V3.5H693.5V2.5ZM606 53V288H607V53H606ZM656.5 338.5H693.5V337.5H656.5V338.5ZM606 288C606 315.89 628.61 338.5 656.5 338.5V337.5C629.162 337.5 607 315.338 607 288H606ZM656.5 2.5C628.61 2.5 606 25.1096 606 53H607C607 25.6619 629.162 3.5 656.5 3.5V2.5ZM3.5 171.5L606.5 171.5V170.5L3.5 170.5L3.5 171.5Z" fill="#40424A"/>
</svg>
