<svg width="23" height="24" viewBox="0 0 23 24" fill="none" xmlns="http://www.w3.org/2000/svg">
<g clip-path="url(#clip0_799_3965)">
<path d="M21.8719 16.8841C21.7904 16.371 21.6198 15.9111 21.3754 15.5001L21.385 15.5181C21.2545 15.304 21.0383 15.1528 20.7856 15.1113L20.7807 15.1106L14.5865 14.1272C14.5478 14.121 14.5036 14.1182 14.4587 14.1182C14.2184 14.1182 14.0001 14.2135 13.8406 14.3689C13.4228 14.7895 13.085 15.2902 12.8537 15.8468L12.8426 15.8772C10.4213 14.7909 8.52482 12.8944 7.46608 10.5394L7.43915 10.4724C8.02549 10.23 8.5262 9.89295 8.9461 9.47443C9.10219 9.31835 9.19887 9.10219 9.19887 8.86323C9.19887 8.81558 9.19473 8.76861 9.18713 8.72234L9.18782 8.72718L8.20506 2.53227C8.16293 2.27398 8.01099 2.05712 7.79966 1.92936L7.79551 1.92728C7.41843 1.70145 6.97712 1.53501 6.5068 1.4549L6.48401 1.45144C6.24298 1.39758 5.96604 1.36719 5.68219 1.36719C5.66561 1.36719 5.64973 1.36719 5.63315 1.36719H5.63592H5.62901C3.02396 1.38652 0.918228 3.495 0.902344 6.09866V6.10004C0.912703 15.1037 8.20851 22.3995 17.2116 22.4098C19.8194 22.3946 21.9299 20.2855 21.9458 17.6797V17.6784C21.9465 17.6583 21.9465 17.6349 21.9465 17.6107C21.9465 17.3531 21.9196 17.1017 21.8678 16.8593L21.8719 16.8828V16.8841ZM17.2129 20.6853C9.16227 20.6764 2.63859 14.1527 2.62961 6.1028C2.64273 4.44599 3.98393 3.10618 5.64006 3.09513C5.64697 3.09513 5.65664 3.09513 5.66492 3.09513C5.83689 3.09513 6.00471 3.11378 6.16632 3.14969L6.15113 3.14693C6.31204 3.17386 6.45362 3.21116 6.58968 3.2595L6.57241 3.25397L7.40807 8.52621C7.05171 8.78795 6.62421 8.9758 6.1601 9.05661L6.14215 9.05937C5.73399 9.13326 5.42873 9.48617 5.42873 9.91022C5.42873 10.011 5.44599 10.1077 5.47776 10.1975L5.47569 10.1913C6.7354 13.7943 9.52209 16.581 13.0388 17.8144L13.1251 17.8407C13.2087 17.8704 13.3054 17.8869 13.4062 17.8869C13.5678 17.8869 13.7184 17.8434 13.8482 17.7668L13.844 17.7688C14.0588 17.6418 14.2115 17.4291 14.2564 17.179L14.257 17.1735C14.3406 16.6915 14.5285 16.264 14.7957 15.8986L14.7895 15.9069L20.0611 16.7433C20.1081 16.8766 20.1502 17.0368 20.1785 17.2011L20.1813 17.2191C20.2068 17.3413 20.2206 17.4822 20.2206 17.6259C20.2206 17.6425 20.2206 17.659 20.2199 17.6763V17.6735C20.211 19.331 18.8704 20.6729 17.2143 20.684H17.2129V20.6853ZM12.8482 5.18772C12.8288 5.18634 12.8067 5.18496 12.7839 5.18496C12.3281 5.18496 11.9572 5.54823 11.9455 6.00128V6.00266C11.9448 6.01647 11.9441 6.03236 11.9441 6.04824C11.9441 6.5082 12.3026 6.8839 12.7556 6.91152H12.7577C15.0133 7.03722 16.7951 8.89707 16.7951 11.1727C16.7951 11.3143 16.7882 11.4538 16.7751 11.5919L16.7765 11.5746C16.7765 12.0512 17.1632 12.4379 17.6397 12.4379C18.1163 12.4379 18.503 12.0512 18.503 11.5746C18.512 11.4531 18.5168 11.3115 18.5168 11.1685C18.5168 7.97371 16.0154 5.36314 12.864 5.18842L12.8482 5.18772ZM12.7618 3.1932C13.0588 3.20839 20.0293 3.64901 20.0293 11.5746C20.0293 12.0512 20.4161 12.4379 20.8926 12.4379C21.3691 12.4379 21.7559 12.0512 21.7559 11.5746C21.7663 11.4096 21.7718 11.2162 21.7718 11.0221C21.7718 5.9633 17.8483 1.82024 12.8779 1.47147L12.8475 1.47009C12.8281 1.46871 12.8053 1.46733 12.7825 1.46733C12.3254 1.46733 11.9531 1.83267 11.9427 2.28779C11.9421 2.30091 11.9414 2.3168 11.9414 2.33199C11.9414 2.79333 12.3033 3.16972 12.7591 3.1932H12.7618Z" fill="#FAFAFA"/>
</g>
<defs>
<clipPath id="clip0_799_3965">
<rect width="22.1001" height="22.1" fill="white" transform="translate(0.375 0.950195)"/>
</clipPath>
</defs>
</svg>
