<svg width="697" height="341" viewBox="0 0 697 341" fill="none" xmlns="http://www.w3.org/2000/svg">
<path d="M603.833 3C603.833 4.47276 605.027 5.66667 606.5 5.66667C607.973 5.66667 609.167 4.47276 609.167 3C609.167 1.52724 607.973 0.333333 606.5 0.333333C605.027 0.333333 603.833 1.52724 603.833 3ZM690.833 338C690.833 339.473 692.027 340.667 693.5 340.667C694.973 340.667 696.167 339.473 696.167 338C696.167 336.527 694.973 335.333 693.5 335.333C692.027 335.333 690.833 336.527 690.833 338ZM0.833333 181C0.833333 182.473 2.02724 183.667 3.5 183.667C4.97276 183.667 6.16667 182.473 6.16667 181C6.16667 179.527 4.97276 178.333 3.5 178.333C2.02724 178.333 0.833333 179.527 0.833333 181ZM603.833 181C603.833 182.473 605.027 183.667 606.5 183.667C607.973 183.667 609.167 182.473 609.167 181C609.167 179.527 607.973 178.333 606.5 178.333C605.027 178.333 603.833 179.527 603.833 181ZM606 3V288H607V3H606ZM656.5 338.5H693.5V337.5H656.5V338.5ZM606 288C606 315.89 628.61 338.5 656.5 338.5V337.5C629.162 337.5 607 315.338 607 288H606ZM3.5 181.5L606.5 181.5V180.5L3.5 180.5L3.5 181.5Z" fill="#40424A"/>
</svg>
