<svg width="697" height="341" viewBox="0 0 697 341" fill="none" xmlns="http://www.w3.org/2000/svg">
<path d="M690.833 3C690.833 4.47276 692.027 5.66667 693.5 5.66667C694.973 5.66667 696.167 4.47276 696.167 3C696.167 1.52724 694.973 0.333333 693.5 0.333333C692.027 0.333333 690.833 1.52724 690.833 3ZM690.833 338C690.833 339.473 692.027 340.667 693.5 340.667C694.973 340.667 696.167 339.473 696.167 338C696.167 336.527 694.973 335.333 693.5 335.333C692.027 335.333 690.833 336.527 690.833 338ZM0.833333 171C0.833333 172.473 2.02724 173.667 3.5 173.667C4.97276 173.667 6.16667 172.473 6.16667 171C6.16667 169.527 4.97276 168.333 3.5 168.333C2.02724 168.333 0.833333 169.527 0.833333 171ZM603.833 171C603.833 172.473 605.027 173.667 606.5 173.667C607.973 173.667 609.167 172.473 609.167 171C609.167 169.527 607.973 168.333 606.5 168.333C605.027 168.333 603.833 169.527 603.833 171ZM693.5 2.5H656.5V3.5H693.5V2.5ZM606 53V288H607V53H606ZM656.5 338.5H693.5V337.5H656.5V338.5ZM606 288C606 315.89 628.61 338.5 656.5 338.5V337.5C629.162 337.5 607 315.338 607 288H606ZM656.5 2.5C628.61 2.5 606 25.1096 606 53H607C607 25.6619 629.162 3.5 656.5 3.5V2.5ZM3.5 171.5L606.5 171.5V170.5L3.5 170.5L3.5 171.5Z" fill="#40424A"/>
</svg>
