<svg width="363" height="363" viewBox="0 0 363 363" fill="none" xmlns="http://www.w3.org/2000/svg">
<rect width="362.213" height="362.213" rx="31.3333" fill="url(#paint0_linear_596_7666)"/>
<g filter="url(#filter0_d_596_7666)">
<rect x="54" y="54" width="255" height="255" rx="50" fill="url(#paint1_linear_596_7666)" shape-rendering="crispEdges"/>
<path d="M238.001 270.201C245.365 270.201 251.335 264.291 251.335 257.001C251.335 249.711 245.365 243.801 238.001 243.801C230.638 243.801 224.668 249.711 224.668 257.001C224.668 264.291 230.638 270.201 238.001 270.201Z" fill="url(#paint2_linear_596_7666)"/>
<path d="M266.921 233.318C257.812 227.135 248.065 224 237.95 224C228.848 224 219.975 226.681 211.577 231.936C203.108 237.247 194.806 246.894 188 257C193.504 266.075 201.033 275.406 208.875 280.756C217.871 286.89 227.652 290 237.95 290C248.158 290 257.919 286.892 266.971 280.762C274.94 275.356 282.523 266.038 288 257C282.504 248.043 274.896 238.734 266.921 233.318ZM238 276.8C234.044 276.8 230.178 275.639 226.889 273.463C223.6 271.287 221.036 268.195 219.522 264.577C218.009 260.959 217.613 256.978 218.384 253.137C219.156 249.296 221.061 245.768 223.858 242.999C226.655 240.23 230.219 238.344 234.098 237.58C237.978 236.816 241.999 237.209 245.654 238.707C249.308 240.206 252.432 242.744 254.629 246C256.827 249.256 258 253.084 258 257C257.994 262.249 255.885 267.282 252.135 270.994C248.386 274.706 243.302 276.794 238 276.8Z" fill="url(#paint3_linear_596_7666)"/>
<path d="M100 151H264.5" stroke="#0C63AF" stroke-width="16" stroke-linecap="round"/>
<path d="M100 151H264.5" stroke="#0C63AF" stroke-width="16" stroke-linecap="round"/>
<path d="M100 191H223" stroke="#0C63AF" stroke-width="16" stroke-linecap="round"/>
<path d="M100 191H223" stroke="#0C63AF" stroke-width="16" stroke-linecap="round"/>
<path d="M100 231H162" stroke="#0C63AF" stroke-width="16" stroke-linecap="round"/>
<path d="M100 231H162" stroke="#0C63AF" stroke-width="16" stroke-linecap="round"/>
<path d="M100 88H140" stroke="#0C63AF" stroke-width="16" stroke-linecap="round"/>
<path d="M168 88H208" stroke="#0C63AF" stroke-width="16" stroke-linecap="round"/>
<path d="M168 88H208" stroke="#0C63AF" stroke-width="16" stroke-linecap="round"/>
<path d="M59 114L306 114" stroke="url(#paint4_linear_596_7666)" stroke-width="5" stroke-linecap="round"/>
<rect x="56.5" y="56.5" width="250" height="250" rx="47.5" stroke="url(#paint5_linear_596_7666)" stroke-width="5" shape-rendering="crispEdges"/>
</g>
<defs>
<filter id="filter0_d_596_7666" x="50" y="49" width="283" height="283" filterUnits="userSpaceOnUse" color-interpolation-filters="sRGB">
<feFlood flood-opacity="0" result="BackgroundImageFix"/>
<feColorMatrix in="SourceAlpha" type="matrix" values="0 0 0 0 0 0 0 0 0 0 0 0 0 0 0 0 0 0 127 0" result="hardAlpha"/>
<feOffset dx="10" dy="9"/>
<feGaussianBlur stdDeviation="7"/>
<feComposite in2="hardAlpha" operator="out"/>
<feColorMatrix type="matrix" values="0 0 0 0 0.04875 0 0 0 0 0.173508 0 0 0 0 0.325 0 0 0 0.3 0"/>
<feBlend mode="normal" in2="BackgroundImageFix" result="effect1_dropShadow_596_7666"/>
<feBlend mode="normal" in="SourceGraphic" in2="effect1_dropShadow_596_7666" result="shape"/>
</filter>
<linearGradient id="paint0_linear_596_7666" x1="362.213" y1="362.213" x2="-63.991" y2="-67.6132" gradientUnits="userSpaceOnUse">
<stop stop-color="#004085"/>
<stop offset="1" stop-color="#68ADFD"/>
</linearGradient>
<linearGradient id="paint1_linear_596_7666" x1="44.1923" y1="97.7006" x2="296.879" y2="306.49" gradientUnits="userSpaceOnUse">
<stop offset="0.00624508" stop-color="#F9FCFF"/>
<stop offset="1" stop-color="#9FD1FF"/>
</linearGradient>
<linearGradient id="paint2_linear_596_7666" x1="229.978" y1="225.503" x2="260.32" y2="232.79" gradientUnits="userSpaceOnUse">
<stop stop-color="#3DA3FF"/>
<stop offset="1" stop-color="#0056A3"/>
</linearGradient>
<linearGradient id="paint3_linear_596_7666" x1="207.914" y1="178.254" x2="314.433" y2="216.629" gradientUnits="userSpaceOnUse">
<stop stop-color="#3DA3FF"/>
<stop offset="1" stop-color="#0056A3"/>
</linearGradient>
<linearGradient id="paint4_linear_596_7666" x1="59" y1="111" x2="312" y2="116" gradientUnits="userSpaceOnUse">
<stop stop-color="#0E65B1"/>
<stop offset="1" stop-color="#72CCFB"/>
</linearGradient>
<linearGradient id="paint5_linear_596_7666" x1="69.5" y1="54" x2="360" y2="309" gradientUnits="userSpaceOnUse">
<stop stop-color="#045BA9"/>
<stop offset="0.520833" stop-color="#78D2FF"/>
<stop offset="1" stop-color="#045BA9"/>
</linearGradient>
</defs>
</svg>
