<svg width="363" height="363" viewBox="0 0 363 363" fill="none" xmlns="http://www.w3.org/2000/svg">
<rect width="362.213" height="362.213" rx="31.3333" fill="url(#paint0_linear_596_7662)"/>
<g clip-path="url(#clip0_596_7662)">
<path d="M306.979 292.085C301.977 163.812 198.314 60.195 70.091 55.1963C65.2691 55.0082 61.2973 58.8822 61.3161 63.7079L61.4177 89.3631C61.4327 93.9668 65.0999 97.7317 69.6998 97.9311C174.863 102.535 259.645 187.294 264.248 292.48C264.448 297.08 268.216 300.743 272.816 300.762L298.472 300.863C303.293 300.878 307.167 296.907 306.979 292.085ZM114.394 247.781C101.098 234.485 79.5467 234.485 66.2509 247.781C52.955 261.077 52.955 282.629 66.2509 295.925C79.5468 309.221 101.098 309.221 114.394 295.925C127.69 282.629 127.69 261.077 114.394 247.781ZM222.063 292.57C217.049 210.88 151.205 145.119 69.6058 140.113C64.7163 139.812 60.6504 143.712 60.6843 148.606L60.8535 174.344C60.8836 178.827 64.3665 182.611 68.8461 182.938C127.716 187.218 174.969 234.591 179.234 293.326C179.561 297.805 183.341 301.292 187.828 301.318L213.566 301.488C218.463 301.525 222.364 297.452 222.063 292.57Z" fill="white"/>
</g>
<defs>
<linearGradient id="paint0_linear_596_7662" x1="362.213" y1="362.213" x2="-63.991" y2="-67.6132" gradientUnits="userSpaceOnUse">
<stop stop-color="#004085"/>
<stop offset="1" stop-color="#68ADFD"/>
</linearGradient>
<clipPath id="clip0_596_7662">
<rect width="250" height="250" fill="white" transform="translate(56 56)"/>
</clipPath>
</defs>
</svg>
