<svg width="39" height="38" viewBox="0 0 39 38" fill="none" xmlns="http://www.w3.org/2000/svg">
<path d="M19.7566 1.18262C12.5565 1.18262 6.69532 7.04382 6.69531 14.2439C6.69531 26.9131 19.0203 36.5446 19.0203 36.5446C19.2307 36.7125 19.4919 36.8039 19.761 36.8039C20.0302 36.8039 20.2914 36.7125 20.5018 36.5446C20.5018 36.5446 32.8268 26.9131 32.8267 14.2439C32.8267 7.04382 26.9568 1.18262 19.7566 1.18262ZM19.7566 3.5582C25.6732 3.5582 30.4511 8.32735 30.4512 14.2439C30.4512 24.6083 21.0661 32.797 19.7654 33.9061C18.471 32.8025 9.07089 24.6124 9.0709 14.2439C9.0709 8.32735 13.84 3.5582 19.7566 3.5582Z" fill="#FAFAFA"/>
<path d="M19.7549 8.30957C16.4898 8.30957 13.8203 10.979 13.8203 14.2441C13.8203 17.5093 16.4898 20.1875 19.7549 20.1875C23.02 20.1875 25.6983 17.5093 25.6982 14.2441C25.6982 10.979 23.02 8.30957 19.7549 8.30957ZM19.7549 10.6852C21.7365 10.6852 23.3226 12.2626 23.3227 14.2441C23.3227 16.2257 21.7365 17.8119 19.7549 17.8119C17.7733 17.8119 16.1959 16.2257 16.1959 14.2441C16.1959 12.2626 17.7733 10.6852 19.7549 10.6852Z" fill="#FAFAFA"/>
</svg>
