<svg width="35" height="35" viewBox="0 0 35 35" fill="none" xmlns="http://www.w3.org/2000/svg">
<g clip-path="url(#clip0_334_11268)">
<path d="M34.6739 7.67472C34.5207 6.87997 34.1783 6.1527 33.7003 5.55188C33.5995 5.42098 33.4942 5.30374 33.38 5.1865C32.533 4.31027 31.3442 3.76367 30.0455 3.76367H5.47796C4.17925 3.76367 2.9947 4.31027 2.1437 5.1865C2.02981 5.30374 1.92449 5.42098 1.82342 5.55188C1.3451 6.15263 1.00277 6.87997 0.853758 7.67472C0.792531 7.98145 0.761719 8.29843 0.761719 8.6189V26.3809C0.761719 27.0623 0.902102 27.7173 1.15245 28.3089C1.38468 28.8735 1.72707 29.3844 2.14363 29.8128C2.24922 29.9212 2.35407 30.0209 2.46849 30.12C3.28436 30.8156 4.3375 31.2357 5.47796 31.2357H30.0455C31.1863 31.2357 32.2441 30.8156 33.0552 30.1157C33.1693 30.0209 33.2747 29.9212 33.38 29.8128C33.7964 29.3844 34.1387 28.8735 34.3757 28.3089V28.3045C34.626 27.713 34.7617 27.0623 34.7617 26.381V8.6189C34.7617 8.29843 34.7314 7.98145 34.6739 7.67472ZM3.85021 6.943C4.27155 6.50974 4.8374 6.24744 5.47796 6.24744H30.0455C30.686 6.24744 31.2569 6.50974 31.6732 6.943C31.7477 7.02018 31.8179 7.10617 31.8799 7.19162L19.0033 18.744C18.6481 19.0644 18.2094 19.2227 17.7617 19.2227C17.3185 19.2227 16.8801 19.0644 16.5203 18.744L3.64853 7.1867C3.70551 7.10125 3.7757 7.02018 3.85021 6.943ZM3.17452 26.3809V9.75694L12.4929 18.1252L3.17924 26.4845C3.17452 26.4528 3.17452 26.4171 3.17452 26.3809ZM30.0455 28.7514H5.47796C5.06086 28.7514 4.67059 28.6386 4.3375 28.4402L14.1642 19.6247L15.0816 20.4462C15.8493 21.133 16.81 21.4808 17.7617 21.4808C18.7184 21.4808 19.679 21.133 20.4467 20.4462L21.3636 19.6247L31.1864 28.4402C30.8529 28.6386 30.4626 28.7514 30.0455 28.7514ZM32.3489 26.3809C32.3489 26.4171 32.3489 26.4528 32.3444 26.4845L23.0308 18.13L32.3489 9.76139V26.3809Z" fill="#FAFAFA"/>
</g>
<defs>
<clipPath id="clip0_334_11268">
<rect width="34" height="35" fill="white" transform="translate(0.761719)"/>
</clipPath>
</defs>
</svg>
