<svg width="65" height="64" viewBox="0 0 65 64" fill="none" xmlns="http://www.w3.org/2000/svg">
<g id="document">
<path id="Vector" d="M56.6797 16.25C56.6769 15.5531 56.3952 14.8854 55.8957 14.3915L45.229 3.89151C44.9823 3.64889 44.6897 3.45626 44.3677 3.32451C44.0441 3.19179 43.6969 3.12397 43.3464 3.12501H11.3464C10.6391 3.12501 9.96083 3.40157 9.46074 3.89386C8.96064 4.38614 8.67969 5.05382 8.67969 5.75001V58.25C8.67969 58.9462 8.96064 59.6139 9.46074 60.1062C9.96083 60.5984 10.6391 60.875 11.3464 60.875H54.013C54.7203 60.875 55.3985 60.5984 55.8986 60.1062C56.3987 59.6139 56.6797 58.9462 56.6797 58.25V16.25ZM51.3464 51.625C51.3464 53.8341 49.5555 55.625 47.3464 55.625H18.013C15.8039 55.625 14.013 53.8342 14.013 51.625V12.375C14.013 10.1659 15.8039 8.37501 18.013 8.37501H36.6797C38.8888 8.37501 40.6797 10.1659 40.6797 12.375V16.25C40.6797 16.9462 40.9606 17.6139 41.4607 18.1062C41.9608 18.5984 42.6391 18.875 43.3464 18.875H47.3464C49.5555 18.875 51.3464 20.6659 51.3464 22.875V51.625ZM43.3464 24.125C44.0536 24.125 44.7319 24.4016 45.232 24.8939C45.7321 25.3861 46.013 26.0538 46.013 26.75C46.013 27.4462 45.7321 28.1139 45.232 28.6062C44.7319 29.0984 44.0536 29.375 43.3464 29.375H22.013C21.3058 29.375 20.6275 29.0984 20.1274 28.6062C19.6273 28.1139 19.3464 27.4462 19.3464 26.75C19.3464 26.0538 19.6273 25.3861 20.1274 24.8939C20.6275 24.4016 21.3058 24.125 22.013 24.125H43.3464ZM19.3464 16.25C19.3464 15.5538 19.6273 14.8861 20.1274 14.3939C20.6275 13.9016 21.3058 13.625 22.013 13.625H32.6797C33.3869 13.625 34.0652 13.9016 34.5653 14.3939C35.0654 14.8861 35.3464 15.5538 35.3464 16.25C35.3464 16.9462 35.0654 17.6139 34.5653 18.1062C34.0652 18.5984 33.3869 18.875 32.6797 18.875H22.013C21.3058 18.875 20.6275 18.5984 20.1274 18.1062C19.6273 17.6139 19.3464 16.9462 19.3464 16.25ZM46.013 37.25C46.013 37.9462 45.7321 38.6139 45.232 39.1062C44.7319 39.5984 44.0536 39.875 43.3464 39.875H22.013C21.3058 39.875 20.6275 39.5984 20.1274 39.1062C19.6273 38.6139 19.3464 37.9462 19.3464 37.25C19.3464 36.5538 19.6273 35.8861 20.1274 35.3939C20.6275 34.9016 21.3058 34.625 22.013 34.625H43.3464C44.0536 34.625 44.7319 34.9016 45.232 35.3939C45.7321 35.8861 46.013 36.5538 46.013 37.25ZM46.013 47.75C46.013 48.4462 45.7321 49.1139 45.232 49.6062C44.7319 50.0984 44.0536 50.375 43.3464 50.375H22.013C21.3058 50.375 20.6275 50.0984 20.1274 49.6062C19.6273 49.1139 19.3464 48.4462 19.3464 47.75C19.3464 47.0538 19.6273 46.3861 20.1274 45.8939C20.6275 45.4016 21.3058 45.125 22.013 45.125H43.3464C44.0536 45.125 44.7319 45.4016 45.232 45.8939C45.7321 46.3861 46.013 47.0538 46.013 47.75Z" fill="url(#paint0_linear_399_8780)"/>
</g>
<defs>
<linearGradient id="paint0_linear_399_8780" x1="32.6797" y1="-10.5" x2="41.8468" y2="67.5978" gradientUnits="userSpaceOnUse">
<stop stop-color="#1C54C8"/>
<stop offset="1" stop-color="#20A9E3"/>
</linearGradient>
</defs>
</svg>
