<svg width="69" height="68" viewBox="0 0 69 68" fill="none" xmlns="http://www.w3.org/2000/svg">
<g id="folder">
<path id="Vector" fill-rule="evenodd" clip-rule="evenodd" d="M26.6251 6.73828L33.4405 16.9615H10.3701V20.3692H61.4862V35.5779C61.4862 36.2969 60.5558 36.5048 60.2083 35.8778C58.4567 32.7325 55.1001 30.5924 51.263 30.5924C45.6402 30.5924 41.0398 35.1928 41.0398 40.8156H38.9951C38.242 40.8156 37.632 41.4256 37.632 42.1787V56.1504C37.632 56.7298 37.7002 57.3091 37.8024 57.8543H8.6663C5.84467 57.8543 3.55469 55.5677 3.55469 52.7427V6.73828H26.6251ZM51.2629 37.4079C53.1406 37.4079 54.6707 38.9379 54.6707 40.8156V44.2233H47.8552V40.8156C47.8552 38.938 49.3853 37.4079 51.2629 37.4079ZM58.0784 40.8156C58.0784 37.0569 55.0251 34.0001 51.2629 34.0001C47.5008 34.0001 44.4475 37.0569 44.4475 40.8156V44.2233H41.0398V56.1504C41.0398 58.9686 43.3332 61.262 46.1514 61.262H56.3745C59.1928 61.262 61.4862 58.9686 61.4862 56.1504V44.2234H58.0784V40.8156Z" fill="url(#paint0_linear_399_8762)"/>
</g>
<defs>
<linearGradient id="paint0_linear_399_8762" x1="23.1885" y1="3.83137" x2="41.8645" y2="70.3948" gradientUnits="userSpaceOnUse">
<stop stop-color="#1C54C8"/>
<stop offset="1" stop-color="#20A9E3"/>
</linearGradient>
</defs>
</svg>
