<svg width="72" height="72" viewBox="0 0 72 72" fill="none" xmlns="http://www.w3.org/2000/svg">
<g id="interface">
<path id="Vector" d="M60.0859 9H11.2734C7.50156 9 4.61719 11.925 4.61719 15.75V56.25C4.61719 60.075 7.50156 63 11.2734 63H60.0859C63.8578 63 66.7422 60.075 66.7422 56.25V15.75C66.7422 11.925 63.8578 9 60.0859 9ZM27.0266 17.1C27.2484 16.875 27.2484 16.65 27.4703 16.425C28.3578 15.525 29.6891 15.525 30.5766 16.425C30.7984 16.65 31.0203 16.875 31.0203 17.1C31.2422 17.325 31.2422 17.775 31.2422 18C31.2422 18.225 31.2422 18.675 31.0203 18.9C30.7984 19.125 30.7984 19.35 30.5766 19.575C30.1328 20.025 29.6891 20.25 29.0234 20.25C28.8016 20.25 28.3578 20.25 28.1359 20.025C27.9141 19.8 27.6922 19.8 27.4703 19.575C27.2484 19.35 27.0266 19.125 27.0266 18.9C26.8047 18.675 26.8047 18.225 26.8047 18C26.8047 17.775 26.8047 17.325 27.0266 17.1ZM20.3703 17.1C20.5922 16.875 20.5922 16.65 20.8141 16.425C21.0359 16.2 21.2578 15.975 21.4797 15.975C22.3672 15.525 23.2547 15.75 23.9203 16.425C24.1422 16.65 24.3641 16.875 24.3641 17.1C24.5859 17.325 24.5859 17.775 24.5859 18C24.5859 18.675 24.3641 19.125 23.9203 19.575C23.4766 20.025 23.0328 20.25 22.3672 20.25C21.7016 20.25 21.2578 20.025 20.8141 19.575C20.3703 19.125 20.1484 18.675 20.1484 18C20.1484 17.775 20.1484 17.325 20.3703 17.1ZM14.1578 16.425L14.3797 16.2C14.6016 16.2 14.6016 15.975 14.8234 15.975C15.0453 15.75 15.0453 15.75 15.2672 15.75C15.4891 15.75 15.9328 15.75 16.1547 15.75C16.3766 15.75 16.3766 15.75 16.5984 15.975C16.8203 15.975 16.8203 16.2 17.0422 16.2L17.2641 16.425C17.4859 16.65 17.7078 16.875 17.7078 17.1C17.9297 17.325 17.9297 17.775 17.9297 18C17.9297 18.225 17.9297 18.675 17.7078 18.9C17.7078 19.125 17.4859 19.35 17.2641 19.575C16.8203 20.025 16.3766 20.25 15.7109 20.25C15.0453 20.25 14.6016 20.025 14.1578 19.575C13.7141 19.125 13.4922 18.675 13.4922 18C13.4922 17.325 13.7141 16.875 14.1578 16.425ZM40.1172 58.5H11.2734C9.94219 58.5 9.05469 57.6 9.05469 56.25V45H40.1172V58.5ZM40.1172 40.5H9.05469V27H40.1172V40.5ZM62.3047 56.25C62.3047 57.6 61.4172 58.5 60.0859 58.5H44.5547V27H62.3047V56.25Z" fill="url(#paint0_linear_399_8741)"/>
</g>
<defs>
<linearGradient id="paint0_linear_399_8741" x1="19.5547" y1="-4" x2="57.5547" y2="75.5" gradientUnits="userSpaceOnUse">
<stop stop-color="#1C54C8"/>
<stop offset="1" stop-color="#20A9E3"/>
</linearGradient>
</defs>
</svg>
