<svg width="71" height="72" viewBox="0 0 71 72" fill="none" xmlns="http://www.w3.org/2000/svg">
<g id="security">
<path id="Vector" d="M50.889 29.9156V20.5718C50.889 12.3144 44.1527 5.57812 35.678 5.57812C27.2033 5.57812 20.4671 12.3144 20.4671 20.5718V29.9156C17.8595 30.7848 16.1211 33.1751 16.1211 36V46.865C16.1211 57.7299 24.8131 66.4219 35.678 66.4219C46.543 66.4219 55.2349 57.7299 55.2349 46.865V36C55.2349 33.1751 53.4965 30.7848 50.889 29.9156ZM37.851 50.7763V55.5569C37.851 56.8607 36.9818 57.7299 35.678 57.7299C34.3742 57.7299 33.505 56.8607 33.505 55.5569V50.7763C30.8974 49.9071 29.159 47.5169 29.159 44.692C29.159 40.9979 31.9839 38.173 35.678 38.173C39.3721 38.173 42.197 40.9979 42.197 44.692C42.197 47.5169 40.4586 49.9071 37.851 50.7763ZM46.543 29.481H24.8131V20.5718C24.8131 14.7047 29.5936 9.92411 35.678 9.92411C41.7624 9.92411 46.543 14.7047 46.543 20.5718V29.481Z" fill="url(#paint0_linear_399_8771)"/>
</g>
<defs>
<linearGradient id="paint0_linear_399_8771" x1="35.678" y1="5.57812" x2="35.678" y2="66.4219" gradientUnits="userSpaceOnUse">
<stop stop-color="#1C54C8"/>
<stop offset="1" stop-color="#20A9E3"/>
</linearGradient>
</defs>
</svg>
