<svg width="69" height="68" viewBox="0 0 69 68" fill="none" xmlns="http://www.w3.org/2000/svg">
<g id="support">
<g id="Page-1">
<g id="support_2">
<path id="Vector" fill-rule="evenodd" clip-rule="evenodd" d="M57.0198 28.8734C56.1466 19.9164 50.8512 5.83301 34.4864 5.83301C18.1215 5.83301 12.8261 19.9164 11.953 28.8734C8.88986 30.0359 6.86939 32.9768 6.88288 36.2531V40.1964C6.88288 44.5521 10.4139 48.0831 14.7696 48.0831C19.1253 48.0831 22.6563 44.5521 22.6563 40.1964V36.2531C22.6422 33.0476 20.6959 30.1671 17.7271 28.9579C18.2905 23.7752 21.0508 11.4664 34.4864 11.4664C47.9219 11.4664 50.6541 23.7752 51.2174 28.9579C48.2547 30.1697 46.3182 33.0521 46.3164 36.2531V40.1964C46.3286 43.2243 48.0673 45.9799 50.7949 47.2945C49.6119 49.5196 46.5981 52.5335 39.1902 53.4348C37.7094 51.1862 34.8445 50.2998 32.3526 51.3192C29.8606 52.3385 28.4384 54.9787 28.958 57.6205C29.4777 60.2622 31.794 62.1665 34.4864 62.1665C36.6139 62.1547 38.5533 60.9453 39.5 59.04C51.5836 57.6598 55.4424 51.435 56.6536 47.7733C59.9303 46.7119 62.1339 43.6405 62.0898 40.1964V36.2531C62.1033 32.9768 60.0829 30.0359 57.0198 28.8734ZM17.023 40.1964C17.023 41.4409 16.0141 42.4498 14.7696 42.4498C13.5252 42.4498 12.5163 41.4409 12.5163 40.1964V36.2531C12.5163 35.4481 12.9458 34.7042 13.643 34.3016C14.3402 33.8991 15.1991 33.8991 15.8963 34.3016C16.5935 34.7042 17.023 35.4481 17.023 36.2531V40.1964ZM51.9497 36.2531C51.9497 35.0086 52.9586 33.9998 54.2031 33.9998C55.4476 33.9998 56.4564 35.0086 56.4564 36.2531V40.1964C56.4564 41.4409 55.4476 42.4498 54.2031 42.4498C52.9586 42.4498 51.9497 41.4409 51.9497 40.1964V36.2531Z" fill="url(#paint0_linear_399_8750)"/>
</g>
</g>
</g>
<defs>
<linearGradient id="paint0_linear_399_8750" x1="34.4866" y1="5.83301" x2="34.4866" y2="62.1665" gradientUnits="userSpaceOnUse">
<stop stop-color="#1C54C8"/>
<stop offset="1" stop-color="#20A9E3"/>
</linearGradient>
</defs>
</svg>
