<svg width="348" height="414" viewBox="0 0 348 414" fill="none" xmlns="http://www.w3.org/2000/svg">
<path d="M327.609 30.2812H20.3906C9.12919 30.2812 0 40.3936 0 52.8678V363.056C0 375.53 9.12919 385.643 20.3906 385.643H327.609C338.871 385.643 348 375.53 348 363.056V52.8678C348 40.3936 338.871 30.2812 327.609 30.2812Z" fill="url(#paint0_linear_592_7654)"/>
<path d="M20.3906 30.2988H327.609C338.865 30.2988 348 40.4176 348 52.8854V121.955H0V52.8854C0 40.4176 9.135 30.2988 20.3906 30.2988Z" fill="url(#paint1_linear_592_7654)"/>
<path d="M293.625 106.244C308.64 106.244 320.812 92.7613 320.812 76.1291C320.812 59.4968 308.64 46.0137 293.625 46.0137C278.61 46.0137 266.438 59.4968 266.438 76.1291C266.438 92.7613 278.61 106.244 293.625 106.244Z" fill="url(#paint2_linear_592_7654)"/>
<path d="M293.625 98.7121C304.886 98.7121 314.016 88.5998 314.016 76.1256C314.016 63.6514 304.886 53.5391 293.625 53.5391C282.364 53.5391 273.234 63.6514 273.234 76.1256C273.234 88.5998 282.364 98.7121 293.625 98.7121Z" fill="url(#paint3_linear_592_7654)"/>
<path d="M174 106.244C189.015 106.244 201.187 92.7613 201.187 76.1291C201.187 59.4968 189.015 46.0137 174 46.0137C158.985 46.0137 146.812 59.4968 146.812 76.1291C146.812 92.7613 158.985 106.244 174 106.244Z" fill="url(#paint4_linear_592_7654)"/>
<path d="M174 98.7121C185.261 98.7121 194.391 88.5998 194.391 76.1256C194.391 63.6514 185.261 53.5391 174 53.5391C162.739 53.5391 153.609 63.6514 153.609 76.1256C153.609 88.5998 162.739 98.7121 174 98.7121Z" fill="url(#paint5_linear_592_7654)"/>
<path d="M54.375 106.244C69.3902 106.244 81.5625 92.7613 81.5625 76.1291C81.5625 59.4968 69.3902 46.0137 54.375 46.0137C39.3598 46.0137 27.1875 59.4968 27.1875 76.1291C27.1875 92.7613 39.3598 106.244 54.375 106.244Z" fill="url(#paint6_linear_592_7654)"/>
<path d="M54.375 98.7121C65.6364 98.7121 74.7656 88.5998 74.7656 76.1256C74.7656 63.6514 65.6364 53.5391 54.375 53.5391C43.1136 53.5391 33.9844 63.6514 33.9844 76.1256C33.9844 88.5998 43.1136 98.7121 54.375 98.7121Z" fill="url(#paint7_linear_592_7654)"/>
<path d="M307.219 15.2413C307.219 6.92515 301.133 0.183594 293.625 0.183594C286.117 0.183594 280.031 6.92515 280.031 15.2413V76.1271C280.031 84.4432 286.117 91.1848 293.625 91.1848C301.133 91.1848 307.219 84.4432 307.219 76.1271V15.2413Z" fill="url(#paint8_linear_592_7654)"/>
<path d="M187.594 15.2413C187.594 6.92515 181.508 0.183594 174 0.183594C166.492 0.183594 160.406 6.92515 160.406 15.2413V76.1271C160.406 84.4432 166.492 91.1848 174 91.1848C181.508 91.1848 187.594 84.4432 187.594 76.1271V15.2413Z" fill="url(#paint9_linear_592_7654)"/>
<path d="M67.9687 15.2413C67.9687 6.92515 61.8826 0.183594 54.375 0.183594C46.8674 0.183594 40.7812 6.92515 40.7812 15.2413V76.1271C40.7812 84.4432 46.8674 91.1848 54.375 91.1848C61.8826 91.1848 67.9687 84.4432 67.9687 76.1271V15.2413Z" fill="url(#paint10_linear_592_7654)"/>
<g clip-path="url(#clip0_592_7654)">
<g filter="url(#filter0_d_592_7654)">
<path d="M174 165.596C172.849 165.596 171.745 165.139 170.931 164.325C170.117 163.511 169.66 162.407 169.66 161.256V148.82C169.66 147.669 170.117 146.565 170.931 145.751C171.745 144.938 172.849 144.48 174 144.48C175.151 144.48 176.254 144.938 177.068 145.751C177.882 146.565 178.339 147.669 178.339 148.82V161.256C178.339 162.407 177.882 163.511 177.068 164.325C176.254 165.139 175.151 165.596 174 165.596Z" fill="url(#paint11_linear_592_7654)"/>
</g>
<g filter="url(#filter1_d_592_7654)">
<path d="M126.849 178.232C126.086 178.232 125.337 178.032 124.677 177.651C124.016 177.27 123.468 176.722 123.086 176.062L116.868 165.291C116.302 164.295 116.152 163.115 116.452 162.009C116.753 160.903 117.478 159.961 118.471 159.388C119.463 158.815 120.642 158.658 121.75 158.951C122.857 159.244 123.804 159.963 124.384 160.951L130.607 171.721C130.988 172.381 131.188 173.129 131.188 173.89C131.188 174.651 130.988 175.399 130.608 176.059C130.228 176.719 129.68 177.266 129.021 177.648C128.362 178.029 127.615 178.23 126.853 178.231L126.849 178.232Z" fill="url(#paint12_linear_592_7654)"/>
</g>
<g filter="url(#filter2_d_592_7654)">
<path d="M92.3184 212.753C91.5565 212.753 90.808 212.552 90.1486 212.17L79.3822 205.952C78.8847 205.669 78.448 205.29 78.0974 204.838C77.7468 204.386 77.489 203.869 77.3391 203.316C77.1892 202.764 77.1499 202.188 77.2237 201.62C77.2975 201.053 77.4828 200.505 77.7689 200.01C78.0551 199.514 78.4364 199.08 78.8911 198.732C79.3457 198.385 79.8646 198.13 80.4178 197.984C80.9711 197.838 81.5479 197.802 82.1149 197.88C82.6819 197.957 83.228 198.146 83.7217 198.436L94.4925 204.653C95.3209 205.131 95.9685 205.869 96.3345 206.752C96.7006 207.635 96.7646 208.615 96.5167 209.538C96.2688 210.462 95.7229 211.277 94.9637 211.859C94.2045 212.44 93.2746 212.754 92.3184 212.753Z" fill="url(#paint13_linear_592_7654)"/>
</g>
<g filter="url(#filter3_d_592_7654)">
<path d="M79.6821 259.912H67.2458C66.0949 259.912 64.9911 259.454 64.1773 258.64C63.3635 257.827 62.9062 256.723 62.9062 255.572C62.9062 254.421 63.3635 253.317 64.1773 252.503C64.9911 251.69 66.0949 251.232 67.2458 251.232H79.6821C80.833 251.232 81.9368 251.69 82.7506 252.503C83.5644 253.317 84.0216 254.421 84.0216 255.572C84.0216 256.723 83.5644 257.827 82.7506 258.64C81.9368 259.454 80.833 259.912 79.6821 259.912Z" fill="url(#paint14_linear_592_7654)"/>
</g>
<g filter="url(#filter4_d_592_7654)">
<path d="M81.5518 313.286C80.5963 313.287 79.6674 312.972 78.9092 312.39C78.1511 311.809 77.6061 310.993 77.3588 310.07C77.1115 309.147 77.1757 308.168 77.5416 307.286C77.9074 306.403 78.5543 305.666 79.382 305.188L90.1528 298.969C91.1489 298.403 92.3287 298.254 93.4346 298.554C94.5405 298.854 95.4828 299.58 96.0557 300.572C96.6287 301.564 96.7859 302.743 96.493 303.851C96.2001 304.959 95.4809 305.906 94.4923 306.486L83.7216 312.704C83.0623 313.086 82.3138 313.287 81.5518 313.286Z" fill="url(#paint15_linear_592_7654)"/>
</g>
<g filter="url(#filter5_d_592_7654)">
<path d="M120.624 352.365C119.863 352.365 119.115 352.164 118.456 351.782C117.797 351.401 117.25 350.853 116.869 350.194C116.489 349.534 116.289 348.786 116.289 348.025C116.289 347.263 116.49 346.515 116.87 345.856L123.088 335.085C123.371 334.588 123.749 334.151 124.202 333.801C124.654 333.45 125.171 333.192 125.724 333.042C126.276 332.892 126.852 332.853 127.42 332.927C127.987 333.001 128.535 333.186 129.03 333.472C129.526 333.758 129.96 334.14 130.308 334.594C130.655 335.049 130.91 335.568 131.056 336.121C131.202 336.674 131.238 337.251 131.16 337.818C131.083 338.385 130.894 338.931 130.604 339.425L124.387 350.196C124.005 350.856 123.457 351.404 122.796 351.785C122.136 352.166 121.387 352.366 120.624 352.365Z" fill="url(#paint16_linear_592_7654)"/>
</g>
<g filter="url(#filter6_d_592_7654)">
<path d="M174 366.666C172.849 366.666 171.745 366.209 170.931 365.395C170.117 364.581 169.66 363.477 169.66 362.327V349.89C169.66 348.739 170.117 347.636 170.931 346.822C171.745 346.008 172.849 345.551 174 345.551C175.151 345.551 176.254 346.008 177.068 346.822C177.882 347.636 178.339 348.739 178.339 349.89V362.327C178.339 363.477 177.882 364.581 177.068 365.395C176.254 366.209 175.151 366.666 174 366.666Z" fill="url(#paint17_linear_592_7654)"/>
</g>
<g filter="url(#filter7_d_592_7654)">
<path d="M227.38 352.364C226.618 352.365 225.868 352.165 225.208 351.784C224.547 351.403 223.999 350.855 223.618 350.195L217.399 339.424C216.833 338.428 216.683 337.248 216.984 336.142C217.284 335.036 218.009 334.094 219.002 333.521C219.994 332.948 221.173 332.791 222.281 333.084C223.389 333.377 224.336 334.096 224.915 335.084L231.134 345.855C231.514 346.514 231.715 347.262 231.715 348.024C231.715 348.785 231.515 349.533 231.135 350.193C230.755 350.852 230.207 351.4 229.548 351.781C228.889 352.162 228.141 352.364 227.38 352.364Z" fill="url(#paint18_linear_592_7654)"/>
</g>
<g filter="url(#filter8_d_592_7654)">
<path d="M266.449 313.29C265.687 313.29 264.938 313.089 264.279 312.707L253.508 306.489C252.52 305.91 251.8 304.963 251.507 303.855C251.215 302.747 251.372 301.568 251.945 300.576C252.518 299.584 253.46 298.858 254.566 298.558C255.672 298.258 256.851 298.407 257.848 298.973L268.618 305.191C269.446 305.669 270.093 306.406 270.459 307.289C270.825 308.171 270.889 309.15 270.642 310.073C270.394 310.996 269.849 311.812 269.091 312.393C268.333 312.975 267.404 313.29 266.449 313.29Z" fill="url(#paint19_linear_592_7654)"/>
</g>
<g filter="url(#filter9_d_592_7654)">
<path d="M280.752 259.912H268.316C267.165 259.912 266.061 259.454 265.248 258.64C264.434 257.827 263.977 256.723 263.977 255.572C263.977 254.421 264.434 253.317 265.248 252.503C266.061 251.69 267.165 251.232 268.316 251.232H280.752C281.903 251.232 283.007 251.69 283.821 252.503C284.635 253.317 285.092 254.421 285.092 255.572C285.092 256.723 284.635 257.827 283.821 258.64C283.007 259.454 281.903 259.912 280.752 259.912Z" fill="url(#paint20_linear_592_7654)"/>
</g>
<g filter="url(#filter10_d_592_7654)">
<path d="M255.683 212.753C254.726 212.754 253.797 212.44 253.037 211.859C252.278 211.277 251.732 210.462 251.484 209.538C251.236 208.615 251.3 207.635 251.667 206.752C252.033 205.869 252.68 205.131 253.509 204.653L264.279 198.436C264.773 198.146 265.319 197.957 265.886 197.88C266.453 197.802 267.03 197.838 267.583 197.984C268.136 198.13 268.655 198.385 269.11 198.732C269.565 199.08 269.946 199.514 270.232 200.01C270.518 200.505 270.704 201.053 270.777 201.62C270.851 202.188 270.812 202.764 270.662 203.316C270.512 203.869 270.254 204.386 269.904 204.838C269.553 205.29 269.116 205.669 268.619 205.952L257.848 212.175C257.19 212.554 256.443 212.754 255.683 212.753Z" fill="url(#paint21_linear_592_7654)"/>
</g>
<g filter="url(#filter11_d_592_7654)">
<path d="M221.155 178.232C220.394 178.231 219.646 178.03 218.987 177.649C218.328 177.267 217.781 176.72 217.401 176.06C217.02 175.4 216.82 174.652 216.82 173.891C216.821 173.13 217.021 172.382 217.402 171.722L223.619 160.953C223.902 160.455 224.281 160.018 224.733 159.668C225.185 159.317 225.703 159.059 226.255 158.909C226.807 158.759 227.384 158.72 227.951 158.794C228.519 158.868 229.066 159.053 229.562 159.339C230.057 159.625 230.491 160.007 230.839 160.461C231.187 160.916 231.441 161.435 231.587 161.988C231.734 162.541 231.769 163.118 231.691 163.685C231.614 164.252 231.425 164.798 231.135 165.292L224.918 176.062C224.537 176.722 223.988 177.27 223.328 177.651C222.667 178.032 221.918 178.232 221.155 178.232Z" fill="url(#paint22_linear_592_7654)"/>
</g>
</g>
<g filter="url(#filter12_d_592_7654)">
<path d="M136.988 238.999C136.988 218.704 153.578 202.242 174.03 202.291C194.482 202.291 211.071 218.753 211.022 239.048C211.022 259.342 194.432 275.755 174.03 275.755C153.578 275.706 136.988 259.293 136.988 238.999Z" fill="url(#paint23_linear_592_7654)"/>
</g>
<g filter="url(#filter13_d_592_7654)">
<path d="M248.797 374.788C248.797 380.684 244.832 385.508 239.987 385.508H108.029C103.183 385.508 99.2188 380.684 99.2188 374.788C99.2188 324.582 132.747 283.785 173.959 283.785C215.171 283.785 248.797 324.582 248.797 374.788Z" fill="url(#paint24_linear_592_7654)"/>
</g>
<defs>
<filter id="filter0_d_592_7654" x="156.858" y="132.958" width="47.0874" height="59.523" filterUnits="userSpaceOnUse" color-interpolation-filters="sRGB">
<feFlood flood-opacity="0" result="BackgroundImageFix"/>
<feColorMatrix in="SourceAlpha" type="matrix" values="0 0 0 0 0 0 0 0 0 0 0 0 0 0 0 0 0 0 127 0" result="hardAlpha"/>
<feOffset dx="6.40129" dy="7.68155"/>
<feGaussianBlur stdDeviation="9.60194"/>
<feComposite in2="hardAlpha" operator="out"/>
<feColorMatrix type="matrix" values="0 0 0 0 0.04875 0 0 0 0 0.173508 0 0 0 0 0.325 0 0 0 0.6 0"/>
<feBlend mode="normal" in2="BackgroundImageFix" result="effect1_dropShadow_592_7654"/>
<feBlend mode="normal" in="SourceGraphic" in2="effect1_dropShadow_592_7654" result="shape"/>
</filter>
<filter id="filter1_d_592_7654" x="103.498" y="147.284" width="53.2945" height="57.8335" filterUnits="userSpaceOnUse" color-interpolation-filters="sRGB">
<feFlood flood-opacity="0" result="BackgroundImageFix"/>
<feColorMatrix in="SourceAlpha" type="matrix" values="0 0 0 0 0 0 0 0 0 0 0 0 0 0 0 0 0 0 127 0" result="hardAlpha"/>
<feOffset dx="6.40129" dy="7.68155"/>
<feGaussianBlur stdDeviation="9.60194"/>
<feComposite in2="hardAlpha" operator="out"/>
<feColorMatrix type="matrix" values="0 0 0 0 0.04875 0 0 0 0 0.173508 0 0 0 0 0.325 0 0 0 0.6 0"/>
<feBlend mode="normal" in2="BackgroundImageFix" result="effect1_dropShadow_592_7654"/>
<feBlend mode="normal" in="SourceGraphic" in2="effect1_dropShadow_592_7654" result="shape"/>
</filter>
<filter id="filter2_d_592_7654" x="64.3849" y="186.318" width="57.8843" height="53.3199" filterUnits="userSpaceOnUse" color-interpolation-filters="sRGB">
<feFlood flood-opacity="0" result="BackgroundImageFix"/>
<feColorMatrix in="SourceAlpha" type="matrix" values="0 0 0 0 0 0 0 0 0 0 0 0 0 0 0 0 0 0 127 0" result="hardAlpha"/>
<feOffset dx="6.40129" dy="7.68155"/>
<feGaussianBlur stdDeviation="9.60194"/>
<feComposite in2="hardAlpha" operator="out"/>
<feColorMatrix type="matrix" values="0 0 0 0 0.04875 0 0 0 0 0.173508 0 0 0 0 0.325 0 0 0 0.6 0"/>
<feBlend mode="normal" in2="BackgroundImageFix" result="effect1_dropShadow_592_7654"/>
<feBlend mode="normal" in="SourceGraphic" in2="effect1_dropShadow_592_7654" result="shape"/>
</filter>
<filter id="filter3_d_592_7654" x="50.1037" y="239.71" width="59.5249" height="47.0874" filterUnits="userSpaceOnUse" color-interpolation-filters="sRGB">
<feFlood flood-opacity="0" result="BackgroundImageFix"/>
<feColorMatrix in="SourceAlpha" type="matrix" values="0 0 0 0 0 0 0 0 0 0 0 0 0 0 0 0 0 0 127 0" result="hardAlpha"/>
<feOffset dx="6.40129" dy="7.68155"/>
<feGaussianBlur stdDeviation="9.60194"/>
<feComposite in2="hardAlpha" operator="out"/>
<feColorMatrix type="matrix" values="0 0 0 0 0.04875 0 0 0 0 0.173508 0 0 0 0 0.325 0 0 0 0.6 0"/>
<feBlend mode="normal" in2="BackgroundImageFix" result="effect1_dropShadow_592_7654"/>
<feBlend mode="normal" in="SourceGraphic" in2="effect1_dropShadow_592_7654" result="shape"/>
</filter>
<filter id="filter4_d_592_7654" x="64.4084" y="286.88" width="57.8335" height="53.2925" filterUnits="userSpaceOnUse" color-interpolation-filters="sRGB">
<feFlood flood-opacity="0" result="BackgroundImageFix"/>
<feColorMatrix in="SourceAlpha" type="matrix" values="0 0 0 0 0 0 0 0 0 0 0 0 0 0 0 0 0 0 127 0" result="hardAlpha"/>
<feOffset dx="6.40129" dy="7.68155"/>
<feGaussianBlur stdDeviation="9.60194"/>
<feComposite in2="hardAlpha" operator="out"/>
<feColorMatrix type="matrix" values="0 0 0 0 0.04875 0 0 0 0 0.173508 0 0 0 0 0.325 0 0 0 0.6 0"/>
<feBlend mode="normal" in2="BackgroundImageFix" result="effect1_dropShadow_592_7654"/>
<feBlend mode="normal" in="SourceGraphic" in2="effect1_dropShadow_592_7654" result="shape"/>
</filter>
<filter id="filter5_d_592_7654" x="103.486" y="321.368" width="53.3179" height="57.8824" filterUnits="userSpaceOnUse" color-interpolation-filters="sRGB">
<feFlood flood-opacity="0" result="BackgroundImageFix"/>
<feColorMatrix in="SourceAlpha" type="matrix" values="0 0 0 0 0 0 0 0 0 0 0 0 0 0 0 0 0 0 127 0" result="hardAlpha"/>
<feOffset dx="6.40129" dy="7.68155"/>
<feGaussianBlur stdDeviation="9.60194"/>
<feComposite in2="hardAlpha" operator="out"/>
<feColorMatrix type="matrix" values="0 0 0 0 0.04875 0 0 0 0 0.173508 0 0 0 0 0.325 0 0 0 0.6 0"/>
<feBlend mode="normal" in2="BackgroundImageFix" result="effect1_dropShadow_592_7654"/>
<feBlend mode="normal" in="SourceGraphic" in2="effect1_dropShadow_592_7654" result="shape"/>
</filter>
<filter id="filter6_d_592_7654" x="156.858" y="334.028" width="47.0874" height="59.523" filterUnits="userSpaceOnUse" color-interpolation-filters="sRGB">
<feFlood flood-opacity="0" result="BackgroundImageFix"/>
<feColorMatrix in="SourceAlpha" type="matrix" values="0 0 0 0 0 0 0 0 0 0 0 0 0 0 0 0 0 0 127 0" result="hardAlpha"/>
<feOffset dx="6.40129" dy="7.68155"/>
<feGaussianBlur stdDeviation="9.60194"/>
<feComposite in2="hardAlpha" operator="out"/>
<feColorMatrix type="matrix" values="0 0 0 0 0.04875 0 0 0 0 0.173508 0 0 0 0 0.325 0 0 0 0.6 0"/>
<feBlend mode="normal" in2="BackgroundImageFix" result="effect1_dropShadow_592_7654"/>
<feBlend mode="normal" in="SourceGraphic" in2="effect1_dropShadow_592_7654" result="shape"/>
</filter>
<filter id="filter7_d_592_7654" x="204.029" y="321.417" width="53.2906" height="57.8335" filterUnits="userSpaceOnUse" color-interpolation-filters="sRGB">
<feFlood flood-opacity="0" result="BackgroundImageFix"/>
<feColorMatrix in="SourceAlpha" type="matrix" values="0 0 0 0 0 0 0 0 0 0 0 0 0 0 0 0 0 0 127 0" result="hardAlpha"/>
<feOffset dx="6.40129" dy="7.68155"/>
<feGaussianBlur stdDeviation="9.60194"/>
<feComposite in2="hardAlpha" operator="out"/>
<feColorMatrix type="matrix" values="0 0 0 0 0.04875 0 0 0 0 0.173508 0 0 0 0 0.325 0 0 0 0.6 0"/>
<feBlend mode="normal" in2="BackgroundImageFix" result="effect1_dropShadow_592_7654"/>
<feBlend mode="normal" in="SourceGraphic" in2="effect1_dropShadow_592_7654" result="shape"/>
</filter>
<filter id="filter8_d_592_7654" x="238.561" y="286.884" width="57.8335" height="53.2906" filterUnits="userSpaceOnUse" color-interpolation-filters="sRGB">
<feFlood flood-opacity="0" result="BackgroundImageFix"/>
<feColorMatrix in="SourceAlpha" type="matrix" values="0 0 0 0 0 0 0 0 0 0 0 0 0 0 0 0 0 0 127 0" result="hardAlpha"/>
<feOffset dx="6.40129" dy="7.68155"/>
<feGaussianBlur stdDeviation="9.60194"/>
<feComposite in2="hardAlpha" operator="out"/>
<feColorMatrix type="matrix" values="0 0 0 0 0.04875 0 0 0 0 0.173508 0 0 0 0 0.325 0 0 0 0.6 0"/>
<feBlend mode="normal" in2="BackgroundImageFix" result="effect1_dropShadow_592_7654"/>
<feBlend mode="normal" in="SourceGraphic" in2="effect1_dropShadow_592_7654" result="shape"/>
</filter>
<filter id="filter9_d_592_7654" x="251.174" y="239.71" width="59.5249" height="47.0874" filterUnits="userSpaceOnUse" color-interpolation-filters="sRGB">
<feFlood flood-opacity="0" result="BackgroundImageFix"/>
<feColorMatrix in="SourceAlpha" type="matrix" values="0 0 0 0 0 0 0 0 0 0 0 0 0 0 0 0 0 0 127 0" result="hardAlpha"/>
<feOffset dx="6.40129" dy="7.68155"/>
<feGaussianBlur stdDeviation="9.60194"/>
<feComposite in2="hardAlpha" operator="out"/>
<feColorMatrix type="matrix" values="0 0 0 0 0.04875 0 0 0 0 0.173508 0 0 0 0 0.325 0 0 0 0.6 0"/>
<feBlend mode="normal" in2="BackgroundImageFix" result="effect1_dropShadow_592_7654"/>
<feBlend mode="normal" in="SourceGraphic" in2="effect1_dropShadow_592_7654" result="shape"/>
</filter>
<filter id="filter10_d_592_7654" x="238.533" y="186.318" width="57.8843" height="53.3199" filterUnits="userSpaceOnUse" color-interpolation-filters="sRGB">
<feFlood flood-opacity="0" result="BackgroundImageFix"/>
<feColorMatrix in="SourceAlpha" type="matrix" values="0 0 0 0 0 0 0 0 0 0 0 0 0 0 0 0 0 0 127 0" result="hardAlpha"/>
<feOffset dx="6.40129" dy="7.68155"/>
<feGaussianBlur stdDeviation="9.60194"/>
<feComposite in2="hardAlpha" operator="out"/>
<feColorMatrix type="matrix" values="0 0 0 0 0.04875 0 0 0 0 0.173508 0 0 0 0 0.325 0 0 0 0.6 0"/>
<feBlend mode="normal" in2="BackgroundImageFix" result="effect1_dropShadow_592_7654"/>
<feBlend mode="normal" in="SourceGraphic" in2="effect1_dropShadow_592_7654" result="shape"/>
</filter>
<filter id="filter11_d_592_7654" x="204.018" y="147.235" width="53.3179" height="57.8824" filterUnits="userSpaceOnUse" color-interpolation-filters="sRGB">
<feFlood flood-opacity="0" result="BackgroundImageFix"/>
<feColorMatrix in="SourceAlpha" type="matrix" values="0 0 0 0 0 0 0 0 0 0 0 0 0 0 0 0 0 0 127 0" result="hardAlpha"/>
<feOffset dx="6.40129" dy="7.68155"/>
<feGaussianBlur stdDeviation="9.60194"/>
<feComposite in2="hardAlpha" operator="out"/>
<feColorMatrix type="matrix" values="0 0 0 0 0.04875 0 0 0 0 0.173508 0 0 0 0 0.325 0 0 0 0.6 0"/>
<feBlend mode="normal" in2="BackgroundImageFix" result="effect1_dropShadow_592_7654"/>
<feBlend mode="normal" in="SourceGraphic" in2="effect1_dropShadow_592_7654" result="shape"/>
</filter>
<filter id="filter12_d_592_7654" x="123.604" y="190.245" width="114.189" height="113.619" filterUnits="userSpaceOnUse" color-interpolation-filters="sRGB">
<feFlood flood-opacity="0" result="BackgroundImageFix"/>
<feColorMatrix in="SourceAlpha" type="matrix" values="0 0 0 0 0 0 0 0 0 0 0 0 0 0 0 0 0 0 127 0" result="hardAlpha"/>
<feOffset dx="6.69231" dy="8.03077"/>
<feGaussianBlur stdDeviation="10.0385"/>
<feComposite in2="hardAlpha" operator="out"/>
<feColorMatrix type="matrix" values="0 0 0 0 0.04875 0 0 0 0 0.173508 0 0 0 0 0.325 0 0 0 0.6 0"/>
<feBlend mode="normal" in2="BackgroundImageFix" result="effect1_dropShadow_592_7654"/>
<feBlend mode="normal" in="SourceGraphic" in2="effect1_dropShadow_592_7654" result="shape"/>
</filter>
<filter id="filter13_d_592_7654" x="85.8341" y="271.739" width="189.732" height="141.877" filterUnits="userSpaceOnUse" color-interpolation-filters="sRGB">
<feFlood flood-opacity="0" result="BackgroundImageFix"/>
<feColorMatrix in="SourceAlpha" type="matrix" values="0 0 0 0 0 0 0 0 0 0 0 0 0 0 0 0 0 0 127 0" result="hardAlpha"/>
<feOffset dx="6.69231" dy="8.03077"/>
<feGaussianBlur stdDeviation="10.0385"/>
<feComposite in2="hardAlpha" operator="out"/>
<feColorMatrix type="matrix" values="0 0 0 0 0.04875 0 0 0 0 0.173508 0 0 0 0 0.325 0 0 0 0.6 0"/>
<feBlend mode="normal" in2="BackgroundImageFix" result="effect1_dropShadow_592_7654"/>
<feBlend mode="normal" in="SourceGraphic" in2="effect1_dropShadow_592_7654" result="shape"/>
</filter>
<linearGradient id="paint0_linear_592_7654" x1="-13.3846" y1="91.1813" x2="337.292" y2="374.935" gradientUnits="userSpaceOnUse">
<stop offset="0.00624508" stop-color="#E0F0FF"/>
<stop offset="1" stop-color="#9FD1FF"/>
</linearGradient>
<linearGradient id="paint1_linear_592_7654" x1="69.3009" y1="-33.2296" x2="300.042" y2="175.078" gradientUnits="userSpaceOnUse">
<stop stop-color="#3DA3FF"/>
<stop offset="1" stop-color="#0056A3"/>
</linearGradient>
<linearGradient id="paint2_linear_592_7654" x1="274.41" y1="54.845" x2="316.757" y2="93.0744" gradientUnits="userSpaceOnUse">
<stop stop-color="#004D8C"/>
<stop offset="1" stop-color="#3B9FF2"/>
</linearGradient>
<linearGradient id="paint3_linear_592_7654" x1="279.209" y1="60.1569" x2="310.981" y2="88.8466" gradientUnits="userSpaceOnUse">
<stop stop-color="#002945"/>
<stop offset="1" stop-color="#00558F"/>
</linearGradient>
<linearGradient id="paint4_linear_592_7654" x1="154.785" y1="54.845" x2="197.132" y2="93.0744" gradientUnits="userSpaceOnUse">
<stop stop-color="#004D8C"/>
<stop offset="1" stop-color="#3B9FF2"/>
</linearGradient>
<linearGradient id="paint5_linear_592_7654" x1="159.584" y1="0.182139" x2="194.116" y2="89.908" gradientUnits="userSpaceOnUse">
<stop stop-color="#002945"/>
<stop offset="1" stop-color="#00558F"/>
</linearGradient>
<linearGradient id="paint6_linear_592_7654" x1="35.1602" y1="54.845" x2="77.5066" y2="93.0744" gradientUnits="userSpaceOnUse">
<stop stop-color="#004D8C"/>
<stop offset="1" stop-color="#3B9FF2"/>
</linearGradient>
<linearGradient id="paint7_linear_592_7654" x1="39.9588" y1="0.182139" x2="74.4913" y2="89.908" gradientUnits="userSpaceOnUse">
<stop stop-color="#002945"/>
<stop offset="1" stop-color="#00558F"/>
</linearGradient>
<linearGradient id="paint8_linear_592_7654" x1="281.029" y1="-0.049691" x2="331.495" y2="16.3128" gradientUnits="userSpaceOnUse">
<stop offset="0.00624508" stop-color="#ECF6FF"/>
<stop offset="1" stop-color="#7EC1FF"/>
</linearGradient>
<linearGradient id="paint9_linear_592_7654" x1="161.404" y1="-0.049691" x2="211.87" y2="16.3128" gradientUnits="userSpaceOnUse">
<stop offset="0.00624508" stop-color="#ECF6FF"/>
<stop offset="1" stop-color="#7EC1FF"/>
</linearGradient>
<linearGradient id="paint10_linear_592_7654" x1="41.779" y1="-0.049691" x2="92.2446" y2="16.3128" gradientUnits="userSpaceOnUse">
<stop offset="0.00624508" stop-color="#ECF6FF"/>
<stop offset="1" stop-color="#7EC1FF"/>
</linearGradient>
<linearGradient id="paint11_linear_592_7654" x1="175.176" y1="155.038" x2="163.605" y2="139.646" gradientUnits="userSpaceOnUse">
<stop stop-color="#004085"/>
<stop offset="1" stop-color="#68ADFD"/>
</linearGradient>
<linearGradient id="paint12_linear_592_7654" x1="125.763" y1="168.519" x2="118.077" y2="149.455" gradientUnits="userSpaceOnUse">
<stop stop-color="#004085"/>
<stop offset="1" stop-color="#68ADFD"/>
</linearGradient>
<linearGradient id="paint13_linear_592_7654" x1="89.5669" y1="205.296" x2="85.7547" y2="189.183" gradientUnits="userSpaceOnUse">
<stop stop-color="#004085"/>
<stop offset="1" stop-color="#68ADFD"/>
</linearGradient>
<linearGradient id="paint14_linear_592_7654" x1="76.3266" y1="255.572" x2="75.0888" y2="245.827" gradientUnits="userSpaceOnUse">
<stop stop-color="#004085"/>
<stop offset="1" stop-color="#68ADFD"/>
</linearGradient>
<linearGradient id="paint15_linear_592_7654" x1="89.5577" y1="305.844" x2="85.7505" y2="289.764" gradientUnits="userSpaceOnUse">
<stop stop-color="#004085"/>
<stop offset="1" stop-color="#68ADFD"/>
</linearGradient>
<linearGradient id="paint16_linear_592_7654" x1="125.766" y1="342.628" x2="118.055" y2="323.52" gradientUnits="userSpaceOnUse">
<stop stop-color="#004085"/>
<stop offset="1" stop-color="#68ADFD"/>
</linearGradient>
<linearGradient id="paint17_linear_592_7654" x1="175.176" y1="356.108" x2="163.605" y2="340.716" gradientUnits="userSpaceOnUse">
<stop stop-color="#004085"/>
<stop offset="1" stop-color="#68ADFD"/>
</linearGradient>
<linearGradient id="paint18_linear_592_7654" x1="226.291" y1="342.652" x2="218.603" y2="323.59" gradientUnits="userSpaceOnUse">
<stop stop-color="#004085"/>
<stop offset="1" stop-color="#68ADFD"/>
</linearGradient>
<linearGradient id="paint19_linear_592_7654" x1="263.71" y1="305.848" x2="259.903" y2="289.768" gradientUnits="userSpaceOnUse">
<stop stop-color="#004085"/>
<stop offset="1" stop-color="#68ADFD"/>
</linearGradient>
<linearGradient id="paint20_linear_592_7654" x1="277.397" y1="255.572" x2="276.159" y2="245.827" gradientUnits="userSpaceOnUse">
<stop stop-color="#004085"/>
<stop offset="1" stop-color="#68ADFD"/>
</linearGradient>
<linearGradient id="paint21_linear_592_7654" x1="263.715" y1="205.296" x2="259.903" y2="189.183" gradientUnits="userSpaceOnUse">
<stop stop-color="#004085"/>
<stop offset="1" stop-color="#68ADFD"/>
</linearGradient>
<linearGradient id="paint22_linear_592_7654" x1="226.297" y1="168.495" x2="218.586" y2="149.388" gradientUnits="userSpaceOnUse">
<stop stop-color="#004085"/>
<stop offset="1" stop-color="#68ADFD"/>
</linearGradient>
<linearGradient id="paint23_linear_592_7654" x1="184.042" y1="239.023" x2="160.549" y2="162.407" gradientUnits="userSpaceOnUse">
<stop stop-color="#004085"/>
<stop offset="1" stop-color="#68ADFD"/>
</linearGradient>
<linearGradient id="paint24_linear_592_7654" x1="194.287" y1="334.647" x2="170.928" y2="223.494" gradientUnits="userSpaceOnUse">
<stop stop-color="#004085"/>
<stop offset="1" stop-color="#68ADFD"/>
</linearGradient>
<clipPath id="clip0_592_7654">
<rect width="222.185" height="222.184" fill="white" transform="translate(62.9062 144.48)"/>
</clipPath>
</defs>
</svg>
