<svg width="166" height="182" viewBox="0 0 166 182" fill="none" xmlns="http://www.w3.org/2000/svg">
<g filter="url(#filter0_d_894_471)">
<path d="M145.323 18.3057H14.6056C9.81404 18.3057 5.92969 22.6083 5.92969 27.9159V159.897C5.92969 165.205 9.81404 169.507 14.6056 169.507H145.323C150.115 169.507 153.999 165.205 153.999 159.897V27.9159C153.999 22.6083 150.115 18.3057 145.323 18.3057Z" fill="url(#paint0_linear_894_471)"/>
<path d="M14.6056 18.3057H145.323C150.112 18.3057 153.999 22.6111 153.999 27.9159V57.3042H5.92969V27.9159C5.92969 22.6111 9.81651 18.3057 14.6056 18.3057Z" fill="url(#paint1_linear_894_471)"/>
<path d="M130.865 50.6196C137.254 50.6196 142.433 44.8827 142.433 37.8059C142.433 30.7291 137.254 24.9922 130.865 24.9922C124.476 24.9922 119.297 30.7291 119.297 37.8059C119.297 44.8827 124.476 50.6196 130.865 50.6196Z" fill="url(#paint2_linear_894_471)"/>
<path d="M130.863 47.4159C135.655 47.4159 139.539 43.1132 139.539 37.8056C139.539 32.498 135.655 28.1953 130.863 28.1953C126.072 28.1953 122.188 32.498 122.188 37.8056C122.188 43.1132 126.072 47.4159 130.863 47.4159Z" fill="url(#paint3_linear_894_471)"/>
<path d="M79.9664 50.6196C86.3552 50.6196 91.5343 44.8827 91.5343 37.8059C91.5343 30.7291 86.3552 24.9922 79.9664 24.9922C73.5776 24.9922 68.3984 30.7291 68.3984 37.8059C68.3984 44.8827 73.5776 50.6196 79.9664 50.6196Z" fill="url(#paint4_linear_894_471)"/>
<path d="M79.965 47.4159C84.7566 47.4159 88.6409 43.1132 88.6409 37.8056C88.6409 32.498 84.7566 28.1953 79.965 28.1953C75.1734 28.1953 71.2891 32.498 71.2891 37.8056C71.2891 43.1132 75.1734 47.4159 79.965 47.4159Z" fill="url(#paint5_linear_894_471)"/>
<path d="M29.064 50.6196C35.4528 50.6196 40.6319 44.8827 40.6319 37.8059C40.6319 30.7291 35.4528 24.9922 29.064 24.9922C22.6752 24.9922 17.4961 30.7291 17.4961 37.8059C17.4961 44.8827 22.6752 50.6196 29.064 50.6196Z" fill="url(#paint6_linear_894_471)"/>
<path d="M29.0666 47.4159C33.8582 47.4159 37.7425 43.1132 37.7425 37.8056C37.7425 32.498 33.8582 28.1953 29.0666 28.1953C24.275 28.1953 20.3906 32.498 20.3906 37.8056C20.3906 43.1132 24.275 47.4159 29.0666 47.4159Z" fill="url(#paint7_linear_894_471)"/>
<path d="M136.646 11.899C136.646 8.36063 134.056 5.49219 130.862 5.49219C127.668 5.49219 125.078 8.36063 125.078 11.899V37.8051C125.078 41.3435 127.668 44.212 130.862 44.212C134.056 44.212 136.646 41.3435 136.646 37.8051V11.899Z" fill="url(#paint8_linear_894_471)"/>
<path d="M85.7476 11.899C85.7476 8.36063 83.158 5.49219 79.9636 5.49219C76.7693 5.49219 74.1797 8.36063 74.1797 11.899V37.8051C74.1797 41.3435 76.7693 44.212 79.9636 44.212C83.158 44.212 85.7476 41.3435 85.7476 37.8051V11.899Z" fill="url(#paint9_linear_894_471)"/>
<path d="M34.8492 11.899C34.8492 8.36063 32.2596 5.49219 29.0652 5.49219C25.8708 5.49219 23.2812 8.36063 23.2812 11.899V37.8051C23.2812 41.3435 25.8708 44.212 29.0652 44.212C32.2596 44.212 34.8492 41.3435 34.8492 37.8051V11.899Z" fill="url(#paint10_linear_894_471)"/>
<g clip-path="url(#clip0_894_471)">
<g filter="url(#filter1_d_894_471)">
<path d="M79.9636 75.872C79.4739 75.872 79.0043 75.6775 78.658 75.3312C78.3117 74.9849 78.1172 74.5153 78.1172 74.0256V68.7341C78.1172 68.2444 78.3117 67.7748 78.658 67.4285C79.0043 67.0822 79.4739 66.8877 79.9636 66.8877C80.4533 66.8877 80.923 67.0822 81.2692 67.4285C81.6155 67.7748 81.81 68.2444 81.81 68.7341V74.0256C81.81 74.5153 81.6155 74.9849 81.2692 75.3312C80.923 75.6775 80.4533 75.872 79.9636 75.872Z" fill="url(#paint11_linear_894_471)"/>
</g>
<g filter="url(#filter2_d_894_471)">
<path d="M59.9021 81.2494C59.5777 81.2497 59.2589 81.1646 58.9779 81.0025C58.6969 80.8404 58.4635 80.6072 58.3013 80.3262L55.6554 75.7434C55.4144 75.3195 55.3508 74.8176 55.4786 74.347C55.6063 73.8765 55.915 73.4756 56.3373 73.2318C56.7595 72.988 57.2611 72.9211 57.7324 73.0457C58.2038 73.1703 58.6068 73.4764 58.8534 73.897L61.5011 78.4794C61.6631 78.76 61.7484 79.0782 61.7485 79.4022C61.7486 79.7261 61.6634 80.0444 61.5016 80.325C61.3398 80.6057 61.1069 80.8388 60.8265 81.001C60.5461 81.1632 60.2279 81.2487 59.904 81.249L59.9021 81.2494Z" fill="url(#paint12_linear_894_471)"/>
</g>
<g filter="url(#filter3_d_894_471)">
<path d="M45.2075 95.938C44.8833 95.9382 44.5649 95.8527 44.2843 95.6902L39.7033 93.0443C39.4917 92.924 39.3059 92.7629 39.1567 92.5705C39.0075 92.378 38.8978 92.158 38.834 91.923C38.7702 91.688 38.7535 91.4427 38.7849 91.2012C38.8163 90.9597 38.8952 90.7268 39.0169 90.516C39.1387 90.3051 39.3009 90.1204 39.4944 89.9725C39.6878 89.8245 39.9086 89.7163 40.144 89.6541C40.3794 89.5919 40.6248 89.5768 40.8661 89.6098C41.1073 89.6428 41.3397 89.7232 41.5498 89.8463L46.1326 92.4919C46.4851 92.695 46.7606 93.0089 46.9163 93.3848C47.0721 93.7606 47.0993 94.1774 46.9939 94.5703C46.8884 94.9632 46.6561 95.3103 46.3331 95.5576C46.01 95.805 45.6144 95.9387 45.2075 95.938Z" fill="url(#paint13_linear_894_471)"/>
</g>
<g filter="url(#filter4_d_894_471)">
<path d="M39.8332 116.002H34.5417C34.052 116.002 33.5824 115.808 33.2361 115.462C32.8898 115.115 32.6953 114.646 32.6953 114.156C32.6953 113.666 32.8898 113.197 33.2361 112.85C33.5824 112.504 34.052 112.31 34.5417 112.31H39.8332C40.3229 112.31 40.7925 112.504 41.1388 112.85C41.4851 113.197 41.6796 113.666 41.6796 114.156C41.6796 114.646 41.4851 115.115 41.1388 115.462C40.7925 115.808 40.3229 116.002 39.8332 116.002Z" fill="url(#paint14_linear_894_471)"/>
</g>
<g filter="url(#filter5_d_894_471)">
<path d="M40.6282 138.714C40.2217 138.714 39.8264 138.58 39.5038 138.332C39.1813 138.085 38.9494 137.738 38.8442 137.345C38.7389 136.953 38.7663 136.536 38.9219 136.161C39.0776 135.785 39.3529 135.471 39.705 135.268L44.2878 132.622C44.7117 132.381 45.2137 132.318 45.6842 132.445C46.1548 132.573 46.5557 132.882 46.7995 133.304C47.0433 133.726 47.1101 134.228 46.9855 134.699C46.8609 135.171 46.5549 135.574 46.1342 135.82L41.5514 138.466C41.2709 138.629 40.9524 138.714 40.6282 138.714Z" fill="url(#paint15_linear_894_471)"/>
</g>
<g filter="url(#filter6_d_894_471)">
<path d="M57.2508 155.339C56.9268 155.339 56.6087 155.253 56.3282 155.091C56.0478 154.929 55.815 154.696 55.6531 154.415C55.4913 154.134 55.4062 153.816 55.4063 153.492C55.4063 153.168 55.4916 152.85 55.6536 152.569L58.2992 147.987C58.4195 147.775 58.5806 147.589 58.773 147.44C58.9655 147.291 59.1855 147.181 59.4205 147.117C59.6555 147.053 59.9008 147.037 60.1423 147.068C60.3838 147.1 60.6166 147.178 60.8275 147.3C61.0384 147.422 61.2231 147.584 61.371 147.778C61.5189 147.971 61.6271 148.192 61.6894 148.427C61.7516 148.663 61.7667 148.908 61.7337 149.149C61.7007 149.391 61.6203 149.623 61.4972 149.833L58.8516 154.416C58.6894 154.697 58.456 154.93 58.175 155.092C57.894 155.254 57.5752 155.339 57.2508 155.339Z" fill="url(#paint16_linear_894_471)"/>
</g>
<g filter="url(#filter7_d_894_471)">
<path d="M79.9636 161.424C79.4739 161.424 79.0043 161.229 78.658 160.883C78.3117 160.537 78.1172 160.067 78.1172 159.577V154.286C78.1172 153.796 78.3117 153.327 78.658 152.98C79.0043 152.634 79.4739 152.439 79.9636 152.439C80.4533 152.439 80.923 152.634 81.2692 152.98C81.6155 153.327 81.81 153.796 81.81 154.286V159.577C81.81 160.067 81.6155 160.537 81.2692 160.883C80.923 161.229 80.4533 161.424 79.9636 161.424Z" fill="url(#paint17_linear_894_471)"/>
</g>
<g filter="url(#filter8_d_894_471)">
<path d="M102.676 155.339C102.351 155.34 102.032 155.254 101.751 155.092C101.47 154.93 101.237 154.697 101.075 154.416L98.4288 149.833C98.1878 149.409 98.1243 148.907 98.252 148.437C98.3798 147.966 98.6884 147.565 99.1107 147.322C99.5329 147.078 100.034 147.011 100.506 147.136C100.977 147.26 101.38 147.566 101.627 147.987L104.273 152.57C104.435 152.85 104.52 153.168 104.52 153.492C104.52 153.816 104.435 154.135 104.273 154.415C104.111 154.696 103.879 154.929 103.598 155.091C103.318 155.253 103 155.339 102.676 155.339Z" fill="url(#paint18_linear_894_471)"/>
</g>
<g filter="url(#filter9_d_894_471)">
<path d="M119.298 138.713C118.973 138.714 118.655 138.628 118.374 138.466L113.792 135.82C113.371 135.574 113.065 135.171 112.94 134.699C112.816 134.228 112.883 133.726 113.126 133.304C113.37 132.882 113.771 132.573 114.242 132.445C114.712 132.318 115.214 132.381 115.638 132.622L120.221 135.268C120.573 135.471 120.848 135.785 121.004 136.16C121.159 136.536 121.187 136.952 121.082 137.345C120.976 137.738 120.744 138.085 120.422 138.332C120.099 138.58 119.704 138.714 119.298 138.713Z" fill="url(#paint19_linear_894_471)"/>
</g>
<g filter="url(#filter10_d_894_471)">
<path d="M125.384 116.002H120.093C119.603 116.002 119.133 115.808 118.787 115.462C118.441 115.115 118.246 114.646 118.246 114.156C118.246 113.666 118.441 113.197 118.787 112.85C119.133 112.504 119.603 112.31 120.093 112.31H125.384C125.874 112.31 126.343 112.504 126.69 112.85C127.036 113.197 127.23 113.666 127.23 114.156C127.23 114.646 127.036 115.115 126.69 115.462C126.343 115.808 125.874 116.002 125.384 116.002Z" fill="url(#paint20_linear_894_471)"/>
</g>
<g filter="url(#filter11_d_894_471)">
<path d="M114.721 95.938C114.314 95.9387 113.918 95.805 113.595 95.5576C113.272 95.3103 113.04 94.9632 112.934 94.5703C112.829 94.1774 112.856 93.7606 113.012 93.3848C113.167 93.0089 113.443 92.695 113.796 92.4919L118.378 89.8463C118.588 89.7232 118.821 89.6428 119.062 89.6098C119.303 89.5768 119.549 89.5919 119.784 89.6541C120.019 89.7163 120.24 89.8245 120.434 89.9725C120.627 90.1204 120.789 90.3051 120.911 90.516C121.033 90.7268 121.112 90.9597 121.143 91.2012C121.175 91.4427 121.158 91.688 121.094 91.923C121.03 92.158 120.921 92.378 120.771 92.5705C120.622 92.7629 120.436 92.924 120.225 93.0443L115.642 95.6921C115.362 95.8536 115.044 95.9384 114.721 95.938Z" fill="url(#paint21_linear_894_471)"/>
</g>
<g filter="url(#filter12_d_894_471)">
<path d="M100.028 81.2497C99.7042 81.2494 99.386 81.1639 99.1056 81.0017C98.8251 80.8395 98.5923 80.6064 98.4305 80.3257C98.2687 80.0451 98.1835 79.7268 98.1836 79.4029C98.1837 79.0789 98.269 78.7607 98.431 78.4801L101.077 73.8977C101.197 73.686 101.358 73.5002 101.55 73.351C101.743 73.2018 101.963 73.0922 102.198 73.0284C102.433 72.9646 102.678 72.9479 102.92 72.9793C103.161 73.0107 103.394 73.0895 103.605 73.2113C103.816 73.333 104 73.4953 104.148 73.6887C104.296 73.8821 104.404 74.1029 104.467 74.3383C104.529 74.5738 104.544 74.8192 104.511 75.0604C104.478 75.3017 104.398 75.534 104.275 75.7441L101.629 80.3265C101.467 80.6075 101.233 80.8408 100.952 81.0028C100.671 81.1649 100.353 81.2501 100.028 81.2497Z" fill="url(#paint22_linear_894_471)"/>
</g>
</g>
<g filter="url(#filter13_d_894_471)">
<path d="M64.2148 107.106C64.2148 98.4707 71.2734 91.4664 79.9755 91.4874C88.6776 91.4874 95.7362 98.4916 95.7151 107.127C95.7151 115.762 88.6565 122.745 79.9755 122.745C71.2734 122.724 64.2148 115.741 64.2148 107.106Z" fill="url(#paint23_linear_894_471)"/>
</g>
<g filter="url(#filter14_d_894_471)">
<path d="M111.788 164.883C111.788 167.391 110.101 169.444 108.039 169.444H51.8932C49.8314 169.444 48.1445 167.391 48.1445 164.883C48.1445 143.52 62.4102 126.162 79.9455 126.162C97.4808 126.162 111.788 143.52 111.788 164.883Z" fill="url(#paint24_linear_894_471)"/>
</g>
</g>
<defs>
<filter id="filter0_d_894_471" x="0.234709" y="0.366707" width="165.155" height="181.101" filterUnits="userSpaceOnUse" color-interpolation-filters="sRGB">
<feFlood flood-opacity="0" result="BackgroundImageFix"/>
<feColorMatrix in="SourceAlpha" type="matrix" values="0 0 0 0 0 0 0 0 0 0 0 0 0 0 0 0 0 0 127 0" result="hardAlpha"/>
<feOffset dx="2.84749" dy="3.41699"/>
<feGaussianBlur stdDeviation="4.27123"/>
<feComposite in2="hardAlpha" operator="out"/>
<feColorMatrix type="matrix" values="0 0 0 0 0.04875 0 0 0 0 0.173508 0 0 0 0 0.325 0 0 0 0.2 0"/>
<feBlend mode="normal" in2="BackgroundImageFix" result="effect1_dropShadow_894_471"/>
<feBlend mode="normal" in="SourceGraphic" in2="effect1_dropShadow_894_471" result="shape"/>
</filter>
<filter id="filter1_d_894_471" x="72.6699" y="61.9851" width="20.0334" height="25.3264" filterUnits="userSpaceOnUse" color-interpolation-filters="sRGB">
<feFlood flood-opacity="0" result="BackgroundImageFix"/>
<feColorMatrix in="SourceAlpha" type="matrix" values="0 0 0 0 0 0 0 0 0 0 0 0 0 0 0 0 0 0 127 0" result="hardAlpha"/>
<feOffset dx="2.72367" dy="3.2684"/>
<feGaussianBlur stdDeviation="4.0855"/>
<feComposite in2="hardAlpha" operator="out"/>
<feColorMatrix type="matrix" values="0 0 0 0 0.04875 0 0 0 0 0.173508 0 0 0 0 0.325 0 0 0 0.6 0"/>
<feBlend mode="normal" in2="BackgroundImageFix" result="effect1_dropShadow_894_471"/>
<feBlend mode="normal" in="SourceGraphic" in2="effect1_dropShadow_894_471" result="shape"/>
</filter>
<filter id="filter2_d_894_471" x="49.9667" y="68.0818" width="22.6779" height="24.6066" filterUnits="userSpaceOnUse" color-interpolation-filters="sRGB">
<feFlood flood-opacity="0" result="BackgroundImageFix"/>
<feColorMatrix in="SourceAlpha" type="matrix" values="0 0 0 0 0 0 0 0 0 0 0 0 0 0 0 0 0 0 127 0" result="hardAlpha"/>
<feOffset dx="2.72367" dy="3.2684"/>
<feGaussianBlur stdDeviation="4.0855"/>
<feComposite in2="hardAlpha" operator="out"/>
<feColorMatrix type="matrix" values="0 0 0 0 0.04875 0 0 0 0 0.173508 0 0 0 0 0.325 0 0 0 0.6 0"/>
<feBlend mode="normal" in2="BackgroundImageFix" result="effect1_dropShadow_894_471"/>
<feBlend mode="normal" in="SourceGraphic" in2="effect1_dropShadow_894_471" result="shape"/>
</filter>
<filter id="filter3_d_894_471" x="33.3222" y="84.6902" width="24.6311" height="22.6877" filterUnits="userSpaceOnUse" color-interpolation-filters="sRGB">
<feFlood flood-opacity="0" result="BackgroundImageFix"/>
<feColorMatrix in="SourceAlpha" type="matrix" values="0 0 0 0 0 0 0 0 0 0 0 0 0 0 0 0 0 0 127 0" result="hardAlpha"/>
<feOffset dx="2.72367" dy="3.2684"/>
<feGaussianBlur stdDeviation="4.0855"/>
<feComposite in2="hardAlpha" operator="out"/>
<feColorMatrix type="matrix" values="0 0 0 0 0.04875 0 0 0 0 0.173508 0 0 0 0 0.325 0 0 0 0.6 0"/>
<feBlend mode="normal" in2="BackgroundImageFix" result="effect1_dropShadow_894_471"/>
<feBlend mode="normal" in="SourceGraphic" in2="effect1_dropShadow_894_471" result="shape"/>
</filter>
<filter id="filter4_d_894_471" x="27.248" y="107.407" width="25.3264" height="20.0344" filterUnits="userSpaceOnUse" color-interpolation-filters="sRGB">
<feFlood flood-opacity="0" result="BackgroundImageFix"/>
<feColorMatrix in="SourceAlpha" type="matrix" values="0 0 0 0 0 0 0 0 0 0 0 0 0 0 0 0 0 0 127 0" result="hardAlpha"/>
<feOffset dx="2.72367" dy="3.2684"/>
<feGaussianBlur stdDeviation="4.0855"/>
<feComposite in2="hardAlpha" operator="out"/>
<feColorMatrix type="matrix" values="0 0 0 0 0.04875 0 0 0 0 0.173508 0 0 0 0 0.325 0 0 0 0.6 0"/>
<feBlend mode="normal" in2="BackgroundImageFix" result="effect1_dropShadow_894_471"/>
<feBlend mode="normal" in="SourceGraphic" in2="effect1_dropShadow_894_471" result="shape"/>
</filter>
<filter id="filter5_d_894_471" x="33.3339" y="127.478" width="24.6076" height="22.675" filterUnits="userSpaceOnUse" color-interpolation-filters="sRGB">
<feFlood flood-opacity="0" result="BackgroundImageFix"/>
<feColorMatrix in="SourceAlpha" type="matrix" values="0 0 0 0 0 0 0 0 0 0 0 0 0 0 0 0 0 0 127 0" result="hardAlpha"/>
<feOffset dx="2.72367" dy="3.2684"/>
<feGaussianBlur stdDeviation="4.0855"/>
<feComposite in2="hardAlpha" operator="out"/>
<feColorMatrix type="matrix" values="0 0 0 0 0.04875 0 0 0 0 0.173508 0 0 0 0 0.325 0 0 0 0.6 0"/>
<feBlend mode="normal" in2="BackgroundImageFix" result="effect1_dropShadow_894_471"/>
<feBlend mode="normal" in="SourceGraphic" in2="effect1_dropShadow_894_471" result="shape"/>
</filter>
<filter id="filter6_d_894_471" x="49.9589" y="142.15" width="22.6857" height="24.6281" filterUnits="userSpaceOnUse" color-interpolation-filters="sRGB">
<feFlood flood-opacity="0" result="BackgroundImageFix"/>
<feColorMatrix in="SourceAlpha" type="matrix" values="0 0 0 0 0 0 0 0 0 0 0 0 0 0 0 0 0 0 127 0" result="hardAlpha"/>
<feOffset dx="2.72367" dy="3.2684"/>
<feGaussianBlur stdDeviation="4.0855"/>
<feComposite in2="hardAlpha" operator="out"/>
<feColorMatrix type="matrix" values="0 0 0 0 0.04875 0 0 0 0 0.173508 0 0 0 0 0.325 0 0 0 0.6 0"/>
<feBlend mode="normal" in2="BackgroundImageFix" result="effect1_dropShadow_894_471"/>
<feBlend mode="normal" in="SourceGraphic" in2="effect1_dropShadow_894_471" result="shape"/>
</filter>
<filter id="filter7_d_894_471" x="72.6699" y="147.537" width="20.0334" height="25.3264" filterUnits="userSpaceOnUse" color-interpolation-filters="sRGB">
<feFlood flood-opacity="0" result="BackgroundImageFix"/>
<feColorMatrix in="SourceAlpha" type="matrix" values="0 0 0 0 0 0 0 0 0 0 0 0 0 0 0 0 0 0 127 0" result="hardAlpha"/>
<feOffset dx="2.72367" dy="3.2684"/>
<feGaussianBlur stdDeviation="4.0855"/>
<feComposite in2="hardAlpha" operator="out"/>
<feColorMatrix type="matrix" values="0 0 0 0 0.04875 0 0 0 0 0.173508 0 0 0 0 0.325 0 0 0 0.6 0"/>
<feBlend mode="normal" in2="BackgroundImageFix" result="effect1_dropShadow_894_471"/>
<feBlend mode="normal" in="SourceGraphic" in2="effect1_dropShadow_894_471" result="shape"/>
</filter>
<filter id="filter8_d_894_471" x="92.7402" y="142.172" width="22.674" height="24.6066" filterUnits="userSpaceOnUse" color-interpolation-filters="sRGB">
<feFlood flood-opacity="0" result="BackgroundImageFix"/>
<feColorMatrix in="SourceAlpha" type="matrix" values="0 0 0 0 0 0 0 0 0 0 0 0 0 0 0 0 0 0 127 0" result="hardAlpha"/>
<feOffset dx="2.72367" dy="3.2684"/>
<feGaussianBlur stdDeviation="4.0855"/>
<feComposite in2="hardAlpha" operator="out"/>
<feColorMatrix type="matrix" values="0 0 0 0 0.04875 0 0 0 0 0.173508 0 0 0 0 0.325 0 0 0 0.6 0"/>
<feBlend mode="normal" in2="BackgroundImageFix" result="effect1_dropShadow_894_471"/>
<feBlend mode="normal" in="SourceGraphic" in2="effect1_dropShadow_894_471" result="shape"/>
</filter>
<filter id="filter9_d_894_471" x="107.432" y="127.478" width="24.6076" height="22.675" filterUnits="userSpaceOnUse" color-interpolation-filters="sRGB">
<feFlood flood-opacity="0" result="BackgroundImageFix"/>
<feColorMatrix in="SourceAlpha" type="matrix" values="0 0 0 0 0 0 0 0 0 0 0 0 0 0 0 0 0 0 127 0" result="hardAlpha"/>
<feOffset dx="2.72367" dy="3.2684"/>
<feGaussianBlur stdDeviation="4.0855"/>
<feComposite in2="hardAlpha" operator="out"/>
<feColorMatrix type="matrix" values="0 0 0 0 0.04875 0 0 0 0 0.173508 0 0 0 0 0.325 0 0 0 0.6 0"/>
<feBlend mode="normal" in2="BackgroundImageFix" result="effect1_dropShadow_894_471"/>
<feBlend mode="normal" in="SourceGraphic" in2="effect1_dropShadow_894_471" result="shape"/>
</filter>
<filter id="filter10_d_894_471" x="112.799" y="107.407" width="25.3264" height="20.0344" filterUnits="userSpaceOnUse" color-interpolation-filters="sRGB">
<feFlood flood-opacity="0" result="BackgroundImageFix"/>
<feColorMatrix in="SourceAlpha" type="matrix" values="0 0 0 0 0 0 0 0 0 0 0 0 0 0 0 0 0 0 127 0" result="hardAlpha"/>
<feOffset dx="2.72367" dy="3.2684"/>
<feGaussianBlur stdDeviation="4.0855"/>
<feComposite in2="hardAlpha" operator="out"/>
<feColorMatrix type="matrix" values="0 0 0 0 0.04875 0 0 0 0 0.173508 0 0 0 0 0.325 0 0 0 0.6 0"/>
<feBlend mode="normal" in2="BackgroundImageFix" result="effect1_dropShadow_894_471"/>
<feBlend mode="normal" in="SourceGraphic" in2="effect1_dropShadow_894_471" result="shape"/>
</filter>
<filter id="filter11_d_894_471" x="107.424" y="84.6902" width="24.6311" height="22.6877" filterUnits="userSpaceOnUse" color-interpolation-filters="sRGB">
<feFlood flood-opacity="0" result="BackgroundImageFix"/>
<feColorMatrix in="SourceAlpha" type="matrix" values="0 0 0 0 0 0 0 0 0 0 0 0 0 0 0 0 0 0 127 0" result="hardAlpha"/>
<feOffset dx="2.72367" dy="3.2684"/>
<feGaussianBlur stdDeviation="4.0855"/>
<feComposite in2="hardAlpha" operator="out"/>
<feColorMatrix type="matrix" values="0 0 0 0 0.04875 0 0 0 0 0.173508 0 0 0 0 0.325 0 0 0 0.6 0"/>
<feBlend mode="normal" in2="BackgroundImageFix" result="effect1_dropShadow_894_471"/>
<feBlend mode="normal" in="SourceGraphic" in2="effect1_dropShadow_894_471" result="shape"/>
</filter>
<filter id="filter12_d_894_471" x="92.7363" y="68.0613" width="22.6857" height="24.6281" filterUnits="userSpaceOnUse" color-interpolation-filters="sRGB">
<feFlood flood-opacity="0" result="BackgroundImageFix"/>
<feColorMatrix in="SourceAlpha" type="matrix" values="0 0 0 0 0 0 0 0 0 0 0 0 0 0 0 0 0 0 127 0" result="hardAlpha"/>
<feOffset dx="2.72367" dy="3.2684"/>
<feGaussianBlur stdDeviation="4.0855"/>
<feComposite in2="hardAlpha" operator="out"/>
<feColorMatrix type="matrix" values="0 0 0 0 0.04875 0 0 0 0 0.173508 0 0 0 0 0.325 0 0 0 0.6 0"/>
<feBlend mode="normal" in2="BackgroundImageFix" result="effect1_dropShadow_894_471"/>
<feBlend mode="normal" in="SourceGraphic" in2="effect1_dropShadow_894_471" result="shape"/>
</filter>
<filter id="filter13_d_894_471" x="58.5199" y="86.3618" width="48.5849" height="48.3427" filterUnits="userSpaceOnUse" color-interpolation-filters="sRGB">
<feFlood flood-opacity="0" result="BackgroundImageFix"/>
<feColorMatrix in="SourceAlpha" type="matrix" values="0 0 0 0 0 0 0 0 0 0 0 0 0 0 0 0 0 0 127 0" result="hardAlpha"/>
<feOffset dx="2.84749" dy="3.41699"/>
<feGaussianBlur stdDeviation="4.27123"/>
<feComposite in2="hardAlpha" operator="out"/>
<feColorMatrix type="matrix" values="0 0 0 0 0.04875 0 0 0 0 0.173508 0 0 0 0 0.325 0 0 0 0.6 0"/>
<feBlend mode="normal" in2="BackgroundImageFix" result="effect1_dropShadow_894_471"/>
<feBlend mode="normal" in="SourceGraphic" in2="effect1_dropShadow_894_471" result="shape"/>
</filter>
<filter id="filter14_d_894_471" x="42.4496" y="121.037" width="80.7295" height="60.3672" filterUnits="userSpaceOnUse" color-interpolation-filters="sRGB">
<feFlood flood-opacity="0" result="BackgroundImageFix"/>
<feColorMatrix in="SourceAlpha" type="matrix" values="0 0 0 0 0 0 0 0 0 0 0 0 0 0 0 0 0 0 127 0" result="hardAlpha"/>
<feOffset dx="2.84749" dy="3.41699"/>
<feGaussianBlur stdDeviation="4.27123"/>
<feComposite in2="hardAlpha" operator="out"/>
<feColorMatrix type="matrix" values="0 0 0 0 0.04875 0 0 0 0 0.173508 0 0 0 0 0.325 0 0 0 0.6 0"/>
<feBlend mode="normal" in2="BackgroundImageFix" result="effect1_dropShadow_894_471"/>
<feBlend mode="normal" in="SourceGraphic" in2="effect1_dropShadow_894_471" result="shape"/>
</filter>
<linearGradient id="paint0_linear_894_471" x1="0.234708" y1="44.2178" x2="149.443" y2="164.951" gradientUnits="userSpaceOnUse">
<stop offset="0.00624508" stop-color="#E0F0FF"/>
<stop offset="1" stop-color="#9FD1FF"/>
</linearGradient>
<linearGradient id="paint1_linear_894_471" x1="35.4163" y1="-8.72484" x2="133.594" y2="79.9073" gradientUnits="userSpaceOnUse">
<stop stop-color="#3DA3FF"/>
<stop offset="1" stop-color="#0056A3"/>
</linearGradient>
<linearGradient id="paint2_linear_894_471" x1="122.689" y1="28.7498" x2="140.707" y2="45.0159" gradientUnits="userSpaceOnUse">
<stop stop-color="#004D8C"/>
<stop offset="1" stop-color="#3B9FF2"/>
</linearGradient>
<linearGradient id="paint3_linear_894_471" x1="124.73" y1="31.0111" x2="138.248" y2="43.2182" gradientUnits="userSpaceOnUse">
<stop stop-color="#002945"/>
<stop offset="1" stop-color="#00558F"/>
</linearGradient>
<linearGradient id="paint4_linear_894_471" x1="71.7907" y1="28.7498" x2="89.8086" y2="45.0159" gradientUnits="userSpaceOnUse">
<stop stop-color="#004D8C"/>
<stop offset="1" stop-color="#3B9FF2"/>
</linearGradient>
<linearGradient id="paint5_linear_894_471" x1="73.8311" y1="5.49264" x2="88.5242" y2="43.6698" gradientUnits="userSpaceOnUse">
<stop stop-color="#002945"/>
<stop offset="1" stop-color="#00558F"/>
</linearGradient>
<linearGradient id="paint6_linear_894_471" x1="20.8884" y1="28.7498" x2="38.9062" y2="45.0159" gradientUnits="userSpaceOnUse">
<stop stop-color="#004D8C"/>
<stop offset="1" stop-color="#3B9FF2"/>
</linearGradient>
<linearGradient id="paint7_linear_894_471" x1="22.9327" y1="5.49264" x2="37.6258" y2="43.6698" gradientUnits="userSpaceOnUse">
<stop stop-color="#002945"/>
<stop offset="1" stop-color="#00558F"/>
</linearGradient>
<linearGradient id="paint8_linear_894_471" x1="125.503" y1="5.39293" x2="146.975" y2="12.355" gradientUnits="userSpaceOnUse">
<stop offset="0.00624508" stop-color="#ECF6FF"/>
<stop offset="1" stop-color="#7EC1FF"/>
</linearGradient>
<linearGradient id="paint9_linear_894_471" x1="74.6042" y1="5.39293" x2="96.0767" y2="12.355" gradientUnits="userSpaceOnUse">
<stop offset="0.00624508" stop-color="#ECF6FF"/>
<stop offset="1" stop-color="#7EC1FF"/>
</linearGradient>
<linearGradient id="paint10_linear_894_471" x1="23.7058" y1="5.39293" x2="45.1782" y2="12.355" gradientUnits="userSpaceOnUse">
<stop offset="0.00624508" stop-color="#ECF6FF"/>
<stop offset="1" stop-color="#7EC1FF"/>
</linearGradient>
<linearGradient id="paint11_linear_894_471" x1="80.4643" y1="71.3798" x2="75.5407" y2="64.8307" gradientUnits="userSpaceOnUse">
<stop stop-color="#004085"/>
<stop offset="1" stop-color="#68ADFD"/>
</linearGradient>
<linearGradient id="paint12_linear_894_471" x1="59.4401" y1="77.1169" x2="56.1696" y2="69.0055" gradientUnits="userSpaceOnUse">
<stop stop-color="#004085"/>
<stop offset="1" stop-color="#68ADFD"/>
</linearGradient>
<linearGradient id="paint13_linear_894_471" x1="44.0368" y1="92.7654" x2="42.4148" y2="85.9095" gradientUnits="userSpaceOnUse">
<stop stop-color="#004085"/>
<stop offset="1" stop-color="#68ADFD"/>
</linearGradient>
<linearGradient id="paint14_linear_894_471" x1="38.4055" y1="114.156" x2="37.8788" y2="110.01" gradientUnits="userSpaceOnUse">
<stop stop-color="#004085"/>
<stop offset="1" stop-color="#68ADFD"/>
</linearGradient>
<linearGradient id="paint15_linear_894_471" x1="44.0347" y1="135.547" x2="42.4147" y2="128.705" gradientUnits="userSpaceOnUse">
<stop stop-color="#004085"/>
<stop offset="1" stop-color="#68ADFD"/>
</linearGradient>
<linearGradient id="paint16_linear_894_471" x1="59.4386" y1="151.196" x2="56.1575" y2="143.066" gradientUnits="userSpaceOnUse">
<stop stop-color="#004085"/>
<stop offset="1" stop-color="#68ADFD"/>
</linearGradient>
<linearGradient id="paint17_linear_894_471" x1="80.4643" y1="156.932" x2="75.5407" y2="150.382" gradientUnits="userSpaceOnUse">
<stop stop-color="#004085"/>
<stop offset="1" stop-color="#68ADFD"/>
</linearGradient>
<linearGradient id="paint18_linear_894_471" x1="102.212" y1="151.207" x2="98.9412" y2="143.096" gradientUnits="userSpaceOnUse">
<stop stop-color="#004085"/>
<stop offset="1" stop-color="#68ADFD"/>
</linearGradient>
<linearGradient id="paint19_linear_894_471" x1="118.132" y1="135.547" x2="116.513" y2="128.705" gradientUnits="userSpaceOnUse">
<stop stop-color="#004085"/>
<stop offset="1" stop-color="#68ADFD"/>
</linearGradient>
<linearGradient id="paint20_linear_894_471" x1="123.956" y1="114.156" x2="123.43" y2="110.01" gradientUnits="userSpaceOnUse">
<stop stop-color="#004085"/>
<stop offset="1" stop-color="#68ADFD"/>
</linearGradient>
<linearGradient id="paint21_linear_894_471" x1="118.138" y1="92.7654" x2="116.516" y2="85.9095" gradientUnits="userSpaceOnUse">
<stop stop-color="#004085"/>
<stop offset="1" stop-color="#68ADFD"/>
</linearGradient>
<linearGradient id="paint22_linear_894_471" x1="102.216" y1="77.1068" x2="98.9351" y2="68.977" gradientUnits="userSpaceOnUse">
<stop stop-color="#004085"/>
<stop offset="1" stop-color="#68ADFD"/>
</linearGradient>
<linearGradient id="paint23_linear_894_471" x1="84.2356" y1="107.116" x2="74.2397" y2="74.5174" gradientUnits="userSpaceOnUse">
<stop stop-color="#004085"/>
<stop offset="1" stop-color="#68ADFD"/>
</linearGradient>
<linearGradient id="paint24_linear_894_471" x1="88.5947" y1="147.803" x2="78.656" y2="100.509" gradientUnits="userSpaceOnUse">
<stop stop-color="#004085"/>
<stop offset="1" stop-color="#68ADFD"/>
</linearGradient>
<clipPath id="clip0_894_471">
<rect width="94.5366" height="94.5366" fill="white" transform="translate(32.6953 66.8877)"/>
</clipPath>
</defs>
</svg>
