<svg width="189" height="189" viewBox="0 0 189 189" fill="none" xmlns="http://www.w3.org/2000/svg">
<g filter="url(#filter0_d_894_3502)">
<rect x="10" y="9" width="159" height="159" rx="13.7543" fill="white"/>
<g filter="url(#filter1_d_894_3502)">
<path d="M144.757 137.215C142.561 80.9079 97.0568 35.4232 40.7709 33.2289C38.6543 33.1464 36.9108 34.8469 36.919 36.9652L36.9636 48.227C36.9702 50.2479 38.58 51.9006 40.5992 51.9881C86.7625 54.009 123.979 91.2154 126 137.389C126.087 139.408 127.742 141.016 129.761 141.024L141.023 141.069C143.139 141.075 144.84 139.332 144.757 137.215ZM60.2187 117.768C54.3822 111.931 44.9217 111.931 39.0852 117.768C33.2488 123.604 33.2488 133.064 39.0852 138.901C44.9217 144.737 54.3822 144.737 60.2187 138.901C66.0551 133.065 66.0551 123.604 60.2187 117.768ZM107.482 137.428C105.281 101.569 76.3774 72.7022 40.5579 70.5046C38.4116 70.3725 36.6268 72.0847 36.6417 74.2327L36.716 85.5308C36.7292 87.4989 38.258 89.1598 40.2244 89.3035C66.0667 91.1824 86.8088 111.977 88.6811 137.76C88.8247 139.727 90.484 141.257 92.4537 141.269L103.752 141.343C105.902 141.359 107.614 139.571 107.482 137.428Z" fill="url(#paint0_linear_894_3502)"/>
</g>
</g>
<defs>
<filter id="filter0_d_894_3502" x="0" y="0" width="189" height="189" filterUnits="userSpaceOnUse" color-interpolation-filters="sRGB">
<feFlood flood-opacity="0" result="BackgroundImageFix"/>
<feColorMatrix in="SourceAlpha" type="matrix" values="0 0 0 0 0 0 0 0 0 0 0 0 0 0 0 0 0 0 127 0" result="hardAlpha"/>
<feOffset dx="5" dy="6"/>
<feGaussianBlur stdDeviation="7.5"/>
<feComposite in2="hardAlpha" operator="out"/>
<feColorMatrix type="matrix" values="0 0 0 0 0.04875 0 0 0 0 0.173508 0 0 0 0 0.325 0 0 0 0.2 0"/>
<feBlend mode="normal" in2="BackgroundImageFix" result="effect1_dropShadow_894_3502"/>
<feBlend mode="normal" in="SourceGraphic" in2="effect1_dropShadow_894_3502" result="shape"/>
</filter>
<filter id="filter1_d_894_3502" x="30.3174" y="29.2749" width="123.224" height="123.222" filterUnits="userSpaceOnUse" color-interpolation-filters="sRGB">
<feFlood flood-opacity="0" result="BackgroundImageFix"/>
<feColorMatrix in="SourceAlpha" type="matrix" values="0 0 0 0 0 0 0 0 0 0 0 0 0 0 0 0 0 0 127 0" result="hardAlpha"/>
<feOffset dx="2.19484" dy="2.63381"/>
<feGaussianBlur stdDeviation="3.29226"/>
<feComposite in2="hardAlpha" operator="out"/>
<feColorMatrix type="matrix" values="0 0 0 0 0.04875 0 0 0 0 0.173508 0 0 0 0 0.325 0 0 0 0.6 0"/>
<feBlend mode="normal" in2="BackgroundImageFix" result="effect1_dropShadow_894_3502"/>
<feBlend mode="normal" in="SourceGraphic" in2="effect1_dropShadow_894_3502" result="shape"/>
</filter>
<linearGradient id="paint0_linear_894_3502" x1="91.9189" y1="191.735" x2="127.855" y2="-7.28383" gradientUnits="userSpaceOnUse">
<stop stop-color="#004085"/>
<stop offset="1" stop-color="#68ADFD"/>
</linearGradient>
</defs>
</svg>
