<svg width="174" height="193" viewBox="0 0 174 193" fill="none" xmlns="http://www.w3.org/2000/svg">
<g filter="url(#filter0_d_923_7267)">
<path d="M18.7163 9.57498C14.5794 10.8551 11.8885 15.4157 12.8123 19.5763C13.736 23.6568 16.7884 26.3772 20.9654 26.8173L23.1342 27.0173L25.1825 34.2982C26.3473 38.2988 27.271 41.7792 27.271 42.0592C27.271 42.2993 26.5079 42.6993 25.5842 42.9794C20.7244 44.2595 14.7803 49.0602 12.491 53.5408C9.88037 58.7414 10.0009 56.9412 10.0009 93.666V126.99L11.0049 130.031C13.6959 137.992 20.2023 143.353 28.998 144.753L30.4841 144.993V157.194V169.396L31.4881 170.396C32.2111 171.116 32.7332 171.316 33.3758 171.116C33.8578 170.996 40.324 165.275 47.8345 158.395C55.3049 151.554 61.9318 145.753 62.5342 145.473C63.3375 145.113 72.2135 144.993 98.6007 144.953C118.481 144.953 134.466 144.793 135.551 144.593C143.985 142.993 150.853 136.872 153.022 129.031C153.745 126.55 153.785 124.27 153.785 93.546C153.785 57.3813 153.865 58.4214 151.295 53.6208C148.845 49.0602 144.387 45.1797 139.728 43.4995C138.643 43.0994 137.72 42.6993 137.72 42.5793C137.72 42.4193 138.684 38.9388 139.848 34.7383L142.017 27.1373L144.146 26.8173C146.957 26.4172 148.644 25.5771 150.331 23.7368C153.544 20.1764 153.303 15.0957 149.769 11.6553C147.198 9.17494 144.387 8.45482 141.174 9.45496C138.443 10.3351 137.198 11.2952 135.832 13.6555C133.663 17.296 134.748 22.4967 138.121 25.017C138.804 25.4971 139.326 26.1772 139.326 26.4972C139.326 26.8573 138.322 30.4577 137.157 34.5383L135.029 41.9392L82.7363 42.0592L30.4841 42.1393L30.0824 41.2592C29.8816 40.7391 28.7972 37.1386 27.6726 33.2581L25.6645 26.1372L27.3112 24.657C29.3997 22.7767 30.4439 20.5364 30.4841 18.0161C30.4841 14.1756 27.8735 10.5751 24.2989 9.53496C21.8891 8.81487 21.2064 8.81488 18.7163 9.57498ZM57.9958 69.7029C61.8916 71.5031 64.8235 75.2636 66.0686 79.9442C67.1128 83.7847 66.671 86.1451 64.944 86.1451C64.0203 86.1451 63.5785 85.2249 63.2973 82.5446C63.1367 81.3444 62.4941 79.2241 61.8113 77.864C59.0802 72.3832 53.9393 70.343 49.0394 72.7833C45.5051 74.5435 43.2559 78.104 42.6535 82.9046C42.292 85.705 41.4888 86.7051 40.2437 85.905C38.7577 84.9849 39.3601 79.9842 41.4084 76.0237C43.6576 71.5831 48.3566 68.5427 52.9754 68.5427C55.0237 68.5427 56.1081 68.7828 57.9958 69.7029ZM112.216 69.7029C116.634 71.7832 119.767 76.4238 120.57 82.0245C121.052 85.1049 120.69 86.1451 119.245 86.1451C118.2 86.1451 117.799 85.3849 117.477 83.1447C116.152 72.9433 107.075 68.2627 100.77 74.5435C98.6007 76.6638 97.677 78.504 97.1147 81.6645C96.4721 85.2249 96.1909 85.945 95.4278 86.065C93.018 86.5451 92.8976 81.8645 95.1467 76.9838C96.7131 73.6234 99.9663 70.343 102.818 69.2628C105.71 68.1827 109.364 68.3427 112.216 69.7029ZM67.4341 101.467C67.4341 103.507 68.5587 107.588 69.6833 109.788C70.9685 112.348 73.5389 114.909 75.9086 116.069C78.5192 117.349 82.8166 117.309 85.4272 115.989C90.0058 113.629 93.5402 107.868 93.5402 102.707C93.5402 99.9069 95.6286 98.4667 96.7532 100.547C96.954 100.947 96.954 102.267 96.7131 103.907C95.1869 114.749 87.3551 121.59 78.1979 120.11C73.298 119.309 68.9202 115.709 66.4301 110.428C64.9842 107.388 63.9399 102.507 64.3817 100.827C64.8637 98.7867 67.4341 99.3068 67.4341 101.467Z" fill="url(#paint0_linear_923_7267)"/>
</g>
<defs>
<filter id="filter0_d_923_7267" x="0" y="0" width="173.785" height="192.189" filterUnits="userSpaceOnUse" color-interpolation-filters="sRGB">
<feFlood flood-opacity="0" result="BackgroundImageFix"/>
<feColorMatrix in="SourceAlpha" type="matrix" values="0 0 0 0 0 0 0 0 0 0 0 0 0 0 0 0 0 0 127 0" result="hardAlpha"/>
<feOffset dx="5" dy="6"/>
<feGaussianBlur stdDeviation="7.5"/>
<feComposite in2="hardAlpha" operator="out"/>
<feColorMatrix type="matrix" values="0 0 0 0 0.04875 0 0 0 0 0.173508 0 0 0 0 0.325 0 0 0 0.3 0"/>
<feBlend mode="normal" in2="BackgroundImageFix" result="effect1_dropShadow_923_7267"/>
<feBlend mode="normal" in="SourceGraphic" in2="effect1_dropShadow_923_7267" result="shape"/>
</filter>
<linearGradient id="paint0_linear_923_7267" x1="101.386" y1="90.0946" x2="43.872" y2="255.099" gradientUnits="userSpaceOnUse">
<stop stop-color="#004085"/>
<stop offset="1" stop-color="#68ADFD"/>
</linearGradient>
</defs>
</svg>
