<svg width="100" height="100" viewBox="0 0 100 100" fill="none" xmlns="http://www.w3.org/2000/svg">
<rect width="100" height="100" rx="10" fill="white" fill-opacity="0.6"/>
<path fill-rule="evenodd" clip-rule="evenodd" d="M21.862 22.5398C23.475 20.9268 26.0901 20.9268 27.7031 22.5398L49.5641 44.4008L71.425 22.5398C73.0379 20.9268 75.6531 20.9268 77.2661 22.5398C78.879 24.1528 78.879 26.7679 77.2661 28.3809L55.4051 50.2418L77.2661 72.1028C78.879 73.7157 78.879 76.3308 77.2661 77.9438C75.6531 79.5567 73.0379 79.5567 71.425 77.9438L49.5641 56.0829L27.7031 77.9438C26.0901 79.5567 23.475 79.5567 21.862 77.9438C20.2491 76.3308 20.2491 73.7157 21.862 72.1028L43.723 50.2418L21.862 28.3809C20.2491 26.7679 20.2491 24.1528 21.862 22.5398Z" fill="#3772C0"/>
</svg>
