<svg width="20" height="21" viewBox="0 0 20 21" fill="none" xmlns="http://www.w3.org/2000/svg">
<path d="M19.6707 18.4432L15.2786 14.0495C16.5955 12.3335 17.2103 10.1808 16.9983 8.02822C16.7864 5.87561 15.7635 3.88421 14.1372 2.458C12.5109 1.03179 10.403 0.27756 8.24099 0.348313C6.07902 0.419066 4.02492 1.3095 2.49536 2.83899C0.965797 4.36848 0.0753195 6.42249 0.00456334 8.58436C-0.0661929 10.7462 0.68807 12.8541 2.11435 14.4803C3.54062 16.1065 5.53211 17.1293 7.68483 17.3413C9.83754 17.5533 11.9903 16.9385 13.7064 15.6216L18.1021 20.0181C18.2054 20.1214 18.3279 20.2033 18.4628 20.2591C18.5977 20.315 18.7423 20.3438 18.8883 20.3438C19.0343 20.3438 19.1788 20.315 19.3137 20.2591C19.4486 20.2033 19.5711 20.1214 19.6744 20.0181C19.7776 19.9149 19.8595 19.7924 19.9154 19.6575C19.9712 19.5226 20 19.3781 20 19.2321C20 19.0861 19.9712 18.9415 19.9154 18.8066C19.8595 18.6718 19.7776 18.5492 19.6744 18.446L19.6707 18.4432ZM2.23829 8.87058C2.23829 7.62681 2.60713 6.41096 3.29816 5.3768C3.9892 4.34263 4.9714 3.5366 6.12056 3.06063C7.26971 2.58465 8.53421 2.46012 9.75414 2.70277C10.9741 2.94542 12.0947 3.54435 12.9742 4.42384C13.8537 5.30332 14.4527 6.42385 14.6953 7.64373C14.938 8.86361 14.8134 10.128 14.3375 11.2771C13.8615 12.4262 13.0554 13.4084 12.0212 14.0994C10.987 14.7904 9.77106 15.1592 8.52723 15.1592C6.85982 15.1575 5.2612 14.4944 4.08217 13.3154C2.90313 12.1365 2.24 10.5379 2.23829 8.87058Z" fill="#40424A" fill-opacity="0.5"/>
</svg>
