<svg width="38" height="35" viewBox="0 0 38 35" fill="none" xmlns="http://www.w3.org/2000/svg">
<path d="M16.3613 1.54289V7.82732C16.3613 8.67963 15.6641 9.37022 14.8042 9.37022C11.7359 9.37022 10.0669 12.4891 9.83556 18.6448H14.8042C15.6641 18.6448 16.3613 19.3361 16.3613 20.1881V33.4573C16.3613 34.3092 15.6641 34.9999 14.8042 34.9999H1.55678C0.696475 34.9999 0 34.3087 0 33.4573V20.1881C0 17.2371 0.299795 14.5292 0.890787 12.1385C1.49691 9.68719 2.42732 7.5439 3.65535 5.76797C4.91898 3.94284 6.4996 2.51064 8.35367 1.5129C10.2203 0.50912 12.3909 0 14.8047 0C15.6641 0 16.3613 0.690586 16.3613 1.54289ZM36.4428 9.37032C37.3023 9.37032 38 8.67909 38 7.82743V1.543C38 0.690694 37.3024 0.000107828 36.4428 0.000107828C34.0299 0.000107828 31.859 0.509335 29.993 1.51301C28.1386 2.51075 26.5572 3.94295 25.2933 5.76808C24.0657 7.54401 23.1353 9.6874 22.5291 12.1392C21.9384 14.5307 21.6386 17.2386 21.6386 20.1882V33.4574C21.6386 34.3093 22.336 35 23.1957 35H36.4427C37.3022 35 37.9992 34.3088 37.9992 33.4574V20.1881C37.9992 19.3362 37.3023 18.6448 36.4427 18.6448H31.5449C31.7728 12.4892 33.4174 9.37032 36.4428 9.37032Z" fill="#006DAD"/>
</svg>
