<svg width="116" height="50" viewBox="0 0 116 50" fill="none" xmlns="http://www.w3.org/2000/svg">
<path d="M0 37.1829V25.2578L22.0196 37.1829V49.4062L0 37.1829Z" fill="#0098F2"/>
<path d="M44.041 37.1829V25.2578L22.0215 37.1829V49.4062L44.041 37.1829Z" fill="#003BB6"/>
<path d="M0 16.0157V12.7363L22.0196 24.6614V28.239L0 16.0157Z" fill="#0098F2"/>
<path d="M44.041 16.0157V12.7363L22.0215 24.6614V28.239L44.041 16.0157Z" fill="#003BB6"/>
<path d="M22.0196 0.810547L0 12.7357L22.0196 24.6608L44.0391 12.7357L22.0196 0.810547Z" fill="#68C3F4"/>
<path d="M52.4144 23.3122C52.1104 23.3122 51.8634 23.2425 51.6734 23.1032C51.496 22.9638 51.3884 22.7802 51.3504 22.5522C51.3124 22.3115 51.3567 22.0455 51.4834 21.7542L56.4994 10.6392C56.664 10.2718 56.8604 10.0122 57.0884 9.86016C57.329 9.69549 57.6014 9.61316 57.9054 9.61316C58.1967 9.61316 58.4564 9.69549 58.6844 9.86016C58.925 10.0122 59.1277 10.2718 59.2924 10.6392L64.3274 21.7542C64.4667 22.0455 64.5174 22.3115 64.4794 22.5522C64.4414 22.7928 64.3337 22.9828 64.1564 23.1222C63.979 23.2488 63.7447 23.3122 63.4534 23.3122C63.0987 23.3122 62.82 23.2298 62.6174 23.0652C62.4274 22.8878 62.2564 22.6218 62.1044 22.2672L60.8694 19.3982L61.8954 20.0632H53.8774L54.9034 19.3982L53.6874 22.2672C53.5227 22.6345 53.3517 22.9005 53.1744 23.0652C52.997 23.2298 52.7437 23.3122 52.4144 23.3122ZM57.8674 12.4062L55.2074 18.7332L54.7134 18.1252H61.0594L60.5844 18.7332L57.9054 12.4062H57.8674ZM67.636 23.3122C67.2434 23.3122 66.9394 23.2045 66.724 22.9892C66.5214 22.7612 66.42 22.4508 66.42 22.0582V11.0002C66.42 10.5948 66.5277 10.2908 66.743 10.0882C66.9584 9.87282 67.2624 9.76516 67.655 9.76516H72.234C73.7034 9.76516 74.837 10.1325 75.635 10.8672C76.433 11.6018 76.832 12.6278 76.832 13.9452C76.832 15.2625 76.433 16.2948 75.635 17.0422C74.837 17.7768 73.7034 18.1442 72.234 18.1442H68.852V22.0582C68.852 22.4508 68.7507 22.7612 68.548 22.9892C68.3454 23.2045 68.0414 23.3122 67.636 23.3122ZM68.852 16.2252H71.854C72.7154 16.2252 73.3677 16.0352 73.811 15.6552C74.2544 15.2625 74.476 14.6925 74.476 13.9452C74.476 13.1978 74.2544 12.6342 73.811 12.2542C73.3677 11.8742 72.7154 11.6842 71.854 11.6842H68.852V16.2252ZM80.0306 23.3122C79.6379 23.3122 79.3339 23.2045 79.1186 22.9892C78.9159 22.7612 78.8146 22.4508 78.8146 22.0582V11.0002C78.8146 10.5948 78.9222 10.2908 79.1376 10.0882C79.3529 9.87282 79.6569 9.76516 80.0496 9.76516H84.6286C86.0979 9.76516 87.2316 10.1325 88.0296 10.8672C88.8276 11.6018 89.2266 12.6278 89.2266 13.9452C89.2266 15.2625 88.8276 16.2948 88.0296 17.0422C87.2316 17.7768 86.0979 18.1442 84.6286 18.1442H81.2466V22.0582C81.2466 22.4508 81.1452 22.7612 80.9426 22.9892C80.7399 23.2045 80.4359 23.3122 80.0306 23.3122ZM81.2466 16.2252H84.2486C85.1099 16.2252 85.7622 16.0352 86.2056 15.6552C86.6489 15.2625 86.8706 14.6925 86.8706 13.9452C86.8706 13.1978 86.6489 12.6342 86.2056 12.2542C85.7622 11.8742 85.1099 11.6842 84.2486 11.6842H81.2466V16.2252ZM95.8261 23.3502C95.2688 23.3502 94.7114 23.3058 94.1541 23.2172C93.5968 23.1412 93.0711 23.0208 92.5771 22.8562C92.0831 22.6788 91.6398 22.4635 91.2471 22.2102C91.0191 22.0582 90.8608 21.8745 90.7721 21.6592C90.6834 21.4438 90.6518 21.2348 90.6771 21.0322C90.7151 20.8168 90.7974 20.6332 90.9241 20.4812C91.0634 20.3165 91.2344 20.2152 91.4371 20.1772C91.6398 20.1392 91.8614 20.1962 92.1021 20.3482C92.6594 20.6775 93.2484 20.9182 93.8691 21.0702C94.4898 21.2222 95.1421 21.2982 95.8261 21.2982C96.8268 21.2982 97.5551 21.1335 98.0111 20.8042C98.4671 20.4622 98.6951 20.0252 98.6951 19.4932C98.6951 19.0498 98.5304 18.7015 98.2011 18.4482C97.8844 18.1948 97.3334 17.9858 96.5481 17.8212L94.4581 17.3842C93.2548 17.1308 92.3554 16.7065 91.7601 16.1112C91.1774 15.5032 90.8861 14.7052 90.8861 13.7172C90.8861 13.0965 91.0128 12.5328 91.2661 12.0262C91.5194 11.5195 91.8741 11.0825 92.3301 10.7152C92.7988 10.3478 93.3498 10.0692 93.9831 9.87916C94.6291 9.67649 95.3384 9.57516 96.1111 9.57516C96.8711 9.57516 97.5931 9.67016 98.2771 9.86016C98.9611 10.0502 99.5754 10.3288 100.12 10.6962C100.323 10.8355 100.456 11.0065 100.519 11.2092C100.595 11.4118 100.614 11.6145 100.576 11.8172C100.538 12.0072 100.449 12.1718 100.31 12.3112C100.171 12.4505 99.9934 12.5328 99.7781 12.5582C99.5754 12.5835 99.3411 12.5202 99.0751 12.3682C98.6064 12.1022 98.1314 11.9122 97.6501 11.7982C97.1688 11.6842 96.6494 11.6272 96.0921 11.6272C95.5094 11.6272 95.0091 11.7095 94.5911 11.8742C94.1731 12.0388 93.8501 12.2732 93.6221 12.5772C93.4068 12.8685 93.2991 13.2168 93.2991 13.6222C93.2991 14.0782 93.4511 14.4455 93.7551 14.7242C94.0591 14.9902 94.5784 15.1992 95.3131 15.3512L97.3841 15.7882C98.6381 16.0542 99.5691 16.4722 100.177 17.0422C100.798 17.6122 101.108 18.3722 101.108 19.3222C101.108 19.9302 100.981 20.4812 100.728 20.9752C100.487 21.4692 100.133 21.8935 99.6641 22.2482C99.2081 22.6028 98.6571 22.8752 98.0111 23.0652C97.3651 23.2552 96.6368 23.3502 95.8261 23.3502Z" fill="#FAFAFA"/>
<path d="M53.956 41.1916C53.306 41.1916 52.736 41.0366 52.246 40.7266C51.766 40.4166 51.391 39.9816 51.121 39.4216C50.861 38.8516 50.731 38.1816 50.731 37.4116C50.731 36.6316 50.861 35.9616 51.121 35.4016C51.391 34.8316 51.766 34.3966 52.246 34.0966C52.736 33.7866 53.306 33.6316 53.956 33.6316C54.616 33.6316 55.181 33.7966 55.651 34.1266C56.121 34.4566 56.436 34.9016 56.596 35.4616H56.431V30.9916C56.431 30.7916 56.481 30.6416 56.581 30.5416C56.691 30.4316 56.846 30.3766 57.046 30.3766C57.236 30.3766 57.381 30.4316 57.481 30.5416C57.591 30.6416 57.646 30.7916 57.646 30.9916V40.5316C57.646 40.7316 57.596 40.8866 57.496 40.9966C57.396 41.1066 57.246 41.1616 57.046 41.1616C56.856 41.1616 56.706 41.1066 56.596 40.9966C56.496 40.8866 56.446 40.7316 56.446 40.5316V39.1066L56.611 39.3166C56.451 39.8866 56.131 40.3416 55.651 40.6816C55.181 41.0216 54.616 41.1916 53.956 41.1916ZM54.211 40.2166C54.661 40.2166 55.056 40.1066 55.396 39.8866C55.736 39.6666 55.996 39.3466 56.176 38.9266C56.366 38.5066 56.461 38.0016 56.461 37.4116C56.461 36.5016 56.256 35.8066 55.846 35.3266C55.446 34.8466 54.901 34.6066 54.211 34.6066C53.751 34.6066 53.351 34.7166 53.011 34.9366C52.681 35.1466 52.421 35.4616 52.231 35.8816C52.051 36.2916 51.961 36.8016 51.961 37.4116C51.961 38.3116 52.166 39.0066 52.576 39.4966C52.986 39.9766 53.531 40.2166 54.211 40.2166ZM63.2111 41.1916C62.4411 41.1916 61.7761 41.0416 61.2161 40.7416C60.6661 40.4316 60.2361 39.9966 59.9261 39.4366C59.6261 38.8766 59.4761 38.2066 59.4761 37.4266C59.4761 36.6666 59.6261 36.0066 59.9261 35.4466C60.2261 34.8766 60.6361 34.4316 61.1561 34.1116C61.6861 33.7916 62.2961 33.6316 62.9861 33.6316C63.4761 33.6316 63.9161 33.7166 64.3061 33.8866C64.6961 34.0466 65.0261 34.2816 65.2961 34.5916C65.5761 34.9016 65.7861 35.2766 65.9261 35.7166C66.0761 36.1566 66.1511 36.6516 66.1511 37.2016C66.1511 37.3616 66.1061 37.4816 66.0161 37.5616C65.9261 37.6316 65.7961 37.6666 65.6261 37.6666H60.4061V36.8716H65.3411L65.1011 37.0666C65.1011 36.5266 65.0211 36.0716 64.8611 35.7016C64.7011 35.3216 64.4661 35.0316 64.1561 34.8316C63.8561 34.6316 63.4761 34.5316 63.0161 34.5316C62.5061 34.5316 62.0711 34.6516 61.7111 34.8916C61.3611 35.1216 61.0961 35.4466 60.9161 35.8666C60.7361 36.2766 60.6461 36.7566 60.6461 37.3066V37.3966C60.6461 38.3166 60.8661 39.0166 61.3061 39.4966C61.7561 39.9766 62.3911 40.2166 63.2111 40.2166C63.5511 40.2166 63.8861 40.1716 64.2161 40.0816C64.5561 39.9916 64.8861 39.8416 65.2061 39.6316C65.3461 39.5416 65.4711 39.5016 65.5811 39.5116C65.7011 39.5116 65.7961 39.5466 65.8661 39.6166C65.9361 39.6766 65.9811 39.7566 66.0011 39.8566C66.0311 39.9466 66.0211 40.0466 65.9711 40.1566C65.9311 40.2666 65.8461 40.3616 65.7161 40.4416C65.3861 40.6816 64.9961 40.8666 64.5461 40.9966C64.0961 41.1266 63.6511 41.1916 63.2111 41.1916ZM70.1295 41.1916C69.4095 41.1916 68.8595 40.9716 68.4795 40.5316C68.0995 40.0916 67.9095 39.4616 67.9095 38.6416V30.9916C67.9095 30.7916 67.9595 30.6416 68.0595 30.5416C68.1595 30.4316 68.3095 30.3766 68.5095 30.3766C68.6995 30.3766 68.8495 30.4316 68.9595 30.5416C69.0695 30.6416 69.1245 30.7916 69.1245 30.9916V38.5516C69.1245 39.0916 69.2295 39.4966 69.4395 39.7666C69.6595 40.0266 69.9795 40.1566 70.3995 40.1566C70.4895 40.1566 70.5695 40.1516 70.6395 40.1416C70.7095 40.1316 70.7795 40.1266 70.8495 40.1266C70.9595 40.1166 71.0345 40.1416 71.0745 40.2016C71.1245 40.2616 71.1495 40.3816 71.1495 40.5616C71.1495 40.7416 71.1095 40.8766 71.0295 40.9666C70.9495 41.0566 70.8195 41.1166 70.6395 41.1466C70.5595 41.1566 70.4745 41.1666 70.3845 41.1766C70.2945 41.1866 70.2095 41.1916 70.1295 41.1916ZM72.948 41.1316C72.748 41.1316 72.598 41.0766 72.498 40.9666C72.398 40.8466 72.348 40.6816 72.348 40.4716V34.3366C72.348 34.1266 72.398 33.9666 72.498 33.8566C72.598 33.7466 72.748 33.6916 72.948 33.6916C73.138 33.6916 73.288 33.7466 73.398 33.8566C73.508 33.9666 73.563 34.1266 73.563 34.3366V40.4716C73.563 40.6816 73.508 40.8466 73.398 40.9666C73.298 41.0766 73.148 41.1316 72.948 41.1316ZM72.948 32.0116C72.698 32.0116 72.503 31.9466 72.363 31.8166C72.223 31.6766 72.153 31.4916 72.153 31.2616C72.153 31.0216 72.223 30.8416 72.363 30.7216C72.503 30.5916 72.698 30.5266 72.948 30.5266C73.208 30.5266 73.403 30.5916 73.533 30.7216C73.673 30.8416 73.743 31.0216 73.743 31.2616C73.743 31.4916 73.673 31.6766 73.533 31.8166C73.403 31.9466 73.208 32.0116 72.948 32.0116ZM78.5493 41.1616C78.3793 41.1616 78.2293 41.1166 78.0993 41.0266C77.9693 40.9266 77.8593 40.7766 77.7693 40.5766L75.1743 34.5166C75.1043 34.3666 75.0793 34.2266 75.0993 34.0966C75.1193 33.9666 75.1793 33.8616 75.2793 33.7816C75.3793 33.7016 75.5193 33.6616 75.6993 33.6616C75.8593 33.6616 75.9843 33.6966 76.0743 33.7666C76.1643 33.8366 76.2443 33.9616 76.3143 34.1416L78.7743 40.1566H78.3693L80.8743 34.1416C80.9443 33.9616 81.0243 33.8366 81.1143 33.7666C81.2043 33.6966 81.3343 33.6616 81.5043 33.6616C81.6643 33.6616 81.7843 33.7016 81.8643 33.7816C81.9543 33.8616 82.0043 33.9666 82.0143 34.0966C82.0343 34.2166 82.0143 34.3516 81.9543 34.5016L79.3293 40.5766C79.2593 40.7766 79.1543 40.9266 79.0143 41.0266C78.8843 41.1166 78.7293 41.1616 78.5493 41.1616ZM86.7365 41.1916C85.9665 41.1916 85.3015 41.0416 84.7415 40.7416C84.1915 40.4316 83.7615 39.9966 83.4515 39.4366C83.1515 38.8766 83.0015 38.2066 83.0015 37.4266C83.0015 36.6666 83.1515 36.0066 83.4515 35.4466C83.7515 34.8766 84.1615 34.4316 84.6815 34.1116C85.2115 33.7916 85.8215 33.6316 86.5115 33.6316C87.0015 33.6316 87.4415 33.7166 87.8315 33.8866C88.2215 34.0466 88.5515 34.2816 88.8215 34.5916C89.1015 34.9016 89.3115 35.2766 89.4515 35.7166C89.6015 36.1566 89.6765 36.6516 89.6765 37.2016C89.6765 37.3616 89.6315 37.4816 89.5415 37.5616C89.4515 37.6316 89.3215 37.6666 89.1515 37.6666H83.9315V36.8716H88.8665L88.6265 37.0666C88.6265 36.5266 88.5465 36.0716 88.3865 35.7016C88.2265 35.3216 87.9915 35.0316 87.6815 34.8316C87.3815 34.6316 87.0015 34.5316 86.5415 34.5316C86.0315 34.5316 85.5965 34.6516 85.2365 34.8916C84.8865 35.1216 84.6215 35.4466 84.4415 35.8666C84.2615 36.2766 84.1715 36.7566 84.1715 37.3066V37.3966C84.1715 38.3166 84.3915 39.0166 84.8315 39.4966C85.2815 39.9766 85.9165 40.2166 86.7365 40.2166C87.0765 40.2166 87.4115 40.1716 87.7415 40.0816C88.0815 39.9916 88.4115 39.8416 88.7315 39.6316C88.8715 39.5416 88.9965 39.5016 89.1065 39.5116C89.2265 39.5116 89.3215 39.5466 89.3915 39.6166C89.4615 39.6766 89.5065 39.7566 89.5265 39.8566C89.5565 39.9466 89.5465 40.0466 89.4965 40.1566C89.4565 40.2666 89.3715 40.3616 89.2415 40.4416C88.9115 40.6816 88.5215 40.8666 88.0715 40.9966C87.6215 41.1266 87.1765 41.1916 86.7365 41.1916ZM92.0499 41.1616C91.8499 41.1616 91.6949 41.1066 91.5849 40.9966C91.4849 40.8866 91.4349 40.7316 91.4349 40.5316V34.2766C91.4349 34.0766 91.4849 33.9266 91.5849 33.8266C91.6849 33.7166 91.8299 33.6616 92.0199 33.6616C92.2099 33.6616 92.3549 33.7166 92.4549 33.8266C92.5649 33.9266 92.6199 34.0766 92.6199 34.2766V35.4916H92.4699C92.6299 34.9016 92.9349 34.4466 93.3849 34.1266C93.8349 33.8066 94.3899 33.6366 95.0499 33.6166C95.1999 33.6066 95.3199 33.6416 95.4099 33.7216C95.4999 33.7916 95.5499 33.9166 95.5599 34.0966C95.5699 34.2666 95.5299 34.4016 95.4399 34.5016C95.3499 34.6016 95.2099 34.6616 95.0199 34.6816L94.7799 34.7116C94.0999 34.7716 93.5749 34.9916 93.2049 35.3716C92.8449 35.7416 92.6649 36.2516 92.6649 36.9016V40.5316C92.6649 40.7316 92.6099 40.8866 92.4999 40.9966C92.3999 41.1066 92.2499 41.1616 92.0499 41.1616ZM100.008 41.1916C99.238 41.1916 98.573 41.0416 98.013 40.7416C97.463 40.4316 97.033 39.9966 96.723 39.4366C96.423 38.8766 96.273 38.2066 96.273 37.4266C96.273 36.6666 96.423 36.0066 96.723 35.4466C97.023 34.8766 97.433 34.4316 97.953 34.1116C98.483 33.7916 99.093 33.6316 99.783 33.6316C100.273 33.6316 100.713 33.7166 101.103 33.8866C101.493 34.0466 101.823 34.2816 102.093 34.5916C102.373 34.9016 102.583 35.2766 102.723 35.7166C102.873 36.1566 102.948 36.6516 102.948 37.2016C102.948 37.3616 102.903 37.4816 102.813 37.5616C102.723 37.6316 102.593 37.6666 102.423 37.6666H97.203V36.8716H102.138L101.898 37.0666C101.898 36.5266 101.818 36.0716 101.658 35.7016C101.498 35.3216 101.263 35.0316 100.953 34.8316C100.653 34.6316 100.273 34.5316 99.813 34.5316C99.303 34.5316 98.868 34.6516 98.508 34.8916C98.158 35.1216 97.893 35.4466 97.713 35.8666C97.533 36.2766 97.443 36.7566 97.443 37.3066V37.3966C97.443 38.3166 97.663 39.0166 98.103 39.4966C98.553 39.9766 99.188 40.2166 100.008 40.2166C100.348 40.2166 100.683 40.1716 101.013 40.0816C101.353 39.9916 101.683 39.8416 102.003 39.6316C102.143 39.5416 102.268 39.5016 102.378 39.5116C102.498 39.5116 102.593 39.5466 102.663 39.6166C102.733 39.6766 102.778 39.7566 102.798 39.8566C102.828 39.9466 102.818 40.0466 102.768 40.1566C102.728 40.2666 102.643 40.3616 102.513 40.4416C102.183 40.6816 101.793 40.8666 101.343 40.9966C100.893 41.1266 100.448 41.1916 100.008 41.1916ZM107.481 41.1916C106.831 41.1916 106.261 41.0366 105.771 40.7266C105.291 40.4166 104.916 39.9816 104.646 39.4216C104.386 38.8516 104.256 38.1816 104.256 37.4116C104.256 36.6316 104.386 35.9616 104.646 35.4016C104.916 34.8316 105.291 34.3966 105.771 34.0966C106.261 33.7866 106.831 33.6316 107.481 33.6316C108.141 33.6316 108.706 33.7966 109.176 34.1266C109.646 34.4566 109.961 34.9016 110.121 35.4616H109.956V30.9916C109.956 30.7916 110.006 30.6416 110.106 30.5416C110.216 30.4316 110.371 30.3766 110.571 30.3766C110.761 30.3766 110.906 30.4316 111.006 30.5416C111.116 30.6416 111.171 30.7916 111.171 30.9916V40.5316C111.171 40.7316 111.121 40.8866 111.021 40.9966C110.921 41.1066 110.771 41.1616 110.571 41.1616C110.381 41.1616 110.231 41.1066 110.121 40.9966C110.021 40.8866 109.971 40.7316 109.971 40.5316V39.1066L110.136 39.3166C109.976 39.8866 109.656 40.3416 109.176 40.6816C108.706 41.0216 108.141 41.1916 107.481 41.1916ZM107.736 40.2166C108.186 40.2166 108.581 40.1066 108.921 39.8866C109.261 39.6666 109.521 39.3466 109.701 38.9266C109.891 38.5066 109.986 38.0016 109.986 37.4116C109.986 36.5016 109.781 35.8066 109.371 35.3266C108.971 34.8466 108.426 34.6066 107.736 34.6066C107.276 34.6066 106.876 34.7166 106.536 34.9366C106.206 35.1466 105.946 35.4616 105.756 35.8816C105.576 36.2916 105.486 36.8016 105.486 37.4116C105.486 38.3116 105.691 39.0066 106.101 39.4966C106.511 39.9766 107.056 40.2166 107.736 40.2166Z" fill="#FAFAFA"/>
</svg>
