<svg width="131" height="56" viewBox="0 0 131 56" fill="none" xmlns="http://www.w3.org/2000/svg">
<path d="M0.5 41.6417V28.1611L25.3917 41.6417V55.4593L0.5 41.6417Z" fill="#0098F2"/>
<path d="M50.2852 41.6417V28.1611L25.3935 41.6417V55.4593L50.2852 41.6417Z" fill="#003BB6"/>
<path d="M0.5 17.713V14.0059L25.3917 27.4864V31.5306L0.5 17.713Z" fill="#0098F2"/>
<path d="M50.2852 17.713V14.0059L25.3935 27.4864V31.5306L50.2852 17.713Z" fill="#003BB6"/>
<path d="M25.3917 0.525391L0.5 14.006L25.3917 27.4865L50.2833 14.006L25.3917 0.525391Z" fill="#68C3F4"/>
<path d="M59.9886 26.2922C59.6366 26.2922 59.3506 26.2115 59.1306 26.0502C58.9253 25.8889 58.8006 25.6762 58.7566 25.4122C58.7126 25.1335 58.764 24.8255 58.9106 24.4882L64.7186 11.6182C64.9093 11.1929 65.1366 10.8922 65.4006 10.7162C65.6793 10.5255 65.9946 10.4302 66.3466 10.4302C66.684 10.4302 66.9846 10.5255 67.2486 10.7162C67.5273 10.8922 67.762 11.1929 67.9526 11.6182L73.7826 24.4882C73.944 24.8255 74.0026 25.1335 73.9586 25.4122C73.9146 25.6909 73.79 25.9109 73.5846 26.0722C73.3793 26.2189 73.108 26.2922 72.7706 26.2922C72.36 26.2922 72.0373 26.1969 71.8026 26.0062C71.5826 25.8009 71.3846 25.4929 71.2086 25.0822L69.7786 21.7602L70.9666 22.5302H61.6826L62.8706 21.7602L61.4626 25.0822C61.272 25.5075 61.074 25.8155 60.8686 26.0062C60.6633 26.1969 60.37 26.2922 59.9886 26.2922ZM66.3026 13.6642L63.2226 20.9902L62.6506 20.2862H69.9986L69.4486 20.9902L66.3466 13.6642H66.3026ZM77.6137 26.2922C77.1591 26.2922 76.8071 26.1675 76.5577 25.9182C76.3231 25.6542 76.2057 25.2949 76.2057 24.8402V12.0362C76.2057 11.5669 76.3304 11.2149 76.5797 10.9802C76.8291 10.7309 77.1811 10.6062 77.6357 10.6062H82.9377C84.6391 10.6062 85.9517 11.0315 86.8757 11.8822C87.7997 12.7329 88.2617 13.9209 88.2617 15.4462C88.2617 16.9715 87.7997 18.1669 86.8757 19.0322C85.9517 19.8829 84.6391 20.3082 82.9377 20.3082H79.0217V24.8402C79.0217 25.2949 78.9044 25.6542 78.6697 25.9182C78.4351 26.1675 78.0831 26.2922 77.6137 26.2922ZM79.0217 18.0862H82.4977C83.4951 18.0862 84.2504 17.8662 84.7637 17.4262C85.2771 16.9715 85.5337 16.3115 85.5337 15.4462C85.5337 14.5809 85.2771 13.9282 84.7637 13.4882C84.2504 13.0482 83.4951 12.8282 82.4977 12.8282H79.0217V18.0862ZM91.9653 26.2922C91.5106 26.2922 91.1586 26.1675 90.9093 25.9182C90.6746 25.6542 90.5573 25.2949 90.5573 24.8402V12.0362C90.5573 11.5669 90.6819 11.2149 90.9313 10.9802C91.1806 10.7309 91.5326 10.6062 91.9873 10.6062H97.2893C98.9906 10.6062 100.303 11.0315 101.227 11.8822C102.151 12.7329 102.613 13.9209 102.613 15.4462C102.613 16.9715 102.151 18.1669 101.227 19.0322C100.303 19.8829 98.9906 20.3082 97.2893 20.3082H93.3733V24.8402C93.3733 25.2949 93.2559 25.6542 93.0213 25.9182C92.7866 26.1675 92.4346 26.2922 91.9653 26.2922ZM93.3733 18.0862H96.8493C97.8466 18.0862 98.6019 17.8662 99.1153 17.4262C99.6286 16.9715 99.8853 16.3115 99.8853 15.4462C99.8853 14.5809 99.6286 13.9282 99.1153 13.4882C98.6019 13.0482 97.8466 12.8282 96.8493 12.8282H93.3733V18.0862ZM110.255 26.3362C109.61 26.3362 108.964 26.2849 108.319 26.1822C107.674 26.0942 107.065 25.9549 106.493 25.7642C105.921 25.5589 105.408 25.3095 104.953 25.0162C104.689 24.8402 104.506 24.6275 104.403 24.3782C104.3 24.1289 104.264 23.8869 104.293 23.6522C104.337 23.4029 104.432 23.1902 104.579 23.0142C104.74 22.8235 104.938 22.7062 105.173 22.6622C105.408 22.6182 105.664 22.6842 105.943 22.8602C106.588 23.2415 107.27 23.5202 107.989 23.6962C108.708 23.8722 109.463 23.9602 110.255 23.9602C111.414 23.9602 112.257 23.7695 112.785 23.3882C113.313 22.9922 113.577 22.4862 113.577 21.8702C113.577 21.3569 113.386 20.9535 113.005 20.6602C112.638 20.3669 112 20.1249 111.091 19.9342L108.671 19.4282C107.278 19.1349 106.236 18.6435 105.547 17.9542C104.872 17.2502 104.535 16.3262 104.535 15.1822C104.535 14.4635 104.682 13.8109 104.975 13.2242C105.268 12.6375 105.679 12.1315 106.207 11.7062C106.75 11.2809 107.388 10.9582 108.121 10.7382C108.869 10.5035 109.69 10.3862 110.585 10.3862C111.465 10.3862 112.301 10.4962 113.093 10.7162C113.885 10.9362 114.596 11.2589 115.227 11.6842C115.462 11.8455 115.616 12.0435 115.689 12.2782C115.777 12.5129 115.799 12.7475 115.755 12.9822C115.711 13.2022 115.608 13.3929 115.447 13.5542C115.286 13.7155 115.08 13.8109 114.831 13.8402C114.596 13.8695 114.325 13.7962 114.017 13.6202C113.474 13.3122 112.924 13.0922 112.367 12.9602C111.81 12.8282 111.208 12.7622 110.563 12.7622C109.888 12.7622 109.309 12.8575 108.825 13.0482C108.341 13.2389 107.967 13.5102 107.703 13.8622C107.454 14.1995 107.329 14.6029 107.329 15.0722C107.329 15.6002 107.505 16.0255 107.857 16.3482C108.209 16.6562 108.81 16.8982 109.661 17.0742L112.059 17.5802C113.511 17.8882 114.589 18.3722 115.293 19.0322C116.012 19.6922 116.371 20.5722 116.371 21.6722C116.371 22.3762 116.224 23.0142 115.931 23.5862C115.652 24.1582 115.242 24.6495 114.699 25.0602C114.171 25.4709 113.533 25.7862 112.785 26.0062C112.037 26.2262 111.194 26.3362 110.255 26.3362Z" fill="#101218"/>
<path d="M61.7222 46.0212C60.9855 46.0212 60.3395 45.8455 59.7842 45.4942C59.2402 45.1428 58.8152 44.6498 58.5092 44.0152C58.2145 43.3692 58.0672 42.6098 58.0672 41.7372C58.0672 40.8532 58.2145 40.0938 58.5092 39.4592C58.8152 38.8132 59.2402 38.3202 59.7842 37.9802C60.3395 37.6288 60.9855 37.4532 61.7222 37.4532C62.4702 37.4532 63.1105 37.6402 63.6432 38.0142C64.1758 38.3882 64.5328 38.8925 64.7142 39.5272H64.5272V34.4612C64.5272 34.2345 64.5838 34.0645 64.6972 33.9512C64.8218 33.8265 64.9975 33.7642 65.2242 33.7642C65.4395 33.7642 65.6038 33.8265 65.7172 33.9512C65.8418 34.0645 65.9042 34.2345 65.9042 34.4612V45.2732C65.9042 45.4998 65.8475 45.6755 65.7342 45.8002C65.6208 45.9248 65.4508 45.9872 65.2242 45.9872C65.0088 45.9872 64.8388 45.9248 64.7142 45.8002C64.6008 45.6755 64.5442 45.4998 64.5442 45.2732V43.6582L64.7312 43.8962C64.5498 44.5422 64.1872 45.0578 63.6432 45.4432C63.1105 45.8285 62.4702 46.0212 61.7222 46.0212ZM62.0112 44.9162C62.5212 44.9162 62.9688 44.7915 63.3542 44.5422C63.7395 44.2928 64.0342 43.9302 64.2382 43.4542C64.4535 42.9782 64.5612 42.4058 64.5612 41.7372C64.5612 40.7058 64.3288 39.9182 63.8642 39.3742C63.4108 38.8302 62.7932 38.5582 62.0112 38.5582C61.4898 38.5582 61.0365 38.6828 60.6512 38.9322C60.2772 39.1702 59.9825 39.5272 59.7672 40.0032C59.5632 40.4678 59.4612 41.0458 59.4612 41.7372C59.4612 42.7572 59.6935 43.5448 60.1582 44.1002C60.6228 44.6442 61.2405 44.9162 62.0112 44.9162ZM72.2113 46.0212C71.3386 46.0212 70.585 45.8512 69.9503 45.5112C69.327 45.1598 68.8396 44.6668 68.4883 44.0322C68.1483 43.3975 67.9783 42.6382 67.9783 41.7542C67.9783 40.8928 68.1483 40.1448 68.4883 39.5102C68.8283 38.8642 69.293 38.3598 69.8823 37.9972C70.483 37.6345 71.1743 37.4532 71.9563 37.4532C72.5116 37.4532 73.0103 37.5495 73.4523 37.7422C73.8943 37.9235 74.2683 38.1898 74.5743 38.5412C74.8916 38.8925 75.1296 39.3175 75.2883 39.8162C75.4583 40.3148 75.5433 40.8758 75.5433 41.4992C75.5433 41.6805 75.4923 41.8165 75.3903 41.9072C75.2883 41.9865 75.141 42.0262 74.9483 42.0262H69.0323V41.1252H74.6253L74.3533 41.3462C74.3533 40.7342 74.2626 40.2185 74.0813 39.7992C73.9 39.3685 73.6336 39.0398 73.2823 38.8132C72.9423 38.5865 72.5116 38.4732 71.9903 38.4732C71.4123 38.4732 70.9193 38.6092 70.5113 38.8812C70.1146 39.1418 69.8143 39.5102 69.6103 39.9862C69.4063 40.4508 69.3043 40.9948 69.3043 41.6182V41.7202C69.3043 42.7628 69.5536 43.5562 70.0523 44.1002C70.5623 44.6442 71.282 44.9162 72.2113 44.9162C72.5966 44.9162 72.9763 44.8652 73.3503 44.7632C73.7356 44.6612 74.1096 44.4912 74.4723 44.2532C74.631 44.1512 74.7726 44.1058 74.8973 44.1172C75.0333 44.1172 75.141 44.1568 75.2203 44.2362C75.2996 44.3042 75.3506 44.3948 75.3733 44.5082C75.4073 44.6102 75.396 44.7235 75.3393 44.8482C75.294 44.9728 75.1976 45.0805 75.0503 45.1712C74.6763 45.4432 74.2343 45.6528 73.7243 45.8002C73.2143 45.9475 72.71 46.0212 72.2113 46.0212ZM80.0521 46.0212C79.2361 46.0212 78.6128 45.7718 78.1821 45.2732C77.7515 44.7745 77.5361 44.0605 77.5361 43.1312V34.4612C77.5361 34.2345 77.5928 34.0645 77.7061 33.9512C77.8195 33.8265 77.9895 33.7642 78.2161 33.7642C78.4315 33.7642 78.6015 33.8265 78.7261 33.9512C78.8508 34.0645 78.9131 34.2345 78.9131 34.4612V43.0292C78.9131 43.6412 79.0321 44.1002 79.2701 44.4062C79.5195 44.7008 79.8821 44.8482 80.3581 44.8482C80.4601 44.8482 80.5508 44.8425 80.6301 44.8312C80.7095 44.8198 80.7888 44.8142 80.8681 44.8142C80.9928 44.8028 81.0778 44.8312 81.1231 44.8992C81.1798 44.9672 81.2081 45.1032 81.2081 45.3072C81.2081 45.5112 81.1628 45.6642 81.0721 45.7662C80.9815 45.8682 80.8341 45.9362 80.6301 45.9702C80.5395 45.9815 80.4431 45.9928 80.3411 46.0042C80.2391 46.0155 80.1428 46.0212 80.0521 46.0212ZM83.2464 45.9532C83.0197 45.9532 82.8497 45.8908 82.7364 45.7662C82.6231 45.6302 82.5664 45.4432 82.5664 45.2052V38.2522C82.5664 38.0142 82.6231 37.8328 82.7364 37.7082C82.8497 37.5835 83.0197 37.5212 83.2464 37.5212C83.4617 37.5212 83.6317 37.5835 83.7564 37.7082C83.8811 37.8328 83.9434 38.0142 83.9434 38.2522V45.2052C83.9434 45.4432 83.8811 45.6302 83.7564 45.7662C83.6431 45.8908 83.4731 45.9532 83.2464 45.9532ZM83.2464 35.6172C82.9631 35.6172 82.7421 35.5435 82.5834 35.3962C82.4247 35.2375 82.3454 35.0278 82.3454 34.7672C82.3454 34.4952 82.4247 34.2912 82.5834 34.1552C82.7421 34.0078 82.9631 33.9342 83.2464 33.9342C83.5411 33.9342 83.7621 34.0078 83.9094 34.1552C84.0681 34.2912 84.1474 34.4952 84.1474 34.7672C84.1474 35.0278 84.0681 35.2375 83.9094 35.3962C83.7621 35.5435 83.5411 35.6172 83.2464 35.6172ZM89.5946 45.9872C89.4019 45.9872 89.2319 45.9362 89.0846 45.8342C88.9373 45.7208 88.8126 45.5508 88.7106 45.3242L85.7696 38.4562C85.6903 38.2862 85.6619 38.1275 85.6846 37.9802C85.7073 37.8328 85.7753 37.7138 85.8886 37.6232C86.0019 37.5325 86.1606 37.4872 86.3646 37.4872C86.5459 37.4872 86.6876 37.5268 86.7896 37.6062C86.8916 37.6855 86.9823 37.8272 87.0616 38.0312L89.8496 44.8482H89.3906L92.2296 38.0312C92.3089 37.8272 92.3996 37.6855 92.5016 37.6062C92.6036 37.5268 92.7509 37.4872 92.9436 37.4872C93.1249 37.4872 93.2609 37.5325 93.3516 37.6232C93.4536 37.7138 93.5103 37.8328 93.5216 37.9802C93.5443 38.1162 93.5216 38.2692 93.4536 38.4392L90.4786 45.3242C90.3993 45.5508 90.2803 45.7208 90.1216 45.8342C89.9743 45.9362 89.7986 45.9872 89.5946 45.9872ZM98.8734 46.0212C98.0007 46.0212 97.2471 45.8512 96.6124 45.5112C95.9891 45.1598 95.5017 44.6668 95.1504 44.0322C94.8104 43.3975 94.6404 42.6382 94.6404 41.7542C94.6404 40.8928 94.8104 40.1448 95.1504 39.5102C95.4904 38.8642 95.9551 38.3598 96.5444 37.9972C97.1451 37.6345 97.8364 37.4532 98.6184 37.4532C99.1737 37.4532 99.6724 37.5495 100.114 37.7422C100.556 37.9235 100.93 38.1898 101.236 38.5412C101.554 38.8925 101.792 39.3175 101.95 39.8162C102.12 40.3148 102.205 40.8758 102.205 41.4992C102.205 41.6805 102.154 41.8165 102.052 41.9072C101.95 41.9865 101.803 42.0262 101.61 42.0262H95.6944V41.1252H101.287L101.015 41.3462C101.015 40.7342 100.925 40.2185 100.743 39.7992C100.562 39.3685 100.296 39.0398 99.9444 38.8132C99.6044 38.5865 99.1737 38.4732 98.6524 38.4732C98.0744 38.4732 97.5814 38.6092 97.1734 38.8812C96.7767 39.1418 96.4764 39.5102 96.2724 39.9862C96.0684 40.4508 95.9664 40.9948 95.9664 41.6182V41.7202C95.9664 42.7628 96.2157 43.5562 96.7144 44.1002C97.2244 44.6442 97.9441 44.9162 98.8734 44.9162C99.2587 44.9162 99.6384 44.8652 100.012 44.7632C100.398 44.6612 100.772 44.4912 101.134 44.2532C101.293 44.1512 101.435 44.1058 101.559 44.1172C101.695 44.1172 101.803 44.1568 101.882 44.2362C101.962 44.3042 102.013 44.3948 102.035 44.5082C102.069 44.6102 102.058 44.7235 102.001 44.8482C101.956 44.9728 101.86 45.0805 101.712 45.1712C101.338 45.4432 100.896 45.6528 100.386 45.8002C99.8764 45.9475 99.3721 46.0212 98.8734 46.0212ZM104.895 45.9872C104.669 45.9872 104.493 45.9248 104.368 45.8002C104.255 45.6755 104.198 45.4998 104.198 45.2732V38.1842C104.198 37.9575 104.255 37.7875 104.368 37.6742C104.482 37.5495 104.646 37.4872 104.861 37.4872C105.077 37.4872 105.241 37.5495 105.354 37.6742C105.479 37.7875 105.541 37.9575 105.541 38.1842V39.5612H105.371C105.553 38.8925 105.898 38.3768 106.408 38.0142C106.918 37.6515 107.547 37.4588 108.295 37.4362C108.465 37.4248 108.601 37.4645 108.703 37.5552C108.805 37.6345 108.862 37.7762 108.873 37.9802C108.885 38.1728 108.839 38.3258 108.737 38.4392C108.635 38.5525 108.477 38.6205 108.261 38.6432L107.989 38.6772C107.219 38.7452 106.624 38.9945 106.204 39.4252C105.796 39.8445 105.592 40.4225 105.592 41.1592V45.2732C105.592 45.4998 105.53 45.6755 105.405 45.8002C105.292 45.9248 105.122 45.9872 104.895 45.9872ZM113.914 46.0212C113.042 46.0212 112.288 45.8512 111.653 45.5112C111.03 45.1598 110.543 44.6668 110.191 44.0322C109.851 43.3975 109.681 42.6382 109.681 41.7542C109.681 40.8928 109.851 40.1448 110.191 39.5102C110.531 38.8642 110.996 38.3598 111.585 37.9972C112.186 37.6345 112.877 37.4532 113.659 37.4532C114.215 37.4532 114.713 37.5495 115.155 37.7422C115.597 37.9235 115.971 38.1898 116.277 38.5412C116.595 38.8925 116.833 39.3175 116.991 39.8162C117.161 40.3148 117.246 40.8758 117.246 41.4992C117.246 41.6805 117.195 41.8165 117.093 41.9072C116.991 41.9865 116.844 42.0262 116.651 42.0262H110.735V41.1252H116.328L116.056 41.3462C116.056 40.7342 115.966 40.2185 115.784 39.7992C115.603 39.3685 115.337 39.0398 114.985 38.8132C114.645 38.5865 114.215 38.4732 113.693 38.4732C113.115 38.4732 112.622 38.6092 112.214 38.8812C111.818 39.1418 111.517 39.5102 111.313 39.9862C111.109 40.4508 111.007 40.9948 111.007 41.6182V41.7202C111.007 42.7628 111.257 43.5562 111.755 44.1002C112.265 44.6442 112.985 44.9162 113.914 44.9162C114.3 44.9162 114.679 44.8652 115.053 44.7632C115.439 44.6612 115.813 44.4912 116.175 44.2532C116.334 44.1512 116.476 44.1058 116.6 44.1172C116.736 44.1172 116.844 44.1568 116.923 44.2362C117.003 44.3042 117.054 44.3948 117.076 44.5082C117.11 44.6102 117.099 44.7235 117.042 44.8482C116.997 44.9728 116.901 45.0805 116.753 45.1712C116.379 45.4432 115.937 45.6528 115.427 45.8002C114.917 45.9475 114.413 46.0212 113.914 46.0212ZM122.384 46.0212C121.648 46.0212 121.002 45.8455 120.446 45.4942C119.902 45.1428 119.477 44.6498 119.171 44.0152C118.877 43.3692 118.729 42.6098 118.729 41.7372C118.729 40.8532 118.877 40.0938 119.171 39.4592C119.477 38.8132 119.902 38.3202 120.446 37.9802C121.002 37.6288 121.648 37.4532 122.384 37.4532C123.132 37.4532 123.773 37.6402 124.305 38.0142C124.838 38.3882 125.195 38.8925 125.376 39.5272H125.189V34.4612C125.189 34.2345 125.246 34.0645 125.359 33.9512C125.484 33.8265 125.66 33.7642 125.886 33.7642C126.102 33.7642 126.266 33.8265 126.379 33.9512C126.504 34.0645 126.566 34.2345 126.566 34.4612V45.2732C126.566 45.4998 126.51 45.6755 126.396 45.8002C126.283 45.9248 126.113 45.9872 125.886 45.9872C125.671 45.9872 125.501 45.9248 125.376 45.8002C125.263 45.6755 125.206 45.4998 125.206 45.2732V43.6582L125.393 43.8962C125.212 44.5422 124.849 45.0578 124.305 45.4432C123.773 45.8285 123.132 46.0212 122.384 46.0212ZM122.673 44.9162C123.183 44.9162 123.631 44.7915 124.016 44.5422C124.402 44.2928 124.696 43.9302 124.9 43.4542C125.116 42.9782 125.223 42.4058 125.223 41.7372C125.223 40.7058 124.991 39.9182 124.526 39.3742C124.073 38.8302 123.455 38.5582 122.673 38.5582C122.152 38.5582 121.699 38.6828 121.313 38.9322C120.939 39.1702 120.645 39.5272 120.429 40.0032C120.225 40.4678 120.123 41.0458 120.123 41.7372C120.123 42.7572 120.356 43.5448 120.82 44.1002C121.285 44.6442 121.903 44.9162 122.673 44.9162Z" fill="#40424A"/>
</svg>
